SplineFontDB: 3.0
FontName: BenchTwelve-Regular
FullName: BenchTwelve Regular
FamilyName: BenchTwelve
Weight: Regular
Copyright: 
Version: 
FONDName: Twelve1
ItalicAngle: 0
UnderlinePosition: -205
UnderlineWidth: 102
Ascent: 1638
Descent: 410
UFOAscent: 1475
UFODescent: -299
LayerCount: 2
Layer: 0 0 "Back"  1
Layer: 1 0 "Fore"  0
FSType: 0
OS2Version: 0
OS2_WeightWidthSlopeOnly: 0
OS2_UseTypoMetrics: 0
CreationTime: 1342020920
ModificationTime: 1342180141
PfmFamily: 0
TTFWeight: 100
TTFWidth: 5
LineGap: 9
VLineGap: 0
Panose: 0 0 0 0 0 0 0 0 0 0
OS2TypoAscent: 1536
OS2TypoAOffset: 0
OS2TypoDescent: -512
OS2TypoDOffset: 0
OS2TypoLinegap: 0
OS2WinAscent: 0
OS2WinAOffset: 0
OS2WinDescent: 0
OS2WinDOffset: 0
HheadAscent: 750
HheadAOffset: 0
HheadDescent: -250
HheadDOffset: 0
OS2SubXSize: 1434
OS2SubYSize: 1331
OS2SubXOff: 0
OS2SubYOff: 287
OS2SupXSize: 1434
OS2SupYSize: 1331
OS2SupXOff: 0
OS2SupYOff: 977
OS2StrikeYSize: 102
OS2StrikeYPos: 512
OS2Vendor: 'newt'
OS2CodePages: 00000000.00000000
OS2UnicodeRanges: 00000000.00000000.00000000.00000000
Lookup: 260 0 0 "diacritics"  {"diacritics-1"  } ['mark' ('DFLT' <'dflt' > 'grek' <'dflt' > 'latn' <'dflt' > ) ]
MarkAttachClasses: 1
DEI: 91125
LangName: 1033 "" "" "" "" "" "" "" "" "" "" "" "" "" "" "" "" "" "" "BenchTwelve" 
PickledData: "(dp1
S'com.typemytype.robofont.foreground.layerStrokeColor'
p2
(F0.5
F0
F0.5
F0.69999999999999996
tp3
sS'com.typemytype.robofont.guides'
p4
((dp5
S'angle'
p6
I0
sS'name'
p7
NsS'magnetic'
p8
I5
sS'isGlobal'
p9
I1
sS'y'
I1299
sS'x'
I1154
s(dp10
g6
I0
sg7
Nsg8
I5
sg9
I1
sS'y'
I111
sS'x'
I840
s(dp11
g6
I0
sg7
Nsg8
I5
sg9
I1
sS'y'
I900
sS'x'
I832
s(dp12
g6
I0
sg7
Nsg8
I5
sg9
I1
sS'y'
I1052
sS'x'
I869
stp13
sS'com.typemytype.robofont.b.layerStrokeColor'
p14
(F0.5
F1
F0
F0.69999999999999996
tp15
sS'com.typemytype.robofont.layerOrder'
p16
(S'b'
tp17
sS'com.typemytype.robofont.segmentType'
p18
S'curve'
p19
sS'com.typemytype.robofont.sort'
p20
((dp21
S'type'
p22
S'glyphList'
p23
sS'ascending'
p24

StartChar: A
Encoding: 33 65 0
Width: 1887
VWidth: 0
Flags: HW
PickledData: "(dp1
S'com.typemytype.robofont.layerData'
p2
(dp3
S'b'
(dp4
S'name'
p5
S'A'
sS'lib'
p6
(dp7
sS'unicodes'
p8
(tsS'width'
p9
I1890
sS'contours'
p10
((dp11
S'points'
p12
((dp13
S'segmentType'
p14
S'line'
p15
sS'x'
F610
sS'smooth'
p16
I01
sS'y'
F481
s(dp17
S'y'
F481
sS'x'
F605
sg16
I00
s(dp18
S'y'
F483
sS'x'
F603
sg16
I00
s(dp19
g14
S'curve'
p20
sS'x'
F603
sg16
I01
sS'y'
F485
s(dp21
S'y'
F486
sS'x'
F603
sg16
I00
s(dp22
S'y'
F487
sS'x'
F604
sg16
I00
s(dp23
g14
S'curve'
p24
sS'x'
F604
sg16
I00
sS'y'
F488
s(dp25
g14
S'line'
p26
sS'x'
F1002
sg16
I00
sS'y'
F1278
s(dp27
S'y'
F1278
sS'x'
F1003
sg16
I00
s(dp28
S'y'
F1280
sS'x'
F1003
sg16
I00
s(dp29
g14
S'curve'
p30
sS'x'
F1004
sg16
I01
sS'y'
F1280
s(dp31
S'y'
F1280
sS'x'
F1005
sg16
I00
s(dp32
S'y'
F1279
sS'x'
F1005
sg16
I00
s(dp33
g14
S'curve'
p34
sS'x'
F1006
sg16
I00
sS'y'
F1278
s(dp35
g14
S'line'
p36
sS'x'
F1381
sg16
I00
sS'y'
F489
s(dp37
S'y'
F488
sS'x'
F1382
sg16
I00
s(dp38
S'y'
F486
sS'x'
F1383
sg16
I00
s(dp39
g14
S'curve'
p40
sS'x'
F1383
sg16
I01
sS'y'
F484
s(dp41
S'y'
F482
sS'x'
F1383
sg16
I00
s(dp42
S'y'
F481
sS'x'
F1382
sg16
I00
s(dp43
g14
S'curve'
p44
sS'x'
F1378
sg16
I01
sS'y'
F481
stp45
s(dp46
g12
((dp47
g14
S'curve'
p48
sS'x'
F194
sg16
I01
sS'y'
F0
s(dp49
g14
S'line'
p50
sS'x'
F298
sg16
I01
sS'y'
F0
s(dp51
S'y'
F0
sS'x'
F341
sg16
I00
s(dp52
S'y'
F24
sS'x'
F377
sg16
I00
s(dp53
g14
S'curve'
p54
sS'x'
F397
sg16
I01
sS'y'
F67
s(dp55
g14
S'line'
p56
sS'x'
F525
sg16
I00
sS'y'
F320
s(dp57
g14
S'line'
p58
sS'x'
F534
sg16
I00
sS'y'
F326
s(dp59
g14
S'line'
p60
sS'x'
F1447
sg16
I00
sS'y'
F326
s(dp61
g14
S'line'
p62
sS'x'
F1455
sg16
I00
sS'y'
F321
s(dp63
g14
S'line'
p64
sS'x'
F1576
sg16
I01
sS'y'
F67
s(dp65
S'y'
F23
sS'x'
F1596
sg16
I00
s(dp66
S'y'
F0
sS'x'
F1634
sg16
I00
s(dp67
g14
S'curve'
p68
sS'x'
F1677
sg16
I01
sS'y'
F0
s(dp69
g14
S'line'
p70
sS'x'
F1781
sg16
I01
sS'y'
F0
s(dp71
S'y'
F0
sS'x'
F1810
sg16
I00
s(dp72
S'y'
F11
sS'x'
F1825
sg16
I00
s(dp73
g14
S'curve'
p74
sS'x'
F1825
sg16
I01
sS'y'
F31
s(dp75
S'y'
F41
sS'x'
F1825
sg16
I00
s(dp76
S'y'
F53
sS'x'
F1821
sg16
I00
s(dp77
g14
S'curve'
p78
sS'x'
F1814
sg16
I01
sS'y'
F67
s(dp79
g14
S'line'
p80
sS'x'
F1160
sg16
I01
sS'y'
F1371
s(dp81
S'y'
F1412
sS'x'
F1139
sg16
I00
s(dp82
S'y'
F1435
sS'x'
F1106
sg16
I00
s(dp83
g14
S'curve'
p84
sS'x'
F1066
sg16
I00
sS'y'
F1438
s(dp85
g14
S'line'
p86
sS'x'
F946
sg16
I00
sS'y'
F1438
s(dp87
S'y'
F1435
sS'x'
F906
sg16
I00
s(dp88
S'y'
F1412
sS'x'
F873
sg16
I00
s(dp89
g14
S'curve'
p90
sS'x'
F853
sg16
I01
sS'y'
F1371
s(dp91
g14
S'line'
p92
sS'x'
F159
sg16
I01
sS'y'
F67
s(dp93
S'y'
F53
sS'x'
F152
sg16
I00
s(dp94
S'y'
F42
sS'x'
F149
sg16
I00
s(dp95
g14
S'curve'
p96
sS'x'
F149
sg16
I01
sS'y'
F32
s(dp97
S'y'
F11
sS'x'
F149
sg16
I00
s(dp98
S'y'
F0
sS'x'
F165
sg16
I00
stp99
stp100
sS'components'
p101
(tsS'anchors'
p102
(tsss."
AnchorPoint: "bot" 1671.5 -0.599991 basechar 0
AnchorPoint: "top" 961 1420 basechar 0
LayerCount: 2
Fore
SplineSet
149 0 m 2
 258 0 l 2
 301 0 337 24 357 67 c 1
 489 332 l 1
 498 338 l 1
 1392 338 l 1
 1400 333 l 1
 1525 67 l 2
 1545 23 1583 0 1626 0 c 2
 1736 0 l 2
 1765 0 1780 11 1780 31 c 0
 1780 41 1776 53 1769 67 c 2
 1121 1371 l 2
 1100 1412 1067 1435 1027 1438 c 1
 897 1438 l 1
 857 1435 824 1412 804 1371 c 1
 114 67 l 2
 107 53 104 42 104 32 c 0
 104 11 120 0 149 0 c 2
1331 473 m 2
 566 473 l 2
 561 473 559 475 559 477 c 0
 559 478 560 479 560 480 c 2
 957 1262 l 2
 958 1262 958 1264 959 1264 c 0
 960 1264 960 1263 961 1262 c 2
 1334 481 l 2
 1335 480 1336 478 1336 476 c 0
 1336 474 1335 473 1331 473 c 2
EndSplineSet
EndChar

StartChar: AE
Encoding: 132 198 1
Width: 2154
VWidth: 0
Flags: W
PickledData: "(dp1
S'com.typemytype.robofont.layerData'
p2
(dp3
S'b'
(dp4
S'name'
p5
S'AE'
p6
sS'lib'
p7
(dp8
sS'unicodes'
p9
(tsS'width'
p10
I2156
sS'contours'
p11
(tsS'components'
p12
(tsS'anchors'
p13
(tsss."
LayerCount: 2
Fore
SplineSet
150 0 m 2
 254 0 l 2
 297 0 333 24 353 67 c 1
 485 332 l 1
 494 338 l 1
 961 338 l 1
 961 67 l 2
 961 24 985 0 1028 0 c 2
 1950 0 l 2
 1993 0 2017 34 2017 77 c 2
 2017 84 l 2
 2017 127 1993 160 1950 160 c 2
 1203 160 l 1
 1189 177 l 1
 1189 646 l 1
 1209 663 l 1
 1838 663 l 2
 1881 663 1905 697 1905 740 c 2
 1905 746 l 2
 1905 789 1881 823 1838 823 c 2
 1203 823 l 1
 1189 849 l 1
 1189 1253 l 2
 1189 1273 1196 1278 1216 1278 c 2
 1950 1278 l 2
 1993 1278 2017 1312 2017 1355 c 2
 2017 1361 l 2
 2017 1404 1993 1438 1950 1438 c 2
 902 1438 l 1
 862 1435 829 1412 809 1371 c 1
 115 67 l 2
 108 53 105 42 105 32 c 0
 105 11 121 0 150 0 c 2
960 1280 m 2
 961 1279 l 1
 961 473 l 1
 562 473 l 2
 557 473 555 475 555 477 c 0
 555 478 556 479 556 480 c 2
 958 1278 l 2
 959 1278 959 1280 960 1280 c 2
EndSplineSet
EndChar

StartChar: B
Encoding: 34 66 3
Width: 2273
VWidth: 0
Flags: HW
PickledData: "(dp1
S'com.typemytype.robofont.layerData'
p2
(dp3
S'b'
(dp4
S'name'
p5
S'B'
sS'lib'
p6
(dp7
sS'unicodes'
p8
(tsS'width'
p9
I2273
sS'contours'
p10
((dp11
S'points'
p12
((dp13
S'segmentType'
p14
S'curve'
p15
sS'x'
F196
sS'smooth'
p16
I01
sS'y'
F1438
s(dp17
g14
S'line'
p18
sS'x'
F290
sg16
I01
sS'y'
F1438
s(dp19
S'y'
F1438
sS'x'
F333
sg16
I00
s(dp20
S'y'
F1414
sS'x'
F357
sg16
I00
s(dp21
g14
S'curve'
p22
sS'x'
F357
sg16
I01
sS'y'
F1371
s(dp23
g14
S'line'
p24
sS'x'
F357
sg16
I01
sS'y'
F67
s(dp25
S'y'
F24
sS'x'
F357
sg16
I00
s(dp26
S'y'
F0
sS'x'
F333
sg16
I00
s(dp27
g14
S'curve'
p28
sS'x'
F290
sg16
I01
sS'y'
F0
s(dp29
g14
S'line'
p30
sS'x'
F196
sg16
I01
sS'y'
F0
s(dp31
S'y'
F0
sS'x'
F153
sg16
I00
s(dp32
S'y'
F24
sS'x'
F129
sg16
I00
s(dp33
g14
S'curve'
p34
sS'x'
F129
sg16
I01
sS'y'
F67
s(dp35
g14
S'line'
p36
sS'x'
F129
sg16
I01
sS'y'
F1371
s(dp37
S'y'
F1414
sS'x'
F129
sg16
I00
s(dp38
S'y'
F1438
sS'x'
F153
sg16
I00
stp39
stp40
sS'components'
p41
(tsS'anchors'
p42
(tsss."
AnchorPoint: "top" 1065 1420 basechar 0
LayerCount: 2
Fore
SplineSet
237 0 m 2
 1404 0 l 2
 1903 0 2137 96 2137 424 c 0
 2137 590 2027 694 1873 757 c 0
 1858 763 1857 780 1870 788 c 0
 1972 848 2039 929 2039 1040 c 0
 2039 1339 1877 1438 1449 1438 c 2
 237 1438 l 2
 194 1438 160 1402 160 1359 c 2
 160 77 l 2
 160 34 194 0 237 0 c 2
1472 160 m 2
 425 160 l 2
 405 160 388 160 388 195 c 2
 388 625 l 2
 388 659 405 664 425 664 c 2
 1526 664 l 2
 1737 664 1903 623 1903 417 c 0
 1903 187 1659 160 1472 160 c 2
1543 834 m 1
 425 834 l 2
 405 834 388 863 388 897 c 2
 388 1236 l 2
 388 1270 405 1278 425 1278 c 2
 1463 1278 l 2
 1629 1278 1824 1273 1824 1043 c 0
 1824 873 1705 841 1543 834 c 1
EndSplineSet
EndChar

StartChar: C
Encoding: 35 67 4
Width: 2193
VWidth: 0
Flags: HW
PickledData: "(dp1
S'com.typemytype.robofont.layerData'
p2
(dp3
S'b'
(dp4
S'name'
p5
S'C'
sS'lib'
p6
(dp7
sS'unicodes'
p8
(tsS'width'
p9
I2192
sS'contours'
p10
(tsS'components'
p11
(tsS'anchors'
p12
(tsss."
AnchorPoint: "bot" 1131.5 0.400024 basechar 0
AnchorPoint: "top" 1120 1420 basechar 0
LayerCount: 2
Fore
SplineSet
1131 -41 m 0
 1495 -41 1882 48 2052 392 c 0
 2054 396 2055 401 2055 407 c 0
 2055 418 2050 430 2036 431 c 1
 1871 458 1868 458 1865 458 c 0
 1834 458 1825 433 1817 420 c 0
 1677 189 1422 127 1131 127 c 0
 744 127 362 231 362 721 c 0
 362 1139 731 1307 1131 1307 c 0
 1429 1307 1672 1210 1816 995 c 0
 1827 978 1847 972 1862 972 c 0
 1863 972 1865 972 2036 996 c 0
 2051 999 2055 1007 2055 1014 c 0
 2055 1021 2052 1028 2050 1033 c 0
 1878 1362 1495 1475 1131 1475 c 0
 673 1475 133 1293 133 721 c 0
 133 102 673 -41 1131 -41 c 0
EndSplineSet
EndChar

StartChar: D
Encoding: 36 68 5
Width: 2214
VWidth: 0
Flags: HW
PickledData: "(dp1
S'com.typemytype.robofont.layerData'
p2
(dp3
S'b'
(dp4
S'name'
p5
S'D'
sS'lib'
p6
(dp7
sS'unicodes'
p8
(tsS'width'
p9
I2214
sS'contours'
p10
(tsS'components'
p11
(tsS'anchors'
p12
(tsss."
AnchorPoint: "top" 977 1393 basechar 0
LayerCount: 2
Fore
SplineSet
1141 160 m 2
 415 160 l 1
 388 182 l 1
 388 1260 l 1
 409 1278 l 1
 1141 1278 l 2
 1544 1278 1851 1139 1851 721 c 0
 1851 231 1531 160 1141 160 c 2
227 0 m 2
 1139 0 l 2
 1600 0 2080 102 2080 721 c 0
 2080 1293 1600 1438 1139 1438 c 2
 227 1438 l 2
 184 1438 160 1414 160 1371 c 2
 160 67 l 2
 160 24 184 0 227 0 c 2
EndSplineSet
EndChar

StartChar: E
Encoding: 37 69 6
Width: 1705
VWidth: 0
Flags: HW
PickledData: "(dp1
S'com.typemytype.robofont.guides'
p2
(tsS'com.typemytype.robofont.layerData'
p3
(dp4
S'b'
(dp5
S'name'
p6
S'E'
sS'lib'
p7
(dp8
sS'unicodes'
p9
(tsS'width'
p10
I1706
sS'contours'
p11
(tsS'components'
p12
(tsS'anchors'
p13
(tsss."
AnchorPoint: "bot" 1131.5 0.400024 basechar 0
AnchorPoint: "top" 850 1438 basechar 0
LayerCount: 2
Fore
SplineSet
227 0 m 2
 1501 0 l 2
 1544 0 1568 34 1568 77 c 2
 1568 84 l 2
 1568 127 1544 160 1501 160 c 2
 402 160 l 1
 388 177 l 1
 388 646 l 1
 408 663 l 1
 1389 663 l 2
 1432 663 1456 697 1456 740 c 2
 1456 746 l 2
 1456 789 1432 823 1389 823 c 2
 402 823 l 1
 388 849 l 1
 388 1253 l 2
 388 1273 395 1278 415 1278 c 2
 1501 1278 l 2
 1544 1278 1568 1312 1568 1355 c 2
 1568 1361 l 2
 1568 1404 1544 1438 1501 1438 c 2
 227 1438 l 2
 184 1438 160 1404 160 1361 c 2
 160 67 l 2
 160 24 184 0 227 0 c 2
EndSplineSet
EndChar

StartChar: F
Encoding: 38 70 10
Width: 1645
VWidth: 0
Flags: HW
PickledData: "(dp1
S'com.typemytype.robofont.layerData'
p2
(dp3
S'b'
(dp4
S'name'
p5
S'F'
sS'lib'
p6
(dp7
sS'unicodes'
p8
(tsS'width'
p9
I1646
sS'contours'
p10
(tsS'components'
p11
(tsS'anchors'
p12
(tsss."
AnchorPoint: "top" 850 1438 basechar 0
LayerCount: 2
Fore
SplineSet
227 0 m 2
 321 0 l 2
 364 0 388 24 388 67 c 2
 388 577 l 1
 403 594 l 1
 1339 594 l 2
 1382 594 1406 628 1406 671 c 2
 1406 698 l 2
 1406 741 1382 775 1339 775 c 2
 398 775 l 1
 388 783 l 1
 388 1253 l 2
 388 1273 390 1278 410 1278 c 2
 1469 1278 l 2
 1512 1278 1536 1312 1536 1355 c 2
 1536 1361 l 2
 1536 1404 1512 1438 1469 1438 c 2
 227 1438 l 2
 184 1438 160 1404 160 1361 c 2
 160 67 l 2
 160 24 184 0 227 0 c 2
EndSplineSet
EndChar

StartChar: G
Encoding: 39 71 11
Width: 2288
VWidth: 0
Flags: HW
PickledData: "(dp1
S'com.typemytype.robofont.layerData'
p2
(dp3
S'b'
(dp4
S'name'
p5
S'G'
sS'lib'
p6
(dp7
sS'unicodes'
p8
(tsS'width'
p9
I2287
sS'contours'
p10
((dp11
S'points'
p12
((dp13
S'segmentType'
p14
S'curve'
p15
sS'x'
F1155
sS'smooth'
p16
I01
sS'y'
F-41
s(dp17
S'y'
F-41
sS'x'
F1519
sg16
I00
s(dp18
S'y'
F48
sS'x'
F1906
sg16
I00
s(dp19
g14
S'curve'
p20
sS'x'
F2076
sg16
I00
sS'y'
F392
s(dp21
S'y'
F396
sS'x'
F2078
sg16
I00
s(dp22
S'y'
F401
sS'x'
F2079
sg16
I00
s(dp23
g14
S'curve'
p24
sS'x'
F2079
sg16
I01
sS'y'
F407
s(dp25
S'y'
F418
sS'x'
F2079
sg16
I00
s(dp26
S'y'
F430
sS'x'
F2074
sg16
I00
s(dp27
g14
S'curve'
p28
sS'x'
F2060
sg16
I00
sS'y'
F431
s(dp29
S'y'
F458
sS'x'
F1895
sg16
I00
s(dp30
S'y'
F458
sS'x'
F1892
sg16
I00
s(dp31
g14
S'curve'
p32
sS'x'
F1889
sg16
I01
sS'y'
F458
s(dp33
S'y'
F458
sS'x'
F1858
sg16
I00
s(dp34
S'y'
F433
sS'x'
F1849
sg16
I00
s(dp35
g14
S'curve'
p36
sS'x'
F1841
sg16
I01
sS'y'
F420
s(dp37
S'y'
F189
sS'x'
F1701
sg16
I00
s(dp38
S'y'
F135
sS'x'
F1446
sg16
I00
s(dp39
g14
S'curve'
p40
sS'x'
F1155
sg16
I01
sS'y'
F135
s(dp41
S'y'
F135
sS'x'
F768
sg16
I00
s(dp42
S'y'
F231
sS'x'
F386
sg16
I00
s(dp43
g14
S'curve'
p44
sS'x'
F386
sg16
I01
sS'y'
F721
s(dp45
S'y'
F1139
sS'x'
F386
sg16
I00
s(dp46
S'y'
F1299
sS'x'
F755
sg16
I00
s(dp47
g14
S'curve'
p48
sS'x'
F1155
sg16
I01
sS'y'
F1299
s(dp49
S'y'
F1299
sS'x'
F1453
sg16
I00
s(dp50
S'y'
F1210
sS'x'
F1696
sg16
I00
s(dp51
g14
S'curve'
p52
sS'x'
F1840
sg16
I00
sS'y'
F995
s(dp53
S'y'
F978
sS'x'
F1851
sg16
I00
s(dp54
S'y'
F972
sS'x'
F1871
sg16
I00
s(dp55
g14
S'curve'
p56
sS'x'
F1886
sg16
I01
sS'y'
F972
s(dp57
S'y'
F972
sS'x'
F1887
sg16
I00
s(dp58
S'y'
F972
sS'x'
F1889
sg16
I00
s(dp59
g14
S'curve'
p60
sS'x'
F2060
sg16
I00
sS'y'
F996
s(dp61
S'y'
F999
sS'x'
F2075
sg16
I00
s(dp62
S'y'
F1007
sS'x'
F2079
sg16
I00
s(dp63
g14
S'curve'
p64
sS'x'
F2079
sg16
I01
sS'y'
F1014
s(dp65
S'y'
F1021
sS'x'
F2079
sg16
I00
s(dp66
S'y'
F1028
sS'x'
F2076
sg16
I00
s(dp67
g14
S'curve'
p68
sS'x'
F2074
sg16
I00
sS'y'
F1033
s(dp69
S'y'
F1362
sS'x'
F1902
sg16
I00
s(dp70
S'y'
F1475
sS'x'
F1519
sg16
I00
s(dp71
g14
S'curve'
p72
sS'x'
F1155
sg16
I01
sS'y'
F1475
s(dp73
S'y'
F1475
sS'x'
F697
sg16
I00
s(dp74
S'y'
F1293
sS'x'
F157
sg16
I00
s(dp75
g14
S'curve'
p76
sS'x'
F157
sg16
I01
sS'y'
F721
s(dp77
S'y'
F102
sS'x'
F157
sg16
I00
s(dp78
S'y'
F-41
sS'x'
F697
sg16
I00
stp79
stp80
sS'components'
p81
(tsS'anchors'
p82
(tsss."
AnchorPoint: "top" 1120 1420 basechar 0
LayerCount: 2
Fore
SplineSet
1133 -41 m 0
 1415 -41 1747 31 1940 265 c 1
 1947 271 1951 275 1954 275 c 0
 1960 275 1962 259 1963 252 c 0
 1972 199 1982 100 1991 70 c 0
 2004 27 2027 0 2073 0 c 0
 2116 0 2140 34 2140 77 c 2
 2140 683 l 2
 2140 726 2106 760 2063 760 c 2
 1309 760 l 2
 1266 760 1232 734 1232 691 c 2
 1232 674 l 2
 1232 631 1266 605 1309 605 c 2
 1898 605 l 2
 1914 605 1920 579 1920 563 c 0
 1920 315 1538 127 1133 127 c 0
 746 127 362 231 362 721 c 0
 362 1139 733 1307 1133 1307 c 0
 1431 1307 1695 1215 1823 1028 c 0
 1828 1020 1857 972 1914 972 c 0
 1920 972 2068 998 2068 998 c 2
 2080 1000 2086 1008 2086 1017 c 0
 2086 1022 2085 1027 2082 1033 c 0
 1910 1362 1497 1475 1133 1475 c 0
 675 1475 133 1293 133 721 c 0
 133 102 675 -41 1133 -41 c 0
EndSplineSet
EndChar

StartChar: H
Encoding: 40 72 12
Width: 2048
VWidth: 0
Flags: HW
PickledData: "(dp1
S'com.typemytype.robofont.layerData'
p2
(dp3
S'b'
(dp4
S'name'
p5
S'H'
sS'lib'
p6
(dp7
sS'unicodes'
p8
(tsS'width'
p9
I2048
sS'contours'
p10
(tsS'components'
p11
(tsS'anchors'
p12
(tsss."
AnchorPoint: "top" 1010 1434 basechar 0
LayerCount: 2
Fore
SplineSet
227 0 m 2
 321 0 l 2
 364 0 388 24 388 67 c 2
 388 647 l 1
 404 663 l 1
 1644 663 l 1
 1660 645 l 1
 1660 67 l 2
 1660 24 1684 0 1727 0 c 2
 1821 0 l 2
 1864 0 1888 24 1888 67 c 2
 1888 1371 l 2
 1888 1414 1864 1438 1821 1438 c 2
 1727 1438 l 2
 1684 1438 1660 1414 1660 1371 c 2
 1660 841 l 1
 1642 823 l 1
 402 823 l 1
 388 838 l 1
 388 1371 l 2
 388 1414 364 1438 321 1438 c 2
 227 1438 l 2
 184 1438 160 1414 160 1371 c 2
 160 67 l 2
 160 24 184 0 227 0 c 2
EndSplineSet
EndChar

StartChar: I
Encoding: 41 73 13
Width: 548
VWidth: 0
Flags: HW
PickledData: "(dp1
S'com.typemytype.robofont.layerData'
p2
(dp3
S'b'
(dp4
S'name'
p5
S'I'
sS'lib'
p6
(dp7
sS'unicodes'
p8
(tsS'width'
p9
I548
sS'contours'
p10
(tsS'components'
p11
(tsS'anchors'
p12
(tsss."
AnchorPoint: "bot" 273.5 0.200027 basechar 0
AnchorPoint: "top" 274 1438 basechar 0
LayerCount: 2
Fore
SplineSet
227 0 m 2
 321 0 l 2
 364 0 388 24 388 67 c 2
 388 1371 l 2
 388 1414 364 1438 321 1438 c 2
 227 1438 l 2
 184 1438 160 1414 160 1371 c 2
 160 67 l 2
 160 24 184 0 227 0 c 2
EndSplineSet
EndChar

StartChar: J
Encoding: 42 74 14
Width: 1188
VWidth: 0
Flags: HW
PickledData: "(dp1
S'com.typemytype.robofont.layerData'
p2
(dp3
S'b'
(dp4
S'name'
p5
S'J'
sS'lib'
p6
(dp7
sS'unicodes'
p8
(tsS'width'
p9
I1189
sS'contours'
p10
(tsS'components'
p11
(tsS'anchors'
p12
(tsss."
AnchorPoint: "top" 833 1438 basechar 0
LayerCount: 2
Fore
SplineSet
112 -229 m 0
 573 -229 1032 -156 1032 463 c 2
 1032 1371 l 2
 1032 1414 1008 1438 965 1438 c 2
 871 1438 l 2
 828 1438 804 1414 804 1371 c 2
 804 463 l 2
 804 -27 502 -53 112 -53 c 0
 99 -53 81 -67 81 -107 c 0
 81 -110 81 -173 81 -176 c 0
 81 -211 97 -229 112 -229 c 0
EndSplineSet
EndChar

StartChar: K
Encoding: 43 75 15
Width: 1621
VWidth: 0
Flags: HW
PickledData: "(dp1
S'com.typemytype.robofont.layerData'
p2
(dp3
S'b'
(dp4
S'name'
p5
S'K'
sS'lib'
p6
(dp7
sS'unicodes'
p8
(tsS'width'
p9
I1623
sS'contours'
p10
(tsS'components'
p11
(tsS'anchors'
p12
(tsss."
AnchorPoint: "top" 825 1438 basechar 0
LayerCount: 2
Fore
SplineSet
227 0 m 2
 321 0 l 2
 364 0 388 24 388 67 c 2
 388 735 l 1
 1168 67 l 1
 1207 32 1237 0 1280 0 c 2
 1448 0 l 2
 1491 0 1508 32 1470 67 c 1
 673 736 l 2
 667 741 665 745 665 748 c 0
 665 753 669 757 672 759 c 2
 1398 1365 l 1
 1436 1399 1416 1438 1373 1438 c 2
 1216 1438 l 2
 1173 1438 1144 1410 1107 1376 c 1
 388 762 l 1
 388 1371 l 2
 388 1414 364 1438 321 1438 c 2
 227 1438 l 2
 184 1438 160 1414 160 1371 c 2
 160 67 l 2
 160 24 184 0 227 0 c 2
EndSplineSet
EndChar

StartChar: L
Encoding: 44 76 16
Width: 1358
VWidth: 0
Flags: HW
PickledData: "(dp1
S'com.typemytype.robofont.guides'
p2
(tsS'com.typemytype.robofont.layerData'
p3
(dp4
S'b'
(dp5
S'name'
p6
S'L'
sS'lib'
p7
(dp8
sS'unicodes'
p9
(tsS'width'
p10
I1359
sS'contours'
p11
(tsS'components'
p12
(tsS'anchors'
p13
(tsss."
AnchorPoint: "top" 778 1438 basechar 0
LayerCount: 2
Fore
SplineSet
227 0 m 2
 1181 0 l 2
 1224 0 1248 24 1248 67 c 2
 1248 94 l 2
 1248 137 1224 160 1181 160 c 2
 425 160 l 2
 405 160 388 177 388 197 c 2
 388 1371 l 2
 388 1414 364 1438 321 1438 c 2
 227 1438 l 2
 184 1438 160 1414 160 1371 c 2
 160 67 l 2
 160 24 184 0 227 0 c 2
EndSplineSet
EndChar

StartChar: M
Encoding: 45 77 17
Width: 2427
VWidth: 0
Flags: HW
PickledData: "(dp1
S'com.typemytype.robofont.layerData'
p2
(dp3
S'b'
(dp4
S'name'
p5
S'M'
sS'lib'
p6
(dp7
sS'unicodes'
p8
(tsS'width'
p9
I2428
sS'contours'
p10
(tsS'components'
p11
(tsS'anchors'
p12
(tsss."
AnchorPoint: "top" 1202 1406 basechar 0
LayerCount: 2
Fore
SplineSet
208 0 m 2
 302 0 l 2
 345 0 370 24 373 67 c 1
 466 1061 l 1
 477 1065 l 1
 1050 67 l 2
 1074 26 1109 2 1150 0 c 1
 1256 0 l 1
 1297 2 1333 26 1357 67 c 2
 1954 1078 l 1
 1967 1077 l 1
 2053 67 l 2
 2056 24 2082 0 2125 0 c 2
 2219 0 l 2
 2262 0 2284 24 2281 67 c 2
 2173 1371 l 2
 2170 1412 2147 1435 2108 1438 c 1
 2000 1438 l 1
 1960 1435 1924 1412 1900 1371 c 2
 1216 213 l 1
 1195 213 l 1
 531 1371 l 2
 507 1412 472 1435 432 1438 c 1
 324 1438 l 1
 285 1435 263 1412 260 1371 c 2
 145 67 l 2
 142 24 165 0 208 0 c 2
EndSplineSet
EndChar

StartChar: N
Encoding: 46 78 18
Width: 2048
VWidth: 0
Flags: HW
PickledData: "(dp1
S'com.typemytype.robofont.layerData'
p2
(dp3
S'b'
(dp4
S'name'
p5
S'N'
sS'lib'
p6
(dp7
sS'unicodes'
p8
(tsS'width'
p9
I2048
sS'contours'
p10
(tsS'components'
p11
(tsS'anchors'
p12
(tsss."
AnchorPoint: "bot" 1131.5 0.400024 basechar 0
AnchorPoint: "top" 1051 1420 basechar 0
LayerCount: 2
Fore
SplineSet
1727 0 m 2
 1821 0 l 2
 1864 0 1888 24 1888 67 c 2
 1888 1371 l 2
 1888 1414 1864 1438 1821 1438 c 2
 1727 1438 l 2
 1684 1438 1660 1414 1660 1371 c 2
 1660 320 l 1
 1647 307 l 1
 371 1420 l 1
 360 1432 343 1438 321 1438 c 2
 227 1438 l 2
 184 1438 160 1414 160 1371 c 2
 160 67 l 2
 160 24 184 0 227 0 c 2
 321 0 l 2
 364 0 388 24 388 67 c 2
 388 1113 l 1
 402 1122 l 1
 1676 19 l 1
 1687 6 1705 0 1727 0 c 2
EndSplineSet
EndChar

StartChar: O
Encoding: 47 79 19
Width: 2188
VWidth: 0
Flags: HW
PickledData: "(dp1
S'com.typemytype.robofont.guides'
p2
(tsS'com.typemytype.robofont.layerData'
p3
(dp4
S'b'
(dp5
S'name'
p6
S'O'
sS'lib'
p7
(dp8
sS'unicodes'
p9
(tsS'width'
p10
I2187
sS'contours'
p11
(tsS'components'
p12
(tsS'anchors'
p13
(tsss."
AnchorPoint: "bot" 1131.5 0.400024 basechar 0
AnchorPoint: "top" 1106 1434 basechar 0
LayerCount: 2
Fore
SplineSet
1094 127 m 0
 707 127 363 234 363 724 c 0
 363 1142 694 1307 1094 1307 c 0
 1497 1307 1825 1142 1825 724 c 0
 1825 234 1484 127 1094 127 c 0
1094 -41 m 0
 1555 -41 2054 105 2054 724 c 0
 2054 1296 1555 1475 1094 1475 c 0
 636 1475 134 1296 134 724 c 0
 134 105 636 -41 1094 -41 c 0
EndSplineSet
EndChar

StartChar: OE
Encoding: 272 338 20
Width: 2640
VWidth: 0
Flags: W
PickledData: "(dp1
S'com.typemytype.robofont.guides'
p2
(tsS'com.typemytype.robofont.layerData'
p3
(dp4
S'b'
(dp5
S'name'
p6
S'OE'
p7
sS'lib'
p8
(dp9
sS'unicodes'
p10
(tsS'width'
p11
I2640
sS'contours'
p12
(tsS'components'
p13
(tsS'anchors'
p14
(tsss."
LayerCount: 2
Fore
SplineSet
1219 0 m 0
 2498 0 1146 0 2436 0 c 0
 2479 0 2503 34 2503 77 c 2
 2503 84 l 2
 2503 127 2479 160 2436 160 c 2
 1461 160 l 1
 1447 177 l 1
 1447 646 l 1
 1467 663 l 1
 2324 663 l 2
 2367 663 2391 697 2391 740 c 2
 2391 746 l 2
 2391 789 2367 823 2324 823 c 2
 1461 823 l 1
 1447 849 l 1
 1447 1253 l 2
 1447 1273 1454 1278 1474 1278 c 2
 2436 1278 l 2
 2479 1278 2503 1312 2503 1355 c 2
 2503 1361 l 2
 2503 1404 2478 1438 2436 1438 c 0
 2394 1438 1253 1438 1219 1438 c 0
 701 1438 131 1296 131 724 c 0
 131 105 728 0 1219 0 c 0
1155 168 m 0
 771 168 360 260 360 724 c 0
 360 1125 694 1270 1157 1270 c 0
 1178 1270 1177 1270 1198 1270 c 1
 1219 1254 l 1
 1219 186 l 1
 1207 168 l 1
 1186 168 1176 168 1155 168 c 0
EndSplineSet
EndChar

StartChar: Oslash
Encoding: 150 216 21
Width: 2188
VWidth: 0
Flags: W
PickledData: "(dp1
S'com.typemytype.robofont.layerData'
p2
(dp3
S'b'
(dp4
S'name'
p5
S'Oslash'
p6
sS'lib'
p7
(dp8
sS'unicodes'
p9
(tsS'width'
p10
I2187
sS'contours'
p11
(tsS'components'
p12
(tsS'anchors'
p13
(tsss."
LayerCount: 2
Fore
SplineSet
677 -200 m 2
 791 -202 l 2
 809 -202 828 -189 836 -169 c 2
 893 -31 l 1
 960 -38 1027 -41 1094 -41 c 0
 1555 -41 2054 105 2054 724 c 0
 2054 1128 1805 1336 1496 1423 c 1
 1570 1602 l 2
 1576 1617 1567 1635 1553 1635 c 2
 1439 1635 l 2
 1420 1635 1403 1622 1395 1602 c 2
 1335 1458 l 1
 1255 1470 1174 1475 1094 1475 c 0
 636 1475 134 1296 134 724 c 0
 134 270 404 71 728 -4 c 1
 660 -167 l 2
 653 -182 662 -200 677 -200 c 2
1268 1296 m 1
 794 156 l 1
 546 213 363 367 363 724 c 0
 363 1142 694 1307 1094 1307 c 0
 1154 1307 1212 1303 1268 1296 c 1
1094 127 m 0
 1049 127 1004 128 961 132 c 1
 1428 1260 l 1
 1664 1186 1825 1017 1825 724 c 0
 1825 234 1484 127 1094 127 c 0
EndSplineSet
EndChar

StartChar: P
Encoding: 48 80 22
Width: 2021
VWidth: 0
Flags: HW
PickledData: "(dp1
S'com.typemytype.robofont.layerData'
p2
(dp3
S'b'
(dp4
S'name'
p5
S'P'
sS'lib'
p6
(dp7
sS'unicodes'
p8
(tsS'width'
p9
I2021
sS'contours'
p10
(tsS'components'
p11
(tsS'anchors'
p12
(tsss."
AnchorPoint: "top" 956 1420 basechar 0
LayerCount: 2
Fore
SplineSet
227 0 m 2
 321 0 l 2
 364 0 388 24 388 67 c 2
 388 422 l 1
 407 442 l 1
 976 442 l 2
 1507 442 1888 444 1888 964 c 0
 1888 1438 1378 1438 917 1438 c 2
 227 1438 l 2
 184 1438 160 1414 160 1371 c 2
 160 67 l 2
 160 24 184 0 227 0 c 2
967 618 m 2
 404 618 l 1
 388 639 l 1
 388 1262 l 1
 405 1278 l 1
 917 1278 l 2
 1365 1278 1659 1261 1659 964 c 0
 1659 618 1464 618 967 618 c 2
EndSplineSet
EndChar

StartChar: Q
Encoding: 49 81 23
Width: 2188
VWidth: 0
Flags: W
PickledData: "(dp1
S'com.typemytype.robofont.layerData'
p2
(dp3
S'b'
(dp4
S'name'
p5
S'Q'
sS'lib'
p6
(dp7
sS'unicodes'
p8
(tsS'width'
p9
I2187
sS'contours'
p10
(tsS'components'
p11
(tsS'anchors'
p12
(tsss."
LayerCount: 2
Fore
SplineSet
1642 -513 m 2
 1686 -491 l 1
 1723 -471 1746 -437 1723 -399 c 1
 1433 124 l 1
 1234 67 l 1
 1545 -495 l 1
 1567 -532 1603 -533 1642 -513 c 2
1094 127 m 0
 707 127 363 234 363 724 c 0
 363 1142 694 1307 1094 1307 c 0
 1497 1307 1825 1142 1825 724 c 0
 1825 234 1484 127 1094 127 c 0
1094 -41 m 0
 1555 -41 2054 105 2054 724 c 0
 2054 1296 1555 1475 1094 1475 c 0
 636 1475 134 1296 134 724 c 0
 134 105 636 -41 1094 -41 c 0
EndSplineSet
EndChar

StartChar: R
Encoding: 50 82 24
Width: 2137
VWidth: 0
Flags: HW
PickledData: "(dp1
S'com.typemytype.robofont.layerData'
p2
(dp3
S'b'
(dp4
S'name'
p5
S'R'
sS'lib'
p6
(dp7
sS'unicodes'
p8
(tsS'width'
p9
I2137
sS'contours'
p10
(tsS'components'
p11
(tsS'anchors'
p12
(tsss."
AnchorPoint: "top" 1024 1434 basechar 0
LayerCount: 2
Fore
SplineSet
227 0 m 2
 321 0 l 2
 364 0 388 24 388 67 c 2
 388 522 l 1
 404 538 l 1
 1207 538 l 2
 1299 538 1526 536 1621 333 c 2
 1745 67 l 1
 1767 28 1775 0 1818 0 c 2
 1923 0 l 2
 1966 0 2006 27 1984 67 c 1
 1860 347 l 2
 1784 517 1665 559 1607 578 c 0
 1603 580 1602 582 1602 583 c 0
 1602 585 1605 585 1608 586 c 0
 1822 632 1952 725 1952 1014 c 0
 1952 1439 1545 1438 1019 1438 c 2
 227 1438 l 2
 184 1438 160 1414 160 1371 c 2
 160 67 l 2
 160 24 184 0 227 0 c 2
1069 708 m 2
 404 708 l 1
 388 721 l 1
 388 1264 l 1
 405 1278 l 1
 1019 1278 l 2
 1467 1278 1728 1251 1728 1003 c 0
 1728 697 1566 708 1069 708 c 2
EndSplineSet
EndChar

StartChar: S
Encoding: 51 83 25
Width: 1976
VWidth: 0
Flags: HW
PickledData: "(dp1
S'com.typemytype.robofont.layerData'
p2
(dp3
S'b'
(dp4
S'name'
p5
S'S'
sS'lib'
p6
(dp7
sS'unicodes'
p8
(tsS'width'
p9
I1976
sS'contours'
p10
((dp11
S'points'
p12
((dp13
S'segmentType'
p14
S'curve'
p15
sS'x'
F1024
sS'smooth'
p16
I01
sS'y'
F-41
s(dp17
S'y'
F-41
sS'x'
F1485
sg16
I00
s(dp18
S'y'
F105
sS'x'
F1984
sg16
I00
s(dp19
g14
S'curve'
p20
sS'x'
F1984
sg16
I01
sS'y'
F724
s(dp21
S'y'
F1296
sS'x'
F1984
sg16
I00
s(dp22
S'y'
F1475
sS'x'
F1485
sg16
I00
s(dp23
g14
S'curve'
p24
sS'x'
F1024
sg16
I01
sS'y'
F1475
s(dp25
S'y'
F1475
sS'x'
F566
sg16
I00
s(dp26
S'y'
F1296
sS'x'
F64
sg16
I00
s(dp27
g14
S'curve'
p28
sS'x'
F64
sg16
I01
sS'y'
F724
s(dp29
S'y'
F105
sS'x'
F64
sg16
I00
s(dp30
S'y'
F-41
sS'x'
F566
sg16
I00
stp31
s(dp32
g12
((dp33
g14
S'curve'
p34
sS'x'
F1024
sg16
I01
sS'y'
F127
s(dp35
S'y'
F127
sS'x'
F637
sg16
I00
s(dp36
S'y'
F234
sS'x'
F293
sg16
I00
s(dp37
g14
S'curve'
p38
sS'x'
F293
sg16
I01
sS'y'
F724
s(dp39
S'y'
F1142
sS'x'
F293
sg16
I00
s(dp40
S'y'
F1307
sS'x'
F624
sg16
I00
s(dp41
g14
S'curve'
p42
sS'x'
F1024
sg16
I01
sS'y'
F1307
s(dp43
S'y'
F1307
sS'x'
F1427
sg16
I00
s(dp44
S'y'
F1142
sS'x'
F1755
sg16
I00
s(dp45
g14
S'curve'
p46
sS'x'
F1755
sg16
I01
sS'y'
F724
s(dp47
S'y'
F234
sS'x'
F1755
sg16
I00
s(dp48
S'y'
F127
sS'x'
F1414
sg16
I00
stp49
stp50
sS'components'
p51
(tsS'anchors'
p52
(tsss."
AnchorPoint: "bot" 993.5 3.40002 basechar 0
AnchorPoint: "top" 969 1426 basechar 0
LayerCount: 2
Fore
SplineSet
970 -41 m 0
 1565 -41 1841 59 1841 437 c 0
 1841 719 1632 838 1047 838 c 0
 412 838 368 915 368 1066 c 0
 368 1199 486 1307 990 1307 c 0
 1452 1307 1583 1186 1647 1186 c 0
 1712 1186 1721 1245 1721 1245 c 1
 1726 1254 1728 1265 1728 1275 c 0
 1728 1303 1712 1330 1688 1341 c 0
 1487 1429 1313 1475 992 1475 c 0
 509 1475 145 1409 145 1043 c 0
 145 717 423 652 1006 652 c 0
 1565 652 1623 566 1623 409 c 0
 1623 231 1531 127 993 127 c 0
 448 127 295 262 226 262 c 0
 195 262 173 249 158 217 c 1
 158 217 145 173 145 164 c 0
 145 135 161 107 186 97 c 0
 465 -9 662 -41 970 -41 c 0
EndSplineSet
EndChar

StartChar: T
Encoding: 52 84 26
Width: 1696
VWidth: 0
Flags: HW
PickledData: "(dp1
S'com.typemytype.robofont.layerData'
p2
(dp3
S'b'
(dp4
S'name'
p5
S'T'
sS'lib'
p6
(dp7
sS'unicodes'
p8
(tsS'width'
p9
I1694
sS'contours'
p10
(tsS'components'
p11
(tsS'anchors'
p12
(tsss."
AnchorPoint: "top" 850 1438 basechar 0
LayerCount: 2
Fore
SplineSet
800 0 m 2
 894 0 l 2
 937 0 961 24 961 67 c 2
 961 1253 l 2
 961 1273 968 1278 988 1278 c 2
 1547 1278 l 2
 1590 1278 1614 1312 1614 1355 c 2
 1614 1361 l 2
 1614 1404 1590 1438 1547 1438 c 2
 145 1438 l 2
 102 1438 78 1404 78 1361 c 2
 78 1355 l 2
 78 1312 102 1278 145 1278 c 2
 706 1278 l 2
 726 1278 733 1273 733 1253 c 2
 733 67 l 2
 733 24 757 0 800 0 c 2
EndSplineSet
EndChar

StartChar: Thorn
Encoding: 156 222 27
Width: 1840
VWidth: 0
Flags: W
PickledData: "(dp1
S'com.typemytype.robofont.layerData'
p2
(dp3
S'b'
(dp4
S'name'
p5
S'Thorn'
p6
sS'lib'
p7
(dp8
sS'unicodes'
p9
(tsS'width'
p10
I1840
sS'contours'
p11
(tsS'components'
p12
(tsS'anchors'
p13
(tsss."
LayerCount: 2
Fore
SplineSet
227 0 m 2
 321 0 l 2
 364 0 388 24 388 67 c 2
 388 287 l 1
 407 307 l 1
 712 307 l 2
 1243 307 1714 311 1714 789 c 0
 1714 1218 1114 1223 653 1223 c 2
 388 1223 l 1
 388 1371 l 2
 388 1414 364 1438 321 1438 c 2
 227 1438 l 2
 184 1438 160 1414 160 1371 c 2
 160 67 l 2
 160 24 184 0 227 0 c 2
703 483 m 2
 404 483 l 1
 388 504 l 1
 388 1047 l 1
 405 1063 l 1
 653 1063 l 2
 1101 1063 1490 1061 1490 789 c 0
 1490 487 1200 483 703 483 c 2
EndSplineSet
EndChar

StartChar: U
Encoding: 53 85 28
Width: 2224
VWidth: 0
Flags: HW
PickledData: "(dp1
S'com.typemytype.robofont.layerData'
p2
(dp3
S'b'
(dp4
S'name'
p5
S'U'
sS'lib'
p6
(dp7
sS'unicodes'
p8
(tsS'width'
p9
I2224
sS'contours'
p10
(tsS'components'
p11
(tsS'anchors'
p12
(tsss."
AnchorPoint: "bot" 1131.5 0.400024 basechar 0
AnchorPoint: "top" 1092 1420 basechar 0
LayerCount: 2
Fore
SplineSet
1113 -41 m 0
 1574 -41 2073 32 2073 651 c 2
 2073 1371 l 2
 2073 1414 2049 1438 2006 1438 c 2
 1912 1438 l 2
 1869 1438 1845 1414 1845 1371 c 2
 1845 651 l 2
 1845 161 1503 127 1113 127 c 0
 726 127 382 161 382 651 c 2
 382 1371 l 2
 382 1414 378 1438 315 1438 c 2
 221 1438 l 2
 198 1438 153 1414 153 1371 c 2
 153 651 l 2
 153 32 655 -41 1113 -41 c 0
EndSplineSet
EndChar

StartChar: V
Encoding: 54 86 29
Width: 1948
VWidth: 0
Flags: W
PickledData: "(dp1
S'com.typemytype.robofont.layerData'
p2
(dp3
S'b'
(dp4
S'name'
p5
S'V'
sS'lib'
p6
(dp7
sS'unicodes'
p8
(tsS'width'
p9
I1947
sS'contours'
p10
(tsS'components'
p11
(tsS'anchors'
p12
(tsss."
LayerCount: 2
Fore
SplineSet
948 0 m 1
 1056 0 l 1
 1096 3 1129 26 1150 67 c 2
 1841 1371 l 2
 1863 1414 1852 1438 1809 1438 c 2
 1695 1438 l 2
 1652 1438 1614 1414 1593 1371 c 2
 1003 192 l 1
 361 1371 l 2
 337 1414 298 1438 255 1438 c 2
 131 1438 l 2
 88 1438 78 1414 103 1371 c 2
 849 67 l 2
 873 26 908 3 948 0 c 1
EndSplineSet
EndChar

StartChar: W
Encoding: 55 87 30
Width: 3292
VWidth: 0
Flags: HW
PickledData: "(dp1
S'com.typemytype.robofont.layerData'
p2
(dp3
S'b'
(dp4
S'name'
p5
S'W'
sS'lib'
p6
(dp7
sS'unicodes'
p8
(tsS'width'
p9
I3292
sS'contours'
p10
(tsS'components'
p11
(tsS'anchors'
p12
(tsss."
AnchorPoint: "top" 1652 1393 basechar 0
LayerCount: 2
Fore
SplineSet
871 0 m 1
 989 0 l 1
 1029 3 1063 26 1083 67 c 2
 1648 1251 l 1
 2261 67 l 2
 2283 25 2320 3 2360 0 c 1
 2478 0 l 1
 2518 3 2551 26 2572 67 c 1
 3183 1371 l 1
 3205 1414 3194 1438 3151 1438 c 2
 3037 1438 l 2
 2994 1438 2956 1414 2935 1371 c 1
 2425 192 l 1
 1813 1371 l 1
 1789 1414 1750 1438 1707 1438 c 2
 1583 1438 l 2
 1545 1438 1507 1414 1486 1371 c 2
 926 192 l 1
 364 1371 l 1
 340 1414 301 1438 258 1438 c 2
 134 1438 l 2
 91 1438 81 1414 106 1371 c 1
 772 67 l 1
 796 26 831 3 871 0 c 1
EndSplineSet
EndChar

StartChar: X
Encoding: 56 88 31
Width: 1974
VWidth: 0
Flags: W
PickledData: "(dp1
S'com.typemytype.robofont.layerData'
p2
(dp3
S'b'
(dp4
S'name'
p5
S'X'
sS'lib'
p6
(dp7
sS'unicodes'
p8
(tsS'width'
p9
I1977
sS'contours'
p10
(tsS'components'
p11
(tsS'anchors'
p12
(tsss."
LayerCount: 2
Fore
SplineSet
145 0 m 2
 279 0 l 2
 322 0 367 24 406 67 c 1
 998 617 l 1
 1548 67 l 2
 1591 24 1638 0 1681 0 c 2
 1825 0 l 2
 1847 0 1858 6 1858 18 c 0
 1858 29 1847 46 1826 67 c 2
 1142 750 l 1
 1810 1371 l 1
 1828 1391 1837 1407 1837 1418 c 0
 1837 1431 1826 1438 1803 1438 c 2
 1659 1438 l 2
 1616 1438 1571 1414 1532 1371 c 1
 1010 882 l 1
 520 1371 l 2
 477 1414 430 1438 387 1438 c 2
 243 1438 l 2
 221 1438 210 1432 210 1420 c 0
 210 1409 221 1392 242 1371 c 2
 866 748 l 1
 138 67 l 1
 120 47 111 31 111 20 c 0
 111 7 122 0 145 0 c 2
EndSplineSet
EndChar

StartChar: Y
Encoding: 57 89 32
Width: 1676
VWidth: 0
Flags: HW
PickledData: "(dp1
S'com.typemytype.robofont.layerData'
p2
(dp3
S'b'
(dp4
S'name'
p5
S'Y'
sS'lib'
p6
(dp7
sS'unicodes'
p8
(tsS'width'
p9
I1676
sS'contours'
p10
(tsS'components'
p11
(tsS'anchors'
p12
(tsss."
AnchorPoint: "top" 852 1438 basechar 0
LayerCount: 2
Fore
SplineSet
790 0 m 2
 884 0 l 2
 927 0 951 24 951 67 c 2
 951 717 l 1
 1572 1371 l 1
 1592 1389 1599 1407 1599 1418 c 0
 1599 1431 1588 1438 1565 1438 c 2
 1421 1438 l 2
 1378 1438 1333 1414 1294 1371 c 2
 842 882 l 1
 382 1371 l 1
 339 1414 292 1438 249 1438 c 2
 105 1438 l 2
 83 1438 72 1432 72 1420 c 0
 72 1409 82 1391 104 1371 c 1
 723 713 l 1
 723 67 l 2
 723 24 747 0 790 0 c 2
EndSplineSet
EndChar

StartChar: Z
Encoding: 58 90 33
Width: 1622
VWidth: 0
Flags: HW
PickledData: "(dp1
S'com.typemytype.robofont.layerData'
p2
(dp3
S'b'
(dp4
S'name'
p5
S'Z'
sS'lib'
p6
(dp7
sS'unicodes'
p8
(tsS'width'
p9
I1624
sS'contours'
p10
(tsS'components'
p11
(tsS'anchors'
p12
(tsss."
AnchorPoint: "top" 850 1438 basechar 0
LayerCount: 2
Fore
SplineSet
196 0 m 2
 1427 0 l 2
 1470 0 1494 34 1494 77 c 2
 1494 83 l 2
 1494 126 1470 160 1427 160 c 2
 468 160 l 2
 453 160 448 166 448 174 c 0
 448 182 451 184 460 194 c 2
 1441 1226 l 2
 1455 1241 1474 1285 1474 1328 c 2
 1474 1361 l 2
 1474 1404 1450 1438 1407 1438 c 2
 206 1438 l 2
 163 1438 139 1404 139 1361 c 2
 139 1355 l 2
 139 1312 163 1278 206 1278 c 2
 1150 1278 l 2
 1178 1278 1181 1269 1181 1258 c 0
 1181 1248 1176 1240 1166 1229 c 2
 150 169 l 2
 136 155 129 134 129 110 c 2
 129 77 l 2
 129 34 153 0 196 0 c 2
EndSplineSet
EndChar

StartChar: a
Encoding: 65 97 34
Width: 1688
VWidth: 0
Flags: HW
PickledData: "(dp1
S'com.typemytype.robofont.layerData'
p2
(dp3
S'b'
(dp4
S'name'
p5
S'a'
sS'lib'
p6
(dp7
sS'unicodes'
p8
(tsS'width'
p9
I1687
sS'contours'
p10
((dp11
S'points'
p12
((dp13
S'segmentType'
p14
S'curve'
p15
sS'x'
F696.03038024173384
sS'smooth'
p16
I01
sS'y'
F-41
s(dp17
S'y'
F-41
sS'x'
F1094.0303802417338
sg16
I00
s(dp18
S'y'
F62
sS'x'
F1253.0303802417338
sg16
I00
s(dp19
g14
S'curve'
p20
sS'x'
F1391.0303802417338
sg16
I00
sS'y'
F238
s(dp21
S'y'
F245
sS'x'
F1397.0303802417338
sg16
I00
s(dp22
S'y'
F252
sS'x'
F1400.0303802417338
sg16
I00
s(dp23
g14
S'curve'
p24
sS'x'
F1405.0303802417338
sg16
I01
sS'y'
F252
s(dp25
S'y'
F252
sS'x'
F1411.0303802417338
sg16
I00
s(dp26
S'y'
F245
sS'x'
F1417.0303802417338
sg16
I00
s(dp27
g14
S'curve'
p28
sS'x'
F1421.0303802417338
sg16
I00
sS'y'
F224
s(dp29
S'y'
F206
sS'x'
F1426.0303802417338
sg16
I00
s(dp30
S'y'
F144
sS'x'
F1446.0303802417338
sg16
I00
s(dp31
g14
S'curve'
p32
sS'x'
F1458.0303802417338
sg16
I01
sS'y'
F100
s(dp33
S'y'
F60
sS'x'
F1469.0303802417338
sg16
I00
s(dp34
S'y'
F0
sS'x'
F1485.0303802417338
sg16
I00
s(dp35
g14
S'curve'
p36
sS'x'
F1525.0303802417338
sg16
I01
sS'y'
F0
s(dp37
g14
S'line'
p38
sS'x'
F1543.0303802417338
sg16
I01
sS'y'
F0
s(dp39
S'y'
F0
sS'x'
F1578.0303802417338
sg16
I00
s(dp40
S'y'
F28
sS'x'
F1594.0303802417338
sg16
I00
s(dp41
g14
S'curve'
p42
sS'x'
F1594.0303802417338
sg16
I01
sS'y'
F63
s(dp43
g14
S'line'
p44
sS'x'
F1594.0303802417338
sg16
I01
sS'y'
F631
s(dp45
S'y'
F929
sS'x'
F1594.0303802417338
sg16
I00
s(dp46
S'y'
F1052
sS'x'
F1447.0303802417338
sg16
I00
s(dp47
g14
S'curve'
p48
sS'x'
F860.03038024173384
sg16
I01
sS'y'
F1052
s(dp49
S'y'
F1052
sS'x'
F453.03038024173384
sg16
I00
s(dp50
S'y'
F992
sS'x'
F207.03038024173384
sg16
I00
s(dp51
g14
S'curve'
p52
sS'x'
F154.03038024173384
sg16
I01
sS'y'
F846
s(dp53
S'y'
F835
sS'x'
F150.03038024173384
sg16
I00
s(dp54
S'y'
F820
sS'x'
F143.03038024173384
sg16
I00
s(dp55
g14
S'curve'
p56
sS'x'
F143.03038024173384
sg16
I01
sS'y'
F802
s(dp57
S'y'
F785
sS'x'
F143.03038024173384
sg16
I00
s(dp58
S'y'
F767
sS'x'
F158.03038024173384
sg16
I00
s(dp59
g14
S'curve'
p60
sS'x'
F175.03038024173384
sg16
I01
sS'y'
F765
s(dp61
g14
S'line'
p62
sS'x'
F299.03038024173384
sg16
I01
sS'y'
F748
s(dp63
S'y'
F747
sS'x'
F308.03038024173384
sg16
I00
s(dp64
S'y'
F746
sS'x'
F311.03038024173384
sg16
I00
s(dp65
g14
S'curve'
p66
sS'x'
F317.03038024173384
sg16
I01
sS'y'
F746
s(dp67
S'y'
F746
sS'x'
F338.03038024173384
sg16
I00
s(dp68
S'y'
F778
sS'x'
F372.03038024173384
sg16
I00
s(dp69
g14
S'curve'
p70
sS'x'
F393.03038024173384
sg16
I01
sS'y'
F800
s(dp71
S'y'
F893
sS'x'
F484.03038024173384
sg16
I00
s(dp72
S'y'
F894
sS'x'
F778.03038024173384
sg16
I00
s(dp73
g14
S'curve'
p74
sS'x'
F862.03038024173384
sg16
I01
sS'y'
F894
s(dp75
S'y'
F894
sS'x'
F1355.0303802417338
sg16
I00
s(dp76
S'y'
F823
sS'x'
F1365.0303802417338
sg16
I00
s(dp77
g14
S'curve'
p78
sS'x'
F1365.0303802417338
sg16
I01
sS'y'
F668
s(dp79
g14
S'line'
p80
sS'x'
F1365.0303802417338
sg16
I01
sS'y'
F648
s(dp81
S'y'
F603
sS'x'
F1365.0303802417338
sg16
I00
s(dp82
S'y'
F646
sS'x'
F116.03038024173384
sg16
I00
s(dp83
g14
S'curve'
p84
sS'x'
F116.03038024173384
sg16
I01
sS'y'
F238
s(dp85
S'y'
F62
sS'x'
F116.03038024173384
sg16
I00
s(dp86
S'y'
F-41
sS'x'
F304.03038024173384
sg16
I00
stp87
s(dp88
g12
((dp89
g14
S'curve'
p90
sS'x'
F709.03038024173384
sg16
I01
sS'y'
F103
s(dp91
S'y'
F103
sS'x'
F439.03038024173384
sg16
I00
s(dp92
S'y'
F156
sS'x'
F353.03038024173384
sg16
I00
s(dp93
g14
S'curve'
p94
sS'x'
F353.03038024173384
sg16
I01
sS'y'
F251
s(dp95
S'y'
F344
sS'x'
F353.03038024173384
sg16
I00
s(dp96
S'y'
F456
sS'x'
F578.03038024173384
sg16
I00
s(dp97
g14
S'curve'
p98
sS'x'
F1170.0303802417338
sg16
I00
sS'y'
F496
s(dp99
S'y'
F497
sS'x'
F1175.0303802417338
sg16
I00
s(dp100
S'y'
F508
sS'x'
F1354.0303802417338
sg16
I00
s(dp101
g14
S'curve'
p102
sS'x'
F1357.0303802417338
sg16
I01
sS'y'
F508
s(dp103
S'y'
F508
sS'x'
F1368.0303802417338
sg16
I00
s(dp104
S'y'
F504
sS'x'
F1368.0303802417338
sg16
I00
s(dp105
g14
S'curve'
p106
sS'x'
F1368.0303802417338
sg16
I01
sS'y'
F490
s(dp107
S'y'
F242
sS'x'
F1368.0303802417338
sg16
I00
s(dp108
S'y'
F103
sS'x'
F1017.0303802417338
sg16
I00
stp109
stp110
sS'components'
p111
(tsS'anchors'
p112
(tsss."
AnchorPoint: "bot" 1477.5 -1.09998 basechar 0
AnchorPoint: "top" 880 1006.9 basechar 0
LayerCount: 2
Fore
SplineSet
719 -41 m 0
 1082 -41 1284 83 1357 240 c 0
 1360 247 1365 272 1370 272 c 0
 1376 272 1377 255 1381 234 c 1
 1386 216 1391 168 1398 120 c 0
 1410 42 1425 0 1465 0 c 2
 1493 0 l 2
 1528 0 1544 31 1544 93 c 2
 1544 571 l 2
 1544 900 1389 1052 880 1052 c 0
 473 1052 281 987 189 846 c 0
 182 835 178 820 178 802 c 0
 178 785 193 767 210 765 c 2
 306 748 l 2
 315 747 318 746 324 746 c 0
 345 746 379 778 400 800 c 0
 491 893 798 900 882 900 c 0
 1237 900 1315 811 1315 656 c 2
 1315 641 l 2
 1315 606 132 672 139 238 c 0
 142 62 327 -41 719 -41 c 0
732 103 m 0
 462 103 378 156 376 251 c 0
 373 383 528 450 1120 490 c 0
 1125 491 1304 501 1307 501 c 0
 1318 501 1318 497 1318 483 c 0
 1318 208 1040 103 732 103 c 0
EndSplineSet
EndChar

StartChar: acute
Encoding: 114 180 36
Width: 1745
VWidth: 0
Flags: HW
PickledData: "(dp1
S'com.typemytype.robofont.layerData'
p2
(dp3
S'b'
(dp4
S'name'
p5
S'acute'
p6
sS'lib'
p7
(dp8
sS'unicodes'
p9
(tsS'width'
p10
I1745
sS'contours'
p11
(tsS'components'
p12
(tsS'anchors'
p13
(tsss."
AnchorPoint: "top" 880 1006.9 mark 0
LayerCount: 2
Fore
SplineSet
861.450195312 1166 m 2
 890.450195312 1166 l 2
 902.450195312 1166 912.450195312 1167 938.450195312 1205 c 2
 1161.45019531 1533 l 2
 1168.45019531 1545 1173.45019531 1559 1173.45019531 1570 c 0
 1173.45019531 1586 1165.45019531 1598 1145.45019531 1598 c 2
 979.450195312 1598 l 2
 935.450195312 1598 922.450195312 1586 914.450195312 1543 c 2
 851.450195312 1233 l 2
 848.450195312 1219 832.450195312 1166 861.450195312 1166 c 2
EndSplineSet
EndChar

StartChar: ae
Encoding: 164 230 37
Width: 2789
VWidth: 0
Flags: W
PickledData: "(dp1
S'com.typemytype.robofont.layerData'
p2
(dp3
S'b'
(dp4
S'name'
p5
S'ae'
p6
sS'lib'
p7
(dp8
sS'unicodes'
p9
(tsS'width'
p10
I2788
sS'contours'
p11
(tsS'components'
p12
(tsS'anchors'
p13
(tsss."
LayerCount: 2
Fore
SplineSet
717 -41 m 0
 1050 -41 1278 70 1418 244 c 0
 1421 248 1424 249 1426 249 c 0
 1429 249 1431 246 1433 243 c 0
 1560 31 1773 -42 2044 -42 c 0
 2185 -42 2433 2 2559 63 c 0
 2592 79 2603 97 2603 116 c 0
 2603 123 2582 195 2579 202 c 0
 2573 221 2545 230 2503 212 c 1
 2436 181 2225 109 2055 109 c 0
 1638 109 1548 331 1547 457 c 0
 1547 465 1553 450 1564 450 c 2
 2524 450 l 2
 2633 450 2655 521 2656 556 c 1
 2656 607 l 1
 2608 817 2450 1052 2021 1052 c 0
 1825 1052 1594 981 1457 833 c 1
 1393 970 1225 1052 881 1052 c 0
 474 1052 228 992 175 846 c 0
 171 835 164 820 164 802 c 0
 164 785 179 767 196 765 c 2
 320 748 l 2
 329 747 332 746 338 746 c 0
 359 746 393 778 414 800 c 0
 505 893 799 900 883 900 c 0
 1282 900 1320 770 1320 702 c 0
 1320 687 1318 674 1318 641 c 0
 1318 606 137 669 137 238 c 1
 140 62 325 -41 717 -41 c 0
730 103 m 0
 460 103 376 156 374 251 c 1
 374 382 598 450 1191 490 c 0
 1196 491 1307 501 1310 501 c 0
 1321 501 1321 497 1321 483 c 0
 1321 235 1038 103 730 103 c 0
2463 592 m 1
 2464 590 l 1
 1559 590 l 2
 1552 590 1551 593 1551 597 c 0
 1586 811 1808 900 2020 900 c 0
 2342 900 2414 733 2463 592 c 1
EndSplineSet
EndChar

StartChar: ampersand
Encoding: 6 38 39
Width: 2434
VWidth: 0
Flags: W
PickledData: "(dp1
S'com.typemytype.robofont.layerData'
p2
(dp3
S'b'
(dp4
S'name'
p5
S'ampersand'
p6
sS'lib'
p7
(dp8
sS'unicodes'
p9
(tsS'width'
p10
I2434
sS'contours'
p11
((dp12
S'points'
p13
((dp14
S'segmentType'
p15
S'curve'
p16
sS'x'
F2618
sS'smooth'
p17
I01
sS'y'
F-41
s(dp18
S'y'
F-41
sS'x'
F2750
sg17
I00
s(dp19
S'y'
F-25
sS'x'
F2877
sg17
I00
s(dp20
g15
S'curve'
p21
sS'x'
F2979
sg17
I01
sS'y'
F-3
s(dp22
S'y'
F6
sS'x'
F3020
sg17
I00
s(dp23
S'y'
F48
sS'x'
F3053
sg17
I00
s(dp24
g15
S'curve'
p25
sS'x'
F3053
sg17
I01
sS'y'
F90
s(dp26
g15
S'line'
p27
sS'x'
F3053
sg17
I01
sS'y'
F253
s(dp28
S'y'
F294
sS'x'
F3053
sg17
I00
s(dp29
S'y'
F321
sS'x'
F3018
sg17
I00
s(dp30
g15
S'curve'
p31
sS'x'
F2979
sg17
I01
sS'y'
F311
s(dp32
S'y'
F294
sS'x'
F2909
sg17
I00
s(dp33
S'y'
F279
sS'x'
F2820
sg17
I00
s(dp34
g15
S'curve'
p35
sS'x'
F2735
sg17
I01
sS'y'
F279
s(dp36
S'y'
F279
sS'x'
F2602
sg17
I00
s(dp37
S'y'
F317
sS'x'
F2483
sg17
I00
s(dp38
g15
S'curve'
p39
sS'x'
F2483
sg17
I01
sS'y'
F455
s(dp40
g15
S'line'
p41
sS'x'
F2483
sg17
I01
sS'y'
F566
s(dp42
S'y'
F586
sS'x'
F2483
sg17
I00
s(dp43
S'y'
F603
sS'x'
F2500
sg17
I00
s(dp44
g15
S'curve'
p45
sS'x'
F2520
sg17
I01
sS'y'
F603
s(dp46
g15
S'line'
p47
sS'x'
F2890
sg17
I01
sS'y'
F603
s(dp48
S'y'
F603
sS'x'
F2933
sg17
I00
s(dp49
S'y'
F637
sS'x'
F2967
sg17
I00
s(dp50
g15
S'curve'
p51
sS'x'
F2967
sg17
I01
sS'y'
F680
s(dp52
g15
S'line'
p53
sS'x'
F2967
sg17
I01
sS'y'
F809
s(dp54
S'y'
F852
sS'x'
F2967
sg17
I00
s(dp55
S'y'
F886
sS'x'
F2933
sg17
I00
s(dp56
g15
S'curve'
p57
sS'x'
F2890
sg17
I01
sS'y'
F886
s(dp58
g15
S'line'
p59
sS'x'
F2520
sg17
I01
sS'y'
F886
s(dp60
S'y'
F886
sS'x'
F2500
sg17
I00
s(dp61
S'y'
F903
sS'x'
F2483
sg17
I00
s(dp62
g15
S'curve'
p63
sS'x'
F2483
sg17
I01
sS'y'
F923
s(dp64
g15
S'line'
p65
sS'x'
F2483
sg17
I01
sS'y'
F1398
s(dp66
S'y'
F1441
sS'x'
F2483
sg17
I00
s(dp67
S'y'
F1475
sS'x'
F2449
sg17
I00
s(dp68
g15
S'curve'
p69
sS'x'
F2406
sg17
I01
sS'y'
F1475
s(dp70
g15
S'line'
p71
sS'x'
F1955
sg17
I01
sS'y'
F1475
s(dp72
S'y'
F1475
sS'x'
F1912
sg17
I00
s(dp73
S'y'
F1441
sS'x'
F1878
sg17
I00
s(dp74
g15
S'curve'
p75
sS'x'
F1878
sg17
I00
sS'y'
F1398
s(dp76
g15
S'line'
p77
sS'x'
F1848
sg17
I00
sS'y'
F923
s(dp78
S'y'
F903
sS'x'
F1848
sg17
I00
s(dp79
S'y'
F886
sS'x'
F1831
sg17
I00
s(dp80
g15
S'curve'
p81
sS'x'
F1811
sg17
I01
sS'y'
F886
s(dp82
g15
S'line'
p83
sS'x'
F949
sg17
I01
sS'y'
F886
s(dp84
S'y'
F886
sS'x'
F929
sg17
I00
s(dp85
S'y'
F893
sS'x'
F916
sg17
I00
s(dp86
g15
S'curve'
p87
sS'x'
F916
sg17
I01
sS'y'
F913
s(dp88
g15
S'line'
p89
sS'x'
F916
sg17
I01
sS'y'
F1063
s(dp90
S'y'
F1083
sS'x'
F916
sg17
I00
s(dp91
S'y'
F1090
sS'x'
F929
sg17
I00
s(dp92
g15
S'curve'
p93
sS'x'
F949
sg17
I01
sS'y'
F1090
s(dp94
g15
S'line'
p95
sS'x'
F1619
sg17
I01
sS'y'
F1090
s(dp96
S'y'
F1090
sS'x'
F1662
sg17
I00
s(dp97
S'y'
F1124
sS'x'
F1696
sg17
I00
s(dp98
g15
S'curve'
p99
sS'x'
F1696
sg17
I01
sS'y'
F1167
s(dp100
g15
S'line'
p101
sS'x'
F1696
sg17
I01
sS'y'
F1361
s(dp102
S'y'
F1404
sS'x'
F1696
sg17
I00
s(dp103
S'y'
F1438
sS'x'
F1662
sg17
I00
s(dp104
g15
S'curve'
p105
sS'x'
F1619
sg17
I01
sS'y'
F1438
s(dp106
g15
S'line'
p107
sS'x'
F236
sg17
I01
sS'y'
F1438
s(dp108
S'y'
F1438
sS'x'
F193
sg17
I00
s(dp109
S'y'
F1404
sS'x'
F159
sg17
I00
s(dp110
g15
S'curve'
p111
sS'x'
F159
sg17
I01
sS'y'
F1361
s(dp112
g15
S'line'
p113
sS'x'
F159
sg17
I01
sS'y'
F77
s(dp114
S'y'
F34
sS'x'
F159
sg17
I00
s(dp115
S'y'
F0
sS'x'
F193
sg17
I00
s(dp116
g15
S'curve'
p117
sS'x'
F236
sg17
I01
sS'y'
F0
s(dp118
g15
S'line'
p119
sS'x'
F1682
sg17
I01
sS'y'
F0
s(dp120
S'y'
F0
sS'x'
F1725
sg17
I00
s(dp121
S'y'
F34
sS'x'
F1759
sg17
I00
s(dp122
g15
S'curve'
p123
sS'x'
F1759
sg17
I01
sS'y'
F77
s(dp124
g15
S'line'
p125
sS'x'
F1759
sg17
I01
sS'y'
F293
s(dp126
S'y'
F336
sS'x'
F1759
sg17
I00
s(dp127
S'y'
F370
sS'x'
F1725
sg17
I00
s(dp128
g15
S'curve'
p129
sS'x'
F1682
sg17
I01
sS'y'
F370
s(dp130
g15
S'line'
p131
sS'x'
F949
sg17
I01
sS'y'
F370
s(dp132
S'y'
F370
sS'x'
F929
sg17
I00
s(dp133
S'y'
F377
sS'x'
F916
sg17
I00
s(dp134
g15
S'curve'
p135
sS'x'
F916
sg17
I01
sS'y'
F397
s(dp136
g15
S'line'
p137
sS'x'
F916
sg17
I01
sS'y'
F576
s(dp138
S'y'
F596
sS'x'
F916
sg17
I00
s(dp139
S'y'
F603
sS'x'
F929
sg17
I00
s(dp140
g15
S'curve'
p141
sS'x'
F949
sg17
I01
sS'y'
F603
s(dp142
g15
S'line'
p143
sS'x'
F1811
sg17
I01
sS'y'
F603
s(dp144
S'y'
F603
sS'x'
F1831
sg17
I00
s(dp145
S'y'
F586
sS'x'
F1848
sg17
I00
s(dp146
g15
S'curve'
p147
sS'x'
F1848
sg17
I01
sS'y'
F566
s(dp148
g15
S'line'
p149
sS'x'
F1848
sg17
I01
sS'y'
F500
s(dp150
S'y'
F79
sS'x'
F1848
sg17
I00
s(dp151
S'y'
F-41
sS'x'
F2252
sg17
I00
stp152
stp153
sS'components'
p154
(tsS'anchors'
p155
(tsss."
LayerCount: 2
Fore
SplineSet
1960 -41 m 0
 2070 -41 2160 -26 2239 5 c 0
 2280 21 2302 36 2290 78 c 2
 2281 110 l 2
 2271 145 2264 167 2207 148 c 0
 2146 128 2072 111 2003 111 c 0
 1852 111 1777 167 1777 305 c 2
 1777 635 l 2
 1777 655 1784 662 1804 662 c 2
 2186 662 l 2
 2229 662 2253 686 2253 729 c 2
 2253 753 l 2
 2253 796 2229 820 2186 820 c 2
 1804 820 l 2
 1784 820 1777 827 1777 847 c 2
 1777 1064 l 2
 1777 1107 1753 1131 1710 1131 c 2
 1636 1131 l 2
 1593 1131 1577 1106 1569 1064 c 1
 1549 847 l 1
 1549 827 1542 820 1522 820 c 2
 803 820 l 2
 404 820 354 950 371 1086 c 0
 383 1181 426 1299 904 1299 c 0
 1238 1299 1396 1249 1435 1242 c 0
 1444 1240 1451 1239 1458 1239 c 0
 1484 1239 1498 1252 1502 1283 c 1
 1507 1342 l 2
 1508 1347 1508 1351 1508 1355 c 0
 1508 1385 1492 1402 1455 1412 c 0
 1343 1445 1112 1474 914 1474 c 0
 309 1474 142 1319 142 1067 c 0
 142 889 267 768 476 742 c 1
 276 722 165 565 165 387 c 0
 165 145 323 -40 928 -40 c 0
 1255 -40 1493 45 1623 89 c 1
 1689 7 1799 -41 1960 -41 c 0
793 662 m 1
 1522 662 l 2
 1542 662 1549 655 1549 635 c 2
 1549 335 l 2
 1549 304 1551 274 1556 246 c 1
 1436 205 1205 135 936 135 c 0
 596 135 411 198 393 338 c 0
 376 471 389 659 793 662 c 1
EndSplineSet
EndChar

StartChar: asciicircum
Encoding: 62 94 41
Width: 1299
VWidth: 0
Flags: W
PickledData: "(dp1
S'com.typemytype.robofont.layerData'
p2
(dp3
S'b'
(dp4
S'name'
p5
S'asciicircum'
p6
sS'lib'
p7
(dp8
sS'unicodes'
p9
(tsS'width'
p10
I1299
sS'contours'
p11
(tsS'components'
p12
(tsS'anchors'
p13
(tsss."
LayerCount: 2
Fore
SplineSet
112 201 m 2
 212 201 l 2
 258 201 282 229 302 270 c 1
 610 946 l 2
 613 953 620 956 626 956 c 0
 632 956 638 953 642 946 c 2
 968 270 l 2
 987 229 1011 201 1057 201 c 2
 1140 201 l 2
 1167 201 1186 223 1186 247 c 0
 1186 255 1185 262 1181 269 c 2
 761 1139 l 1
 739 1180 715 1207 668 1207 c 2
 583 1207 l 2
 536 1207 511 1180 489 1140 c 1
 72 268 l 2
 68 261 66 253 66 246 c 0
 66 223 85 201 112 201 c 2
EndSplineSet
EndChar

StartChar: asciitilde
Encoding: 94 126 42
Width: 1399
VWidth: 0
Flags: W
PickledData: "(dp1
S'com.typemytype.robofont.layerData'
p2
(dp3
S'b'
(dp4
S'name'
p5
S'asciitilde'
p6
sS'lib'
p7
(dp8
sS'unicodes'
p9
(tsS'width'
p10
I1880
sS'contours'
p11
(tsS'components'
p12
(tsS'anchors'
p13
(tsss."
LayerCount: 2
Fore
SplineSet
431 746 m 0
 623 746 813 918 966 918 c 0
 1030 918 1080 873 1125 799 c 0
 1134 784 1146 771 1166 771 c 0
 1176 771 1190 775 1206 784 c 1
 1206 784 1236 805 1246 813 c 0
 1262 825 1272 838 1272 854 c 0
 1272 862 1270 871 1265 881 c 0
 1209 997 1102 1101 940 1101 c 0
 765 1101 567 934 435 934 c 0
 372 934 326 979 284 1063 c 0
 280 1071 268 1090 244 1090 c 0
 237 1090 228 1088 218 1083 c 2
 147 1048 l 2
 124 1037 118 1024 118 1011 c 0
 118 1003 120 995 123 986 c 0
 162 878 239 746 431 746 c 0
EndSplineSet
EndChar

StartChar: asterisk
Encoding: 10 42 43
Width: 1290
VWidth: 0
Flags: W
PickledData: "(dp1
S'com.typemytype.robofont.layerData'
p2
(dp3
S'b'
(dp4
S'name'
p5
S'asterisk'
p6
sS'lib'
p7
(dp8
sS'unicodes'
p9
(tsS'width'
p10
I1289
sS'contours'
p11
(tsS'components'
p12
(tsS'anchors'
p13
(tsss."
LayerCount: 2
Fore
SplineSet
389 295 m 0
 424 295 455 316 470 346 c 2
 644 695 l 1
 817 346 l 2
 832 316 864 295 898 295 c 0
 948 295 995 339 995 389 c 0
 995 467 763 685 713 741 c 1
 1093 824 l 2
 1134 833 1166 869 1166 911 c 0
 1166 961 1127 1009 1075 1009 c 0
 1016 1009 749 853 685 820 c 1
 701 946 735 1095 735 1221 c 0
 735 1271 694 1309 644 1309 c 0
 597 1309 550 1276 550 1226 c 0
 550 1098 585 948 602 820 c 1
 538 853 271 1009 212 1009 c 0
 160 1009 121 961 121 911 c 0
 121 869 153 833 194 824 c 2
 574 741 l 1
 524 685 292 467 292 389 c 0
 292 339 339 295 389 295 c 0
EndSplineSet
EndChar

StartChar: at
Encoding: 32 64 44
Width: 2242
VWidth: 0
Flags: W
PickledData: "(dp1
S'com.typemytype.robofont.layerData'
p2
(dp3
S'b'
(dp4
S'name'
p5
S'at'
p6
sS'lib'
p7
(dp8
sS'unicodes'
p9
(tsS'width'
p10
I2241
sS'contours'
p11
(tsS'components'
p12
(tsS'anchors'
p13
(tsss."
LayerCount: 2
Fore
SplineSet
1067 -285 m 0
 1211 -285 1338 -263 1448 -223 c 1
 1397 -53 l 1
 1312 -87 1212 -106 1095 -106 c 0
 588 -106 375 241 375 590 c 0
 375 971 640 1285 1147 1285 c 0
 1648 1285 1906 975 1906 601 c 0
 1906 306 1849 277 1796 277 c 0
 1747 277 1701 310 1701 403 c 2
 1701 925 l 2
 1701 959 1672 986 1635 986 c 2
 1619 986 l 2
 1579 986 1549 974 1542 936 c 1
 1523 811 l 2
 1521 803 1520 798 1517 798 c 0
 1514 798 1511 802 1507 810 c 0
 1448 927 1292 1031 1084 1031 c 0
 800 1031 575 865 575 573 c 0
 575 264 827 101 1111 101 c 0
 1329 101 1449 208 1519 315 c 0
 1525 324 1532 339 1540 339 c 0
 1547 339 1554 322 1557 301 c 1
 1563 205 1673 127 1793 127 c 0
 1943 127 2108 247 2108 601 c 1
 2106 1061 1762 1475 1143 1475 c 0
 523 1475 136 1089 136 595 c 0
 136 131 447 -285 1067 -285 c 0
1119 283 m 0
 915 283 823 412 823 559 c 0
 823 701 898 840 1118 840 c 0
 1284 840 1462 765 1462 564 c 0
 1462 348 1287 283 1119 283 c 0
EndSplineSet
EndChar

StartChar: b
Encoding: 66 98 45
Width: 1681
VWidth: 0
Flags: W
PickledData: "(dp1
S'com.typemytype.robofont.layerData'
p2
(dp3
S'b'
(dp4
S'name'
p5
S'b'
sS'lib'
p6
(dp7
sS'unicodes'
p8
(tsS'width'
p9
I1681
sS'contours'
p10
(tsS'components'
p11
(tsS'anchors'
p12
(tsss."
LayerCount: 2
Fore
SplineSet
892 -41 m 0
 1186 -41 1552 107 1552 504 c 0
 1552 912 1198 1053 874 1053 c 0
 675 1053 504 989 396 857 c 1
 394 857 392 853 390 853 c 0
 389 853 388 854 388 861 c 2
 388 1371 l 2
 388 1414 364 1438 321 1438 c 2
 227 1438 l 2
 184 1438 160 1414 160 1371 c 2
 160 67 l 2
 160 24 170 0 213 0 c 2
 227 0 l 2
 268 0 296 53 324 144 c 0
 330 164 337 184 342 201 c 0
 344 210 347 212 350 212 c 0
 353 212 355 209 357 207 c 0
 474 43 692 -41 892 -41 c 0
857 119 m 0
 600 119 388 247 388 504 c 0
 388 784 616 893 857 893 c 0
 1095 893 1323 788 1323 504 c 0
 1323 243 1111 119 857 119 c 0
EndSplineSet
EndChar

StartChar: backslash
Encoding: 60 92 46
Width: 1088
VWidth: 0
Flags: W
PickledData: "(dp1
S'name'
p2
S'backslash'
p3
sS'com.typemytype.robofont.layerData'
p4
(dp5
S'b'
(dp6
g2
S'backslash'
p7
sS'lib'
p8
(dp9
sS'unicodes'
p10
(tsS'width'
p11
I1090
sS'contours'
p12
(tsS'components'
p13
(tsS'anchors'
p14
(tsssg10
(tsg11
I1536
sg12
(tsg13
(tsg14
(ts."
LayerCount: 2
Fore
SplineSet
808 -205 m 2
 971 -205 l 2
 989 -205 1001 -187 995 -170 c 2
 308 1612 l 2
 300 1633 280 1647 258 1647 c 2
 95 1647 l 2
 77 1647 65 1629 71 1612 c 2
 758 -170 l 2
 766 -191 786 -205 808 -205 c 2
EndSplineSet
EndChar

StartChar: bar
Encoding: 92 124 47
Width: 529
VWidth: 0
Flags: W
PickledData: "(dp1
S'com.typemytype.robofont.layerData'
p2
(dp3
S'b'
(dp4
S'name'
p5
S'bar'
p6
sS'lib'
p7
(dp8
sS'unicodes'
p9
(tsS'width'
p10
I529
sS'contours'
p11
(tsS'components'
p12
(tsS'anchors'
p13
(tsss."
LayerCount: 2
Fore
SplineSet
238 -150 m 2
 291 -150 l 2
 334 -150 368 -136 368 -93 c 2
 368 1498 l 2
 368 1541 334 1555 291 1555 c 2
 238 1555 l 2
 195 1555 161 1541 161 1498 c 2
 161 -93 l 2
 161 -136 195 -150 238 -150 c 2
EndSplineSet
EndChar

StartChar: braceleft
Encoding: 91 123 48
Width: 935
VWidth: 0
Flags: W
PickledData: "(dp1
S'anchors'
p2
(tsS'unicodes'
p3
(tsS'width'
p4
I1213
sS'contours'
p5
(tsS'components'
p6
(tsS'name'
p7
S'braceleft'
p8
s."
LayerCount: 2
Fore
SplineSet
125 712 m 0
 125 622 148 607 217 607 c 2
 279 607 l 2
 374 607 412 544 412 218 c 0
 412 -6 458 -119 686 -119 c 2
 736 -119 l 2
 778 -119 813 -104 813 -62 c 2
 813 -12 l 2
 813 40 789 52 737 52 c 0
 624 52 587 73 587 249 c 2
 587 257 l 2
 587 419 586 671 460 699 c 0
 453 701 450 706 450 712 c 0
 450 718 453 723 460 725 c 0
 586 753 587 1005 587 1167 c 2
 587 1175 l 2
 587 1351 624 1372 737 1372 c 0
 789 1372 813 1384 813 1436 c 2
 813 1486 l 2
 813 1528 778 1543 736 1543 c 2
 686 1543 l 2
 458 1543 412 1430 412 1206 c 0
 412 880 374 817 279 817 c 2
 217 817 l 2
 148 817 125 802 125 712 c 0
EndSplineSet
EndChar

StartChar: braceright
Encoding: 93 125 49
Width: 934
VWidth: 0
Flags: W
PickledData: "(dp1
S'anchors'
p2
(tsS'unicodes'
p3
(tsS'width'
p4
I1214
sS'contours'
p5
(tsS'components'
p6
(tsS'name'
p7
S'braceright'
p8
s."
LayerCount: 2
Fore
SplineSet
809 712 m 0
 809 802 786 817 717 817 c 2
 655 817 l 2
 560 817 522 880 522 1206 c 0
 522 1430 476 1543 248 1543 c 2
 198 1543 l 2
 156 1543 121 1528 121 1486 c 2
 121 1436 l 2
 121 1384 145 1372 197 1372 c 0
 310 1372 347 1351 347 1175 c 2
 347 1167 l 2
 347 1005 348 753 474 725 c 0
 481 723 484 718 484 712 c 0
 484 706 481 701 474 699 c 0
 348 671 347 419 347 257 c 2
 347 249 l 2
 347 73 310 52 197 52 c 0
 145 52 121 40 121 -12 c 2
 121 -62 l 2
 121 -104 156 -119 198 -119 c 2
 248 -119 l 2
 476 -119 522 -6 522 218 c 0
 522 544 560 607 655 607 c 2
 717 607 l 2
 786 607 809 622 809 712 c 0
EndSplineSet
EndChar

StartChar: bracketleft
Encoding: 59 91 50
Width: 1002
VWidth: 0
Flags: W
PickledData: "(dp1
S'com.typemytype.robofont.layerData'
p2
(dp3
S'b'
(dp4
S'name'
p5
S'bracketleft'
p6
sS'lib'
p7
(dp8
sS'unicodes'
p9
(tsS'width'
p10
I1003
sS'contours'
p11
((dp12
S'points'
p13
((dp14
S'segmentType'
p15
S'curve'
p16
sS'x'
F266
sS'smooth'
p17
I01
sS'y'
F0
s(dp18
g15
S'line'
p19
sS'x'
F360
sg17
I01
sS'y'
F0
s(dp20
S'y'
F0
sS'x'
F403
sg17
I00
s(dp21
S'y'
F24
sS'x'
F427
sg17
I00
s(dp22
g15
S'curve'
p23
sS'x'
F427
sg17
I01
sS'y'
F67
s(dp24
g15
S'line'
p25
sS'x'
F427
sg17
I01
sS'y'
F1371
s(dp26
S'y'
F1414
sS'x'
F427
sg17
I00
s(dp27
S'y'
F1438
sS'x'
F403
sg17
I00
s(dp28
g15
S'curve'
p29
sS'x'
F360
sg17
I01
sS'y'
F1438
s(dp30
g15
S'line'
p31
sS'x'
F266
sg17
I01
sS'y'
F1438
s(dp32
S'y'
F1438
sS'x'
F223
sg17
I00
s(dp33
S'y'
F1414
sS'x'
F199
sg17
I00
s(dp34
g15
S'curve'
p35
sS'x'
F199
sg17
I01
sS'y'
F1371
s(dp36
g15
S'line'
p37
sS'x'
F199
sg17
I01
sS'y'
F67
s(dp38
S'y'
F24
sS'x'
F199
sg17
I00
s(dp39
S'y'
F0
sS'x'
F223
sg17
I00
stp40
stp41
sS'components'
p42
(tsS'anchors'
p43
(tsss."
LayerCount: 2
Fore
SplineSet
238 -65 m 2
 810 -65 l 2
 853 -65 877 -51 877 -8 c 2
 877 41 l 2
 877 84 853 98 810 98 c 2
 416 98 l 2
 396 98 389 105 389 125 c 2
 389 1317 l 2
 389 1337 396 1344 416 1344 c 2
 810 1344 l 2
 853 1344 877 1358 877 1401 c 2
 877 1460 l 2
 877 1503 853 1517 810 1517 c 2
 238 1517 l 2
 195 1517 161 1483 161 1440 c 2
 161 12 l 2
 161 -31 195 -65 238 -65 c 2
EndSplineSet
EndChar

StartChar: bracketright
Encoding: 61 93 51
Width: 1002
VWidth: 0
Flags: W
PickledData: "(dp1
S'com.typemytype.robofont.layerData'
p2
(dp3
S'b'
(dp4
S'name'
p5
S'bracketright'
p6
sS'lib'
p7
(dp8
sS'unicodes'
p9
(tsS'width'
p10
I1004
sS'contours'
p11
(tsS'components'
p12
(tsS'anchors'
p13
(tsss."
LayerCount: 2
Fore
SplineSet
193 -65 m 2
 765 -65 l 2
 808 -65 842 -31 842 12 c 2
 842 1440 l 2
 842 1483 808 1517 765 1517 c 2
 193 1517 l 2
 150 1517 126 1503 126 1460 c 2
 126 1411 l 2
 126 1368 150 1354 193 1354 c 2
 587 1354 l 2
 607 1354 614 1347 614 1327 c 2
 614 135 l 2
 614 115 607 108 587 108 c 2
 193 108 l 2
 150 108 126 94 126 51 c 2
 126 -8 l 2
 126 -51 150 -65 193 -65 c 2
EndSplineSet
EndChar

StartChar: breve
Encoding: 363 728 52
Width: 1218
VWidth: 0
Flags: HW
PickledData: "(dp1
S'com.typemytype.robofont.layerData'
p2
(dp3
S'b'
(dp4
S'name'
p5
S'breve'
p6
sS'lib'
p7
(dp8
sS'unicodes'
p9
(tsS'width'
p10
I2058
sS'contours'
p11
(tsS'components'
p12
(tsS'anchors'
p13
(tsss."
AnchorPoint: "top" 624 1006.9 mark 0
LayerCount: 2
Fore
SplineSet
640 1186.40039062 m 4
 805 1186.40039062 960 1259.40039062 960 1499.40039062 c 5
 768 1499.40039062 l 5
 768 1382.40039062 720 1332.40039062 640 1332.40039062 c 4
 559 1332.40039062 512 1389.40039062 512 1499.40039062 c 5
 320 1499.40039062 l 5
 320 1259.40039062 474 1186.40039062 640 1186.40039062 c 4
EndSplineSet
EndChar

StartChar: brokenbar
Encoding: 100 166 53
Width: 512
VWidth: 0
Flags: W
PickledData: "(dp1
S'com.typemytype.robofont.layerData'
p2
(dp3
S'b'
(dp4
S'name'
p5
S'brokenbar'
p6
sS'lib'
p7
(dp8
sS'unicodes'
p9
(tsS'width'
p10
I636
sS'contours'
p11
(tsS'components'
p12
(tsS'anchors'
p13
(tsss."
LayerCount: 2
Fore
SplineSet
217 -150 m 2
 295 -150 l 2
 338 -150 352 -116 352 -73 c 2
 352 509 l 2
 352 552 338 586 295 586 c 2
 217 586 l 2
 174 586 160 552 160 509 c 2
 160 -73 l 2
 160 -116 174 -150 217 -150 c 2
217 819 m 2
 295 819 l 2
 338 819 352 853 352 896 c 2
 352 1478 l 2
 352 1521 338 1555 295 1555 c 2
 217 1555 l 2
 174 1555 160 1521 160 1478 c 2
 160 896 l 2
 160 853 174 819 217 819 c 2
EndSplineSet
EndChar

StartChar: c
Encoding: 67 99 54
Width: 1545
VWidth: 0
Flags: HW
PickledData: "(dp1
S'com.typemytype.robofont.layerData'
p2
(dp3
S'b'
(dp4
S'name'
p5
S'c'
sS'lib'
p6
(dp7
sS'unicodes'
p8
(tsS'width'
p9
I1544
sS'contours'
p10
((dp11
S'points'
p12
((dp13
S'segmentType'
p14
S'curve'
p15
sS'x'
F1312
sS'smooth'
p16
I01
sS'y'
F52
s(dp17
S'y'
F-9
sS'x'
F1186
sg16
I00
s(dp18
S'y'
F-41
sS'x'
F1020
sg16
I00
s(dp19
g14
S'curve'
p20
sS'x'
F879
sg16
I01
sS'y'
F-41
s(dp21
S'y'
F-41
sS'x'
F580
sg16
I00
s(dp22
S'y'
F106
sS'x'
F160
sg16
I00
s(dp23
g14
S'curve'
p24
sS'x'
F160
sg16
I01
sS'y'
F504
s(dp25
S'y'
F912
sS'x'
F160
sg16
I00
s(dp26
S'y'
F1053
sS'x'
F550
sg16
I00
s(dp27
g14
S'curve'
p28
sS'x'
F879
sg16
I01
sS'y'
F1053
s(dp29
S'y'
F1053
sS'x'
F1040
sg16
I00
s(dp30
S'y'
F1025
sS'x'
F1219
sg16
I00
s(dp31
g14
S'curve'
p32
sS'x'
F1356
sg16
I01
sS'y'
F942
s(dp33
S'y'
F923
sS'x'
F1387
sg16
I00
s(dp34
S'y'
F903
sS'x'
F1391
sg16
I00
s(dp35
g14
S'curve'
p36
sS'x'
F1382
sg16
I01
sS'y'
F881
s(dp37
g14
S'line'
p38
sS'x'
F1353
sg16
I01
sS'y'
F812
s(dp39
S'y'
F769
sS'x'
F1335
sg16
I00
s(dp40
S'y'
F791
sS'x'
F1303
sg16
I00
s(dp41
g14
S'curve'
p42
sS'x'
F1278
sg16
I01
sS'y'
F804
s(dp43
S'y'
F848
sS'x'
F1196
sg16
I00
s(dp44
S'y'
F893
sS'x'
F1031
sg16
I00
s(dp45
g14
S'curve'
p46
sS'x'
F878
sg16
I01
sS'y'
F893
s(dp47
S'y'
F893
sS'x'
F636
sg16
I00
s(dp48
S'y'
F786
sS'x'
F388
sg16
I00
s(dp49
g14
S'curve'
p50
sS'x'
F389
sg16
I00
sS'y'
F504
s(dp51
S'y'
F246
sS'x'
F388
sg16
I00
s(dp52
S'y'
F119
sS'x'
F633
sg16
I00
s(dp53
g14
S'curve'
p54
sS'x'
F891
sg16
I01
sS'y'
F119
s(dp55
S'y'
F119
sS'x'
F1042
sg16
I00
s(dp56
S'y'
F172
sS'x'
F1189
sg16
I00
s(dp57
g14
S'curve'
p58
sS'x'
F1256
sg16
I01
sS'y'
F203
s(dp59
S'y'
F222
sS'x'
F1297
sg16
I00
s(dp60
S'y'
F213
sS'x'
F1325
sg16
I00
s(dp61
g14
S'curve'
p62
sS'x'
F1332
sg16
I00
sS'y'
F193
s(dp63
S'y'
F186
sS'x'
F1335
sg16
I00
s(dp64
S'y'
F153
sS'x'
F1345
sg16
I00
s(dp65
g14
S'curve'
p66
sS'x'
F1353
sg16
I00
sS'y'
F125
s(dp67
S'y'
F98
sS'x'
F1361
sg16
I00
s(dp68
S'y'
F73
sS'x'
F1356
sg16
I00
stp69
stp70
sS'components'
p71
(tsS'anchors'
p72
(tsss."
AnchorPoint: "bot" 877.5 0.400024 basechar 0
AnchorPoint: "top" 819 1024 basechar 0
LayerCount: 2
Fore
SplineSet
876 -41 m 0
 1017 -41 1212 -3 1339 63 c 0
 1383 86 1380 104 1372 131 c 0
 1364 159 1350 187 1347 194 c 0
 1340 214 1318 223 1277 204 c 0
 1210 173 1058 110 888 110 c 0
 609 110 355 246 356 504 c 1
 355 786 633 900 875 900 c 0
 1076 900 1216 847 1298 803 c 0
 1323 790 1355 768 1373 811 c 2
 1399 871 l 2
 1408 893 1404 913 1373 932 c 0
 1236 1015 1037 1053 876 1053 c 0
 547 1053 127 912 127 504 c 0
 127 106 549 -41 876 -41 c 0
EndSplineSet
EndChar

StartChar: caron
Encoding: 362 711 55
Width: 849
VWidth: 0
Flags: HW
PickledData: "(dp1
S'com.typemytype.robofont.layerData'
p2
(dp3
S'b'
(dp4
S'name'
p5
S'caron'
p6
sS'lib'
p7
(dp8
sS'unicodes'
p9
(tsS'width'
p10
I849
sS'contours'
p11
(tsS'components'
p12
(tsS'anchors'
p13
(tsss."
AnchorPoint: "top" 426 1006.9 mark 0
LayerCount: 2
Fore
SplineSet
378 1217 m 2
 461 1217 l 2
 508 1217 560 1237 595 1269 c 2
 758 1424 l 2
 765 1430 768 1439 768 1446 c 0
 768 1462 756 1476 738 1476 c 2
 705 1476 l 2
 659 1476 601 1461 561 1438 c 1
 451 1370 l 2
 441 1364 430 1362 419 1362 c 0
 408 1362 396 1364 387 1370 c 2
 278 1438 l 1
 238 1461 180 1476 134 1476 c 2
 101 1476 l 2
 83 1476 71 1462 71 1446 c 0
 71 1439 74 1430 81 1424 c 2
 244 1269 l 2
 279 1237 331 1217 378 1217 c 2
EndSplineSet
EndChar

StartChar: cedilla
Encoding: 118 184 57
Width: 716
VWidth: 0
Flags: HW
PickledData: "(dp1
S'com.typemytype.robofont.layerData'
p2
(dp3
S'b'
(dp4
S'name'
p5
S'cedilla'
p6
sS'lib'
p7
(dp8
sS'unicodes'
p9
(tsS'width'
p10
I716
sS'contours'
p11
(tsS'components'
p12
(tsS'anchors'
p13
(tsss."
AnchorPoint: "bot" 400.5 0.400024 mark 0
LayerCount: 2
Fore
SplineSet
403 -486 m 0
 547 -486 620 -392 620 -214 c 0
 620 -103 547 0 439 0 c 0
 419 0 382 0 363 0 c 0
 350 0 347 -7 347 -17 c 0
 347 -31 347 -78 347 -88 c 0
 347 -99 363 -98 363 -98 c 1
 374 -98 391 -98 402 -98 c 0
 452 -98 483 -175 483 -251 c 0
 483 -361 457 -401 410 -401 c 0
 360 -401 338 -358 338 -305 c 0
 338 -288 340 -271 343 -253 c 0
 346 -233 333 -217 312 -217 c 2
 249 -217 l 2
 230 -217 209 -233 205 -252 c 0
 201 -271 199 -290 199 -308 c 0
 199 -416 289 -486 403 -486 c 0
EndSplineSet
EndChar

StartChar: cent
Encoding: 96 162 58
Width: 1546
VWidth: 0
Flags: W
PickledData: "(dp1
S'com.typemytype.robofont.layerData'
p2
(dp3
S'b'
(dp4
S'name'
p5
S'cent'
p6
sS'lib'
p7
(dp8
sS'unicodes'
p9
(tsS'width'
p10
I1545
sS'contours'
p11
(tsS'components'
p12
(tsS'anchors'
p13
(tsss."
LayerCount: 2
Fore
SplineSet
838 -204 m 2
 864 -204 l 2
 907 -204 931 -190 931 -147 c 2
 931 -39 l 1
 1063 -30 1220 9 1330 62 c 0
 1374 83 1379 108 1371 135 c 0
 1363 163 1356 187 1353 194 c 0
 1346 214 1318 223 1277 204 c 0
 1216 176 1084 120 931 111 c 1
 931 899 l 1
 1103 890 1225 842 1299 802 c 0
 1324 789 1356 767 1374 810 c 2
 1400 871 l 2
 1409 893 1405 913 1374 932 c 0
 1252 1006 1081 1044 931 1052 c 1
 931 1214 l 2
 931 1257 907 1271 864 1271 c 2
 838 1271 l 2
 795 1271 771 1259 771 1216 c 2
 771 1048 l 1
 464 1020 128 869 128 504 c 0
 128 148 466 -7 771 -36 c 1
 771 -145 l 2
 771 -188 795 -204 838 -204 c 2
771 893 m 1
 771 118 l 1
 542 152 356 283 357 504 c 1
 356 746 560 864 771 893 c 1
EndSplineSet
EndChar

StartChar: circumflex
Encoding: 361 710 59
Width: 849
VWidth: 0
Flags: HW
PickledData: "(dp1
S'com.typemytype.robofont.layerData'
p2
(dp3
S'b'
(dp4
S'name'
p5
S'circumflex'
p6
sS'lib'
p7
(dp8
sS'unicodes'
p9
(tsS'width'
p10
I849
sS'contours'
p11
(tsS'components'
p12
(tsS'anchors'
p13
(tsss."
AnchorPoint: "top" 428 1006.9 mark 0
LayerCount: 2
Fore
SplineSet
101 1217 m 2
 134 1217 l 2
 180 1217 238 1232 278 1255 c 1
 388 1323 l 2
 398 1329 409 1331 420 1331 c 0
 431 1331 443 1329 452 1323 c 2
 561 1255 l 1
 601 1232 659 1217 705 1217 c 2
 738 1217 l 2
 756 1217 768 1231 768 1247 c 0
 768 1254 765 1263 758 1269 c 2
 595 1424 l 2
 560 1456 508 1476 461 1476 c 2
 378 1476 l 2
 331 1476 279 1456 244 1424 c 2
 81 1269 l 2
 74 1263 71 1254 71 1247 c 0
 71 1231 83 1217 101 1217 c 2
EndSplineSet
EndChar

StartChar: colon
Encoding: 26 58 60
Width: 587
VWidth: 0
Flags: W
PickledData: "(dp1
S'com.typemytype.robofont.layerData'
p2
(dp3
S'b'
(dp4
S'name'
p5
S'colon'
p6
sS'lib'
p7
(dp8
sS'unicodes'
p9
(tsS'width'
p10
I586
sS'contours'
p11
(tsS'components'
p12
(tsS'anchors'
p13
(tsss."
LayerCount: 2
Fore
SplineSet
225 0 m 2
 362 0 l 2
 405 0 439 34 439 77 c 2
 439 221 l 2
 439 264 405 298 362 298 c 2
 225 298 l 2
 182 298 148 264 148 221 c 2
 148 77 l 2
 148 34 182 0 225 0 c 2
225 754 m 2
 362 754 l 2
 405 754 439 788 439 831 c 2
 439 975 l 2
 439 1018 405 1052 362 1052 c 2
 225 1052 l 2
 182 1052 148 1018 148 975 c 2
 148 831 l 2
 148 788 182 754 225 754 c 2
EndSplineSet
EndChar

StartChar: comma
Encoding: 12 44 61
Width: 596
VWidth: 0
Flags: HW
PickledData: "(dp1
S'com.typemytype.robofont.layerData'
p2
(dp3
S'b'
(dp4
S'name'
p5
S'comma'
p6
sS'lib'
p7
(dp8
sS'unicodes'
p9
(tsS'width'
p10
I597
sS'contours'
p11
(tsS'components'
p12
(tsS'anchors'
p13
(tsss."
AnchorPoint: "bot" 295.5 432.4 mark 0
LayerCount: 2
Fore
SplineSet
198 -301 m 0
 336 -278 467 -142 467 95 c 2
 467 240 l 2
 467 283 433 317 390 317 c 2
 192 317 l 2
 149 317 132 296 132 253 c 2
 132 50 l 2
 132 12 154 0 192 0 c 2
 277 0 l 2
 292 0 294 -11 294 -27 c 0
 294 -51 262 -128 193 -171 c 0
 150 -198 132 -192 132 -246 c 2
 132 -256 l 2
 132 -292 163 -307 198 -301 c 0
EndSplineSet
EndChar

StartChar: copyright
Encoding: 103 169 62
Width: 1899
VWidth: 0
Flags: W
PickledData: "(dp1
S'anchors'
p2
(tsS'unicodes'
p3
(tsS'width'
p4
I1899
sS'contours'
p5
(tsS'components'
p6
(tsS'name'
p7
S'copyright'
p8
s."
LayerCount: 2
Fore
SplineSet
970 325 m 0
 1078 325 1189 351 1271 389 c 0
 1291 398 1304 429 1295 457 c 1
 1292 471 1287 484 1283 498 c 0
 1277 523 1256 538 1236 528 c 1
 1165 501 1067 476 978 476 c 0
 821 476 687 545 687 725 c 0
 687 893 821 966 983 966 c 0
 1067 966 1161 939 1228 910 c 1
 1250 899 1273 917 1282 946 c 0
 1285 959 1293 980 1293 997 c 0
 1293 1019 1286 1038 1266 1048 c 1
 1186 1093 1069 1122 953 1122 c 0
 758 1122 508 1011 508 726 c 0
 508 444 737 325 970 325 c 0
952 81 m 0
 471 81 291 420 291 713 c 0
 291 1018 471 1349 952 1349 c 0
 1432 1349 1612 1018 1612 713 c 0
 1612 420 1432 81 952 81 c 0
949 -41 m 0
 1493 -41 1765 318 1765 717 c 0
 1765 1116 1493 1475 949 1475 c 0
 405 1475 133 1116 133 717 c 0
 133 318 405 -41 949 -41 c 0
EndSplineSet
EndChar

StartChar: currency
Encoding: 98 164 63
Width: 1309
VWidth: 0
Flags: W
PickledData: "(dp1
S'com.typemytype.robofont.layerData'
p2
(dp3
s."
LayerCount: 2
Fore
SplineSet
654 530 m 0
 365 530 257 745 257 931 c 0
 257 1126 365 1335 654 1335 c 0
 943 1335 1051 1126 1051 931 c 0
 1051 745 943 530 654 530 c 0
654 426 m 0
 788 426 868 459 954 515 c 1
 985 484 l 2
 1005 463 1023 445 1042 445 c 0
 1050 445 1058 449 1067 457 c 2
 1099 490 l 2
 1109 500 1113 509 1113 518 c 0
 1113 537 1096 554 1075 575 c 2
 1051 599 l 1
 1128 689 1168 805 1168 931 c 0
 1168 1059 1127 1177 1048 1268 c 1
 1075 1295 l 2
 1096 1316 1114 1334 1114 1352 c 0
 1114 1360 1110 1368 1102 1377 c 2
 1069 1409 l 2
 1059 1419 1050 1423 1041 1423 c 0
 1022 1423 1005 1406 984 1385 c 2
 951 1352 l 1
 866 1407 786 1440 654 1440 c 0
 522 1440 443 1407 358 1352 c 1
 324 1386 l 2
 304 1406 287 1423 268 1423 c 0
 259 1423 249 1419 239 1409 c 2
 207 1377 l 2
 198 1369 194 1360 194 1352 c 0
 194 1334 212 1316 233 1295 c 2
 260 1268 l 1
 181 1177 140 1059 140 931 c 0
 140 805 180 688 258 599 c 1
 233 574 l 2
 213 554 196 537 196 518 c 0
 196 509 200 499 210 489 c 2
 242 457 l 2
 250 448 259 445 267 445 c 0
 285 445 303 463 324 484 c 2
 355 515 l 1
 440 459 520 426 654 426 c 0
EndSplineSet
EndChar

StartChar: d
Encoding: 68 100 64
Width: 1681
VWidth: 0
Flags: W
PickledData: "(dp1
S'com.typemytype.robofont.layerData'
p2
(dp3
S'b'
(dp4
S'name'
p5
S'd'
sS'lib'
p6
(dp7
sS'unicodes'
p8
(tsS'width'
p9
I1681
sS'contours'
p10
(tsS'components'
p11
(tsS'anchors'
p12
(tsss."
LayerCount: 2
Fore
SplineSet
789 -41 m 0
 987 -41 1204 42 1321 203 c 0
 1325 209 1329 214 1333 220 c 1
 1335 214 1337 208 1339 202 c 0
 1352 162 1367 112 1386 71 c 1
 1406 31 1428 0 1454 0 c 2
 1468 0 l 2
 1511 0 1521 24 1521 67 c 2
 1521 1371 l 2
 1521 1414 1497 1438 1454 1438 c 2
 1360 1438 l 2
 1317 1438 1293 1414 1293 1371 c 2
 1293 866 l 1
 1293 847 l 1
 1290 852 1286 856 1282 860 c 0
 1175 990 1004 1053 807 1053 c 0
 483 1053 129 912 129 504 c 0
 129 107 495 -41 789 -41 c 0
824 119 m 0
 570 119 358 243 358 504 c 0
 358 788 586 893 824 893 c 0
 1066 893 1294 786 1293 504 c 1
 1294 246 1082 119 824 119 c 0
EndSplineSet
EndChar

StartChar: degree
Encoding: 110 176 65
Width: 1324
VWidth: 0
Flags: W
PickledData: "(dp1
S'com.typemytype.robofont.layerData'
p2
(dp3
S'b'
(dp4
S'name'
p5
S'degree'
p6
sS'lib'
p7
(dp8
sS'unicodes'
p9
(tsS'width'
p10
I1323
sS'contours'
p11
(tsS'components'
p12
(tsS'anchors'
p13
(tsss."
LayerCount: 2
Fore
SplineSet
664 120 m 0
 375 120 267 335 267 521 c 0
 267 716 375 925 664 925 c 0
 953 925 1061 716 1061 521 c 0
 1061 335 953 120 664 120 c 0
662 2 m 0
 1016 2 1193 250 1193 524 c 0
 1193 799 1016 1047 662 1047 c 0
 308 1047 131 799 131 524 c 0
 131 250 308 2 662 2 c 0
EndSplineSet
EndChar

StartChar: dieresis
Encoding: 102 168 66
Width: 709
VWidth: 0
Flags: W
PickledData: "(dp1
S'com.typemytype.robofont.layerData'
p2
(dp3
S'b'
(dp4
S'name'
p5
S'dieresis'
p6
sS'lib'
p7
(dp8
sS'unicodes'
p9
(tsS'width'
p10
I709
sS'contours'
p11
(tsS'components'
p12
(tsS'anchors'
p13
(tsss."
LayerCount: 2
Fore
SplineSet
291 0 m 2
 418 0 l 2
 461 0 495 34 495 77 c 2
 495 173 l 2
 495 216 461 250 418 250 c 2
 291 250 l 2
 248 250 214 216 214 173 c 2
 214 77 l 2
 214 34 248 0 291 0 c 2
892 0 m 2
 1019 0 l 2
 1062 0 1096 34 1096 77 c 2
 1096 173 l 2
 1096 216 1062 250 1019 250 c 2
 892 250 l 2
 849 250 815 216 815 173 c 2
 815 77 l 2
 815 34 849 0 892 0 c 2
EndSplineSet
EndChar

StartChar: divide
Encoding: 181 247 67
Width: 1273
VWidth: 0
Flags: W
PickledData: "(dp1
S'com.typemytype.robofont.layerData'
p2
(dp3
S'b'
(dp4
S'name'
p5
S'divide'
p6
sS'lib'
p7
(dp8
sS'unicodes'
p9
(tsS'width'
p10
I1279
sS'contours'
p11
(tsS'components'
p12
(tsS'anchors'
p13
(tsss."
LayerCount: 2
Fore
SplineSet
574 15 m 2
 710 15 l 2
 753 15 787 49 787 92 c 2
 787 215 l 2
 787 258 753 292 710 292 c 2
 574 292 l 2
 531 292 497 258 497 215 c 2
 497 92 l 2
 497 49 531 15 574 15 c 2
184 442 m 0
 802 442 873 442 1088 442 c 0
 1131 442 1155 466 1155 509 c 0
 1155 526 1155 361 1155 555 c 0
 1155 598 1131 622 1088 622 c 0
 828 622 448 622 184 622 c 0
 141 622 117 598 117 555 c 2
 117 509 l 2
 117 466 141 442 184 442 c 0
574 746 m 2
 710 746 l 2
 753 746 787 780 787 823 c 2
 787 946 l 2
 787 989 753 1023 710 1023 c 2
 574 1023 l 2
 531 1023 497 989 497 946 c 2
 497 823 l 2
 497 780 531 746 574 746 c 2
EndSplineSet
EndChar

StartChar: dotaccent
Encoding: 364 729 69
Width: 546
VWidth: 0
Flags: HW
PickledData: "(dp1
S'com.typemytype.robofont.layerData'
p2
(dp3
S'b'
(dp4
S'name'
p5
S'dotaccent'
p6
sS'lib'
p7
(dp8
sS'unicodes'
p9
(tsS'width'
p10
I546
sS'contours'
p11
(tsS'components'
p12
(tsS'anchors'
p13
(tsss."
AnchorPoint: "top" 273 1106 mark 0
LayerCount: 2
Fore
SplineSet
205 1338.40039062 m 6
 342 1338.40039062 l 6
 385 1338.40039062 419 1372.40039062 419 1415.40039062 c 6
 419 1559.40039062 l 6
 419 1602.40039062 385 1636.40039062 342 1636.40039062 c 6
 205 1636.40039062 l 6
 162 1636.40039062 128 1602.40039062 128 1559.40039062 c 6
 128 1415.40039062 l 6
 128 1372.40039062 162 1338.40039062 205 1338.40039062 c 6
EndSplineSet
EndChar

StartChar: dotlessi
Encoding: 239 305 70
Width: 547
VWidth: 0
Flags: HW
PickledData: "(dp1
S'com.typemytype.robofont.layerData'
p2
(dp3
S'b'
(dp4
S'name'
p5
S'dotlessi'
p6
sS'lib'
p7
(dp8
sS'unicodes'
p9
(tsS'width'
p10
I529
sS'contours'
p11
(tsS'components'
p12
(tsS'anchors'
p13
(tsss."
AnchorPoint: "top" 276 1006.9 basechar 0
LayerCount: 2
Fore
SplineSet
227 0 m 2
 321 0 l 2
 364 0 388 24 388 67 c 2
 388 939 l 2
 388 982 364 1006 321 1006 c 2
 227 1006 l 2
 184 1006 160 982 160 939 c 2
 160 67 l 2
 160 24 184 0 227 0 c 2
EndSplineSet
EndChar

StartChar: e
Encoding: 69 101 71
Width: 1608
VWidth: 0
Flags: HW
PickledData: "(dp1
S'com.typemytype.robofont.layerData'
p2
(dp3
S'b'
(dp4
S'name'
p5
S'e'
sS'lib'
p6
(dp7
sS'unicodes'
p8
(tsS'width'
p9
I1607
sS'contours'
p10
((dp11
S'points'
p12
((dp13
S'segmentType'
p14
S'line'
p15
sS'x'
F404
sS'smooth'
p16
I01
sS'y'
F595
s(dp17
S'y'
F595
sS'x'
F397
sg16
I00
s(dp18
S'y'
F598
sS'x'
F396
sg16
I00
s(dp19
g14
S'curve'
p20
sS'x'
F396
sg16
I00
sS'y'
F602
s(dp21
S'y'
F816
sS'x'
F431
sg16
I00
s(dp22
S'y'
F893
sS'x'
F663
sg16
I00
s(dp23
g14
S'curve'
p24
sS'x'
F875
sg16
I01
sS'y'
F893
s(dp25
S'y'
F893
sS'x'
F1197
sg16
I00
s(dp26
S'y'
F738
sS'x'
F1309
sg16
I00
s(dp27
g14
S'curve'
p28
sS'x'
F1358
sg16
I00
sS'y'
F597
s(dp29
g14
S'line'
p30
sS'x'
F1359
sg16
I00
sS'y'
F595
stp31
s(dp32
g12
((dp33
g14
S'curve'
p34
sS'x'
F896
sg16
I01
sS'y'
F-41
s(dp35
S'y'
F-41
sS'x'
F1318
sg16
I00
s(dp36
S'y'
F110
sS'x'
F1525
sg16
I00
s(dp37
g14
S'curve'
p38
sS'x'
F1525
sg16
I01
sS'y'
F244
s(dp39
S'y'
F292
sS'x'
F1525
sg16
I00
s(dp40
S'y'
F303
sS'x'
F1514
sg16
I00
s(dp41
g14
S'curve'
p42
sS'x'
F1485
sg16
I01
sS'y'
F303
s(dp43
S'y'
F303
sS'x'
F1457
sg16
I00
s(dp44
S'y'
F304
sS'x'
F1402
sg16
I00
s(dp45
g14
S'curve'
p46
sS'x'
F1395
sg16
I00
sS'y'
F303
s(dp47
S'y'
F303
sS'x'
F1327
sg16
I00
s(dp48
S'y'
F119
sS'x'
F1398
sg16
I00
s(dp49
g14
S'curve'
p50
sS'x'
F908
sg16
I01
sS'y'
F119
s(dp51
S'y'
F119
sS'x'
F531
sg16
I00
s(dp52
S'y'
F314
sS'x'
F393
sg16
I00
s(dp53
g14
S'curve'
p54
sS'x'
F392
sg16
I01
sS'y'
F440
s(dp55
S'y'
F448
sS'x'
F392
sg16
I00
s(dp56
S'y'
F450
sS'x'
F398
sg16
I00
s(dp57
g14
S'curve'
p58
sS'x'
F409
sg16
I01
sS'y'
F450
s(dp59
g14
S'line'
p60
sS'x'
F1419
sg16
I01
sS'y'
F450
s(dp61
S'y'
F450
sS'x'
F1528
sg16
I00
s(dp62
S'y'
F521
sS'x'
F1550
sg16
I00
s(dp63
g14
S'curve'
p64
sS'x'
F1551
sg16
I01
sS'y'
F556
s(dp65
g14
S'line'
p66
sS'x'
F1551
sg16
I00
sS'y'
F607
s(dp67
S'y'
F817
sS'x'
F1503
sg16
I00
s(dp68
S'y'
F1053
sS'x'
F1305
sg16
I00
s(dp69
g14
S'curve'
p70
sS'x'
F876
sg16
I01
sS'y'
F1053
s(dp71
S'y'
F1053
sS'x'
F548
sg16
I00
s(dp72
S'y'
F912
sS'x'
F157
sg16
I00
s(dp73
g14
S'curve'
p74
sS'x'
F157
sg16
I01
sS'y'
F504
s(dp75
S'y'
F106
sS'x'
F157
sg16
I00
s(dp76
S'y'
F-41
sS'x'
F538
sg16
I00
stp77
stp78
sS'components'
p79
(tsS'anchors'
p80
(tsss."
AnchorPoint: "bot" 855.5 -2.59998 basechar 0
AnchorPoint: "top" 778 1010 basechar 0
LayerCount: 2
Fore
SplineSet
853 -42 m 0
 1034 -42 1261 8 1387 69 c 0
 1431 90 1425 113 1417 140 c 0
 1409 168 1401 188 1398 195 c 0
 1391 215 1368 222 1327 203 c 0
 1260 172 1128 110 868 110 c 0
 451 110 366 314 365 440 c 0
 365 448 371 450 382 450 c 2
 1342 450 l 2
 1451 450 1473 521 1474 556 c 1
 1474 607 l 1
 1426 817 1268 1052 839 1052 c 0
 511 1052 130 912 130 504 c 0
 130 83 499 -42 853 -42 c 0
1281 592 m 1
 1282 590 l 1
 377 590 l 2
 370 590 369 593 369 597 c 0
 404 811 626 900 838 900 c 0
 1160 900 1232 733 1281 592 c 1
EndSplineSet
EndChar

StartChar: eight
Encoding: 24 56 73
Width: 1940
VWidth: 0
Flags: W
PickledData: "(dp1
S'com.typemytype.robofont.guides'
p2
(tsS'com.typemytype.robofont.layerData'
p3
(dp4
S'b'
(dp5
S'name'
p6
S'eight'
p7
sS'lib'
p8
(dp9
sS'unicodes'
p10
(tsS'width'
p11
I1940
sS'contours'
p12
((dp13
S'points'
p14
((dp15
S'segmentType'
p16
S'curve'
p17
sS'x'
F958
sS'smooth'
p18
I01
sS'y'
F135
s(dp19
S'y'
F135
sS'x'
F571
sg18
I00
s(dp20
S'y'
F135
sS'x'
F367
sg18
I00
s(dp21
g16
S'curve'
p22
sS'x'
F367
sg18
I01
sS'y'
F403
s(dp23
S'y'
F498
sS'x'
F367
sg18
I00
s(dp24
S'y'
F613
sS'x'
F423
sg18
I00
s(dp25
g16
S'curve'
p26
sS'x'
F555
sg18
I00
sS'y'
F687
s(dp27
S'y'
F588
sS'x'
F1349
sg18
I00
s(dp28
S'y'
F634
sS'x'
F1550
sg18
I00
s(dp29
g16
S'curve'
p30
sS'x'
F1550
sg18
I01
sS'y'
F403
s(dp31
S'y'
F135
sS'x'
F1550
sg18
I00
s(dp32
S'y'
F135
sS'x'
F1348
sg18
I00
stp33
s(dp34
g14
((dp35
g16
S'curve'
p36
sS'x'
F1308
sg18
I00
sS'y'
F761
s(dp37
S'y'
F857
sS'x'
F442
sg18
I00
s(dp38
S'y'
F832
sS'x'
F447
sg18
I00
s(dp39
g16
S'curve'
p40
sS'x'
F447
sg18
I01
sS'y'
F1029
s(dp41
S'y'
F1271
sS'x'
F447
sg18
I00
s(dp42
S'y'
F1297
sS'x'
F590
sg18
I00
s(dp43
g16
S'curve'
p44
sS'x'
F958
sg18
I01
sS'y'
F1297
s(dp45
S'y'
F1297
sS'x'
F1290
sg18
I00
s(dp46
S'y'
F1295
sS'x'
F1470
sg18
I00
s(dp47
g16
S'curve'
p48
sS'x'
F1470
sg18
I01
sS'y'
F1025
s(dp49
S'y'
F887
sS'x'
F1470
sg18
I00
s(dp50
S'y'
F812
sS'x'
F1370
sg18
I00
stp51
s(dp52
g14
((dp53
g16
S'curve'
p54
sS'x'
F958
sg18
I01
sS'y'
F-41
s(dp55
S'y'
F-41
sS'x'
F1419
sg18
I00
s(dp56
S'y'
F-35
sS'x'
F1779
sg18
I00
s(dp57
g16
S'curve'
p58
sS'x'
F1779
sg18
I01
sS'y'
F387
s(dp59
S'y'
F545
sS'x'
F1779
sg18
I00
s(dp60
S'y'
F663
sS'x'
F1640
sg18
I00
s(dp61
g16
S'curve'
p62
sS'x'
F1474
sg18
I00
sS'y'
F699
s(dp63
S'y'
F737
sS'x'
F1582
sg18
I00
s(dp64
S'y'
F879
sS'x'
F1679
sg18
I00
s(dp65
g16
S'curve'
p66
sS'x'
F1679
sg18
I01
sS'y'
F1029
s(dp67
S'y'
F1411
sS'x'
F1679
sg18
I00
s(dp68
S'y'
F1473
sS'x'
F1419
sg18
I00
s(dp69
g16
S'curve'
p70
sS'x'
F958
sg18
I01
sS'y'
F1473
s(dp71
S'y'
F1473
sS'x'
F500
sg18
I00
s(dp72
S'y'
F1398
sS'x'
F218
sg18
I00
s(dp73
g16
S'curve'
p74
sS'x'
F218
sg18
I01
sS'y'
F1059
s(dp75
S'y'
F909
sS'x'
F218
sg18
I00
s(dp76
S'y'
F795
sS'x'
F320
sg18
I00
s(dp77
g16
S'curve'
p78
sS'x'
F396
sg18
I00
sS'y'
F752
s(dp79
S'y'
F695
sS'x'
F273
sg18
I00
s(dp80
S'y'
F561
sS'x'
F138
sg18
I00
s(dp81
g16
S'curve'
p82
sS'x'
F138
sg18
I01
sS'y'
F403
s(dp83
S'y'
F-42
sS'x'
F138
sg18
I00
s(dp84
S'y'
F-41
sS'x'
F500
sg18
I00
stp85
stp86
sS'components'
p87
(tsS'anchors'
p88
(tsss."
LayerCount: 2
Fore
SplineSet
971 -41 m 0
 1432 -41 1805 15 1805 387 c 0
 1805 545 1666 663 1500 699 c 1
 1608 737 1705 879 1705 1029 c 0
 1705 1371 1432 1473 971 1473 c 0
 513 1473 217 1358 217 1059 c 0
 217 909 319 795 395 752 c 1
 272 695 137 561 137 403 c 0
 137 10 513 -41 971 -41 c 0
971 135 m 0
 584 135 360 171 360 403 c 0
 360 498 422 613 554 687 c 1
 783 658 1008 623 1149 605 c 0
 1462 566 1580 522 1580 398 c 0
 1580 177 1420 135 971 135 c 0
1334 761 m 1
 1087 781 783 820 783 820 c 1
 493 845 439 967 439 1059 c 0
 439 1242 603 1297 971 1297 c 0
 1348 1297 1502 1229 1502 1025 c 0
 1502 887 1396 812 1334 761 c 1
EndSplineSet
EndChar

StartChar: equal
Encoding: 29 61 74
Width: 933
VWidth: 0
Flags: W
PickledData: "(dp1
S'com.typemytype.robofont.layerData'
p2
(dp3
S'b'
(dp4
S'name'
p5
S'equal'
p6
sS'lib'
p7
(dp8
sS'unicodes'
p9
(tsS'width'
p10
I933
sS'contours'
p11
(tsS'components'
p12
(tsS'anchors'
p13
(tsss."
LayerCount: 2
Fore
SplineSet
194 312 m 2
 739 312 l 2
 782 312 796 326 796 369 c 2
 796 413 l 2
 796 456 782 470 739 470 c 2
 194 470 l 2
 151 470 137 456 137 413 c 2
 137 369 l 2
 137 326 151 312 194 312 c 2
194 617 m 2
 739 617 l 2
 782 617 796 631 796 674 c 2
 796 718 l 2
 796 761 782 775 739 775 c 2
 194 775 l 2
 151 775 137 761 137 718 c 2
 137 674 l 2
 137 631 151 617 194 617 c 2
EndSplineSet
EndChar

StartChar: eth
Encoding: 174 240 75
Width: 1868
VWidth: 0
Flags: W
PickledData: "(dp1
S'anchors'
p2
(tsS'unicodes'
p3
(tsS'width'
p4
I2080
sS'contours'
p5
(tsS'components'
p6
(tsS'name'
p7
S'eth'
p8
s."
LayerCount: 2
Fore
SplineSet
949 -42 m 0
 1538 -42 1736 188 1736 598 c 0
 1736 892 1506 1203 1173 1373 c 1
 1302 1512 l 2
 1312 1522 1316 1535 1316 1547 c 0
 1316 1560 1312 1573 1302 1583 c 0
 1301 1583 1296 1588 1269 1615 c 0
 1259 1625 1246 1630 1233 1630 c 0
 1219 1630 1206 1625 1196 1614 c 2
 1032 1438 l 1
 908 1489 782 1526 670 1546 c 0
 663 1547 657 1548 652 1548 c 0
 627 1548 623 1535 615 1515 c 2
 582 1433 l 2
 580 1427 579 1421 579 1416 c 0
 579 1398 593 1387 610 1379 c 1
 700 1346 794 1314 885 1279 c 1
 735 1117 l 2
 725 1107 720 1094 720 1081 c 0
 720 1067 727 1053 736 1044 c 2
 767 1015 l 2
 777 1005 790 1000 803 1000 c 0
 817 1000 830 1005 840 1016 c 2
 1029 1219 l 1
 1238 1123 1417 993 1491 762 c 1
 1425 837 1233 896 910 896 c 0
 293 896 128 683 128 426 c 0
 128 61 488 -42 949 -42 c 0
949 134 m 0
 559 134 357 190 357 434 c 0
 357 606 465 735 937 735 c 0
 1239 735 1502 704 1502 458 c 0
 1502 258 1314 134 949 134 c 0
EndSplineSet
EndChar

StartChar: exclam
Encoding: 1 33 76
Width: 550
VWidth: 0
Flags: W
PickledData: "(dp1
S'com.typemytype.robofont.layerData'
p2
(dp3
S'b'
(dp4
S'name'
p5
S'exclam'
p6
sS'lib'
p7
(dp8
sS'unicodes'
p9
(tsS'width'
p10
I550
sS'contours'
p11
(tsS'components'
p12
(tsS'anchors'
p13
(tsss."
LayerCount: 2
Fore
SplineSet
215 0 m 2
 332 0 l 2
 375 0 399 24 399 67 c 2
 399 181 l 2
 399 224 375 248 332 248 c 2
 215 248 l 2
 172 248 148 224 148 181 c 2
 148 67 l 2
 148 24 172 0 215 0 c 2
282 432 m 2
 287 432 l 2
 330 432 331 456 334 499 c 2
 395 1343 l 2
 398 1386 371 1438 328 1438 c 2
 234 1438 l 2
 191 1438 164 1414 167 1371 c 2
 235 499 l 2
 238 456 239 432 282 432 c 2
EndSplineSet
EndChar

StartChar: f
Encoding: 70 102 78
Width: 1229
VWidth: 0
Flags: W
PickledData: "(dp1
S'com.typemytype.robofont.layerData'
p2
(dp3
S'b'
(dp4
S'name'
p5
S'f'
sS'lib'
p6
(dp7
sS'unicodes'
p8
(tsS'width'
p9
I1228
sS'contours'
p10
((dp11
S'points'
p12
((dp13
S'segmentType'
p14
S'curve'
p15
sS'x'
F793
sS'smooth'
p16
I01
sS'y'
F534
s(dp17
S'y'
F534
sS'x'
F535
sg16
I00
s(dp18
S'y'
F669
sS'x'
F323
sg16
I00
s(dp19
g14
S'curve'
p20
sS'x'
F324
sg16
I01
sS'y'
F927
s(dp21
S'y'
F1209
sS'x'
F323
sg16
I00
s(dp22
S'y'
F1323
sS'x'
F551
sg16
I00
s(dp23
g14
S'curve'
p24
sS'x'
F793
sg16
I01
sS'y'
F1323
s(dp25
S'y'
F1323
sS'x'
F1031
sg16
I00
s(dp26
S'y'
F1211
sS'x'
F1259
sg16
I00
s(dp27
g14
S'curve'
p28
sS'x'
F1259
sg16
I01
sS'y'
F927
s(dp29
S'y'
F666
sS'x'
F1259
sg16
I00
s(dp30
S'y'
F534
sS'x'
F1047
sg16
I00
stp31
s(dp32
g12
((dp33
g14
S'curve'
p34
sS'x'
F794
sg16
I01
sS'y'
F382
s(dp35
S'y'
F382
sS'x'
F1088
sg16
I00
s(dp36
S'y'
F530
sS'x'
F1488
sg16
I00
s(dp37
g14
S'curve'
p38
sS'x'
F1488
sg16
I01
sS'y'
F927
s(dp39
S'y'
F1335
sS'x'
F1488
sg16
I00
s(dp40
S'y'
F1475
sS'x'
F1118
sg16
I00
s(dp41
g14
S'curve'
p42
sS'x'
F794
sg16
I01
sS'y'
F1475
s(dp43
S'y'
F1475
sS'x'
F465
sg16
I00
s(dp44
S'y'
F1335
sS'x'
F95
sg16
I00
s(dp45
g14
S'curve'
p46
sS'x'
F95
sg16
I01
sS'y'
F927
s(dp47
S'y'
F529
sS'x'
F95
sg16
I00
s(dp48
S'y'
F382
sS'x'
F495
sg16
I00
stp49
stp50
sS'components'
p51
(tsS'anchors'
p52
(tsss."
LayerCount: 2
Fore
SplineSet
438 0 m 2
 512 0 l 2
 555 0 589 34 589 77 c 2
 589 821 l 2
 589 841 592 858 612 858 c 2
 1006 858 l 2
 1049 858 1073 867 1073 910 c 2
 1073 951 l 2
 1073 994 1049 1006 1006 1006 c 2
 601 1006 l 2
 591 1006 589 1014 589 1017 c 2
 589 1060 l 2
 589 1199 628 1323 849 1323 c 0
 915 1323 1051 1290 1056 1290 c 0
 1090 1290 1097 1297 1097 1334 c 2
 1097 1388 l 2
 1097 1416 1075 1431 1047 1438 c 1
 1029 1441 907 1475 793 1475 c 0
 578 1475 362 1381 362 1041 c 0
 362 1019 361 1006 339 1006 c 2
 189 1006 l 2
 146 1006 122 988 122 945 c 2
 122 910 l 2
 122 867 146 858 189 858 c 2
 341 858 l 2
 361 858 361 841 361 821 c 2
 361 77 l 2
 361 34 395 0 438 0 c 2
EndSplineSet
EndChar

StartChar: five
Encoding: 21 53 79
Width: 2095
VWidth: 0
Flags: W
PickledData: "(dp1
S'com.typemytype.robofont.layerData'
p2
(dp3
S'b'
(dp4
S'name'
p5
S'five'
p6
sS'lib'
p7
(dp8
sS'unicodes'
p9
(tsS'width'
p10
I2096
sS'contours'
p11
((dp12
S'points'
p13
((dp14
S'segmentType'
p15
S'curve'
p16
sS'x'
F1254
sS'smooth'
p17
I01
sS'y'
F-581
s(dp18
S'y'
F-581
sS'x'
F1715
sg17
I00
s(dp19
S'y'
F-387
sS'x'
F2086
sg17
I00
s(dp20
g15
S'curve'
p21
sS'x'
F2086
sg17
I01
sS'y'
F192
s(dp22
S'y'
F724
sS'x'
F2086
sg17
I00
s(dp23
S'y'
F935
sS'x'
F1715
sg17
I00
s(dp24
g15
S'curve'
p25
sS'x'
F1254
sg17
I01
sS'y'
F935
s(dp26
S'y'
F935
sS'x'
F796
sg17
I00
s(dp27
S'y'
F724
sS'x'
F422
sg17
I00
s(dp28
g15
S'curve'
p29
sS'x'
F422
sg17
I01
sS'y'
F192
s(dp30
S'y'
F-387
sS'x'
F422
sg17
I00
s(dp31
S'y'
F-581
sS'x'
F796
sg17
I00
stp32
s(dp33
g13
((dp34
g15
S'curve'
p35
sS'x'
F1254
sg17
I01
sS'y'
F-405
s(dp36
S'y'
F-405
sS'x'
F867
sg17
I00
s(dp37
S'y'
F-258
sS'x'
F651
sg17
I00
s(dp38
g15
S'curve'
p39
sS'x'
F651
sg17
I01
sS'y'
F192
s(dp40
S'y'
F572
sS'x'
F651
sg17
I00
s(dp41
S'y'
F759
sS'x'
F854
sg17
I00
s(dp42
g15
S'curve'
p43
sS'x'
F1254
sg17
I01
sS'y'
F759
s(dp44
S'y'
F759
sS'x'
F1657
sg17
I00
s(dp45
S'y'
F570
sS'x'
F1857
sg17
I00
s(dp46
g15
S'curve'
p47
sS'x'
F1857
sg17
I01
sS'y'
F192
s(dp48
S'y'
F-258
sS'x'
F1857
sg17
I00
s(dp49
S'y'
F-405
sS'x'
F1644
sg17
I00
stp50
stp51
sS'components'
p52
(tsS'anchors'
p53
(tsss."
LayerCount: 2
Fore
SplineSet
946 -40 m 0
 1551 -40 1962 56 1962 447 c 0
 1962 728 1789 934 1134 934 c 0
 692 934 524 855 391 770 c 1
 373 1218 l 2
 371 1263 398 1290 441 1290 c 2
 1768 1269 l 2
 1794 1269 1808 1282 1812 1313 c 1
 1821 1367 l 2
 1822 1372 1822 1376 1822 1380 c 0
 1822 1410 1807 1438 1769 1438 c 2
 234 1438 l 2
 165 1438 144 1393 144 1318 c 1
 208 680 l 2
 212 639 204 598 271 598 c 2
 326 598 l 2
 478 598 546 759 1011 759 c 0
 1557 759 1732 656 1732 453 c 0
 1732 227 1570 137 954 137 c 0
 620 137 285 228 246 235 c 0
 237 237 230 238 223 238 c 0
 197 238 183 225 179 194 c 0
 171 132 171 128 171 124 c 0
 171 94 187 77 224 67 c 0
 336 34 702 -39 943 -40 c 0
 944 -40 945 -40 946 -40 c 0
EndSplineSet
EndChar

StartChar: four
Encoding: 20 52 80
Width: 1670
VWidth: 0
Flags: W
PickledData: "(dp1
S'com.typemytype.robofont.layerData'
p2
(dp3
S'b'
(dp4
S'name'
p5
S'four'
p6
sS'lib'
p7
(dp8
sS'unicodes'
p9
(tsS'width'
p10
I1671
sS'contours'
p11
((dp12
S'points'
p13
((dp14
S'segmentType'
p15
S'curve'
p16
sS'x'
F1133
sS'smooth'
p17
I01
sS'y'
F-177
s(dp18
g15
S'line'
p19
sS'x'
F1427
sg17
I01
sS'y'
F-177
s(dp20
S'y'
F-177
sS'x'
F1470
sg17
I00
s(dp21
S'y'
F-143
sS'x'
F1504
sg17
I00
s(dp22
g15
S'curve'
p23
sS'x'
F1504
sg17
I01
sS'y'
F-100
s(dp24
g15
S'line'
p25
sS'x'
F1504
sg17
I00
sS'y'
F152
s(dp26
g15
S'line'
p27
sS'x'
F1651
sg17
I01
sS'y'
F152
s(dp28
S'y'
F152
sS'x'
F1694
sg17
I00
s(dp29
S'y'
F186
sS'x'
F1728
sg17
I00
s(dp30
g15
S'curve'
p31
sS'x'
F1728
sg17
I01
sS'y'
F229
s(dp32
g15
S'line'
p33
sS'x'
F1728
sg17
I01
sS'y'
F468
s(dp34
S'y'
F511
sS'x'
F1728
sg17
I00
s(dp35
S'y'
F545
sS'x'
F1694
sg17
I00
s(dp36
g15
S'curve'
p37
sS'x'
F1651
sg17
I01
sS'y'
F545
s(dp38
g15
S'line'
p39
sS'x'
F1504
sg17
I00
sS'y'
F545
s(dp40
g15
S'line'
p41
sS'x'
F1504
sg17
I01
sS'y'
F1361
s(dp42
S'y'
F1404
sS'x'
F1504
sg17
I00
s(dp43
S'y'
F1438
sS'x'
F1470
sg17
I00
s(dp44
g15
S'curve'
p45
sS'x'
F1427
sg17
I01
sS'y'
F1438
s(dp46
g15
S'line'
p47
sS'x'
F1133
sg17
I01
sS'y'
F1438
s(dp48
S'y'
F1438
sS'x'
F1090
sg17
I00
s(dp49
S'y'
F1404
sS'x'
F1056
sg17
I00
s(dp50
g15
S'curve'
p51
sS'x'
F1056
sg17
I01
sS'y'
F1361
s(dp52
g15
S'line'
p53
sS'x'
F1056
sg17
I00
sS'y'
F545
s(dp54
g15
S'line'
p55
sS'x'
F773
sg17
I01
sS'y'
F545
s(dp56
S'y'
F545
sS'x'
F754
sg17
I00
s(dp57
S'y'
F560
sS'x'
F736
sg17
I00
s(dp58
g15
S'curve'
p59
sS'x'
F736
sg17
I01
sS'y'
F578
s(dp60
S'y'
F579
sS'x'
F736
sg17
I00
s(dp61
S'y'
F581
sS'x'
F736
sg17
I00
s(dp62
g15
S'curve'
p63
sS'x'
F736
sg17
I01
sS'y'
F582
s(dp64
g15
S'line'
p65
sS'x'
F897
sg17
I01
sS'y'
F1361
s(dp66
S'y'
F1364
sS'x'
F898
sg17
I00
s(dp67
S'y'
F1367
sS'x'
F898
sg17
I00
s(dp68
g15
S'curve'
p69
sS'x'
F898
sg17
I01
sS'y'
F1370
s(dp70
S'y'
F1408
sS'x'
F898
sg17
I00
s(dp71
S'y'
F1438
sS'x'
F860
sg17
I00
s(dp72
g15
S'curve'
p73
sS'x'
F820
sg17
I01
sS'y'
F1438
s(dp74
g15
S'line'
p75
sS'x'
F435
sg17
I01
sS'y'
F1438
s(dp76
S'y'
F1438
sS'x'
F392
sg17
I00
s(dp77
S'y'
F1403
sS'x'
F368
sg17
I00
s(dp78
g15
S'curve'
p79
sS'x'
F358
sg17
I01
sS'y'
F1361
s(dp80
g15
S'line'
p81
sS'x'
F64
sg17
I01
sS'y'
F229
s(dp82
S'y'
F225
sS'x'
F63
sg17
I00
s(dp83
S'y'
F221
sS'x'
F63
sg17
I00
s(dp84
g15
S'curve'
p85
sS'x'
F63
sg17
I01
sS'y'
F217
s(dp86
S'y'
F181
sS'x'
F63
sg17
I00
s(dp87
S'y'
F152
sS'x'
F102
sg17
I00
s(dp88
g15
S'curve'
p89
sS'x'
F141
sg17
I01
sS'y'
F152
s(dp90
g15
S'line'
p91
sS'x'
F1056
sg17
I00
sS'y'
F152
s(dp92
g15
S'line'
p93
sS'x'
F1056
sg17
I01
sS'y'
F-100
s(dp94
S'y'
F-143
sS'x'
F1056
sg17
I00
s(dp95
S'y'
F-177
sS'x'
F1090
sg17
I00
stp96
stp97
sS'components'
p98
(tsS'anchors'
p99
(tsss."
LayerCount: 2
Fore
SplineSet
1074 0 m 2
 1164 0 l 2
 1207 0 1231 24 1231 67 c 2
 1231 284 l 1
 1484 284 l 2
 1527 284 1551 308 1551 351 c 2
 1551 386 l 2
 1551 429 1527 453 1484 453 c 2
 1231 453 l 1
 1231 1371 l 2
 1231 1414 1207 1438 1164 1438 c 2
 1074 1438 l 2
 1031 1438 1007 1414 1007 1371 c 2
 1007 453 l 1
 432 453 l 2
 415 453 404 463 404 477 c 0
 404 480 404 483 405 486 c 2
 674 1371 l 2
 676 1377 677 1382 677 1387 c 0
 677 1419 644 1438 607 1438 c 2
 513 1438 l 2
 470 1438 459 1412 446 1371 c 2
 124 351 l 2
 122 345 121 340 121 335 c 0
 121 303 154 284 191 284 c 2
 1007 284 l 1
 1007 67 l 2
 1007 24 1031 0 1074 0 c 2
EndSplineSet
EndChar

StartChar: fraction
Encoding: 410 8260 81
Width: 1236
VWidth: 0
Flags: W
PickledData: "(dp1
S'com.typemytype.robofont.layerData'
p2
(dp3
S'b'
(dp4
S'name'
p5
S'fraction'
p6
sS'lib'
p7
(dp8
sS'unicodes'
p9
(tsS'width'
p10
I1237
sS'contours'
p11
(tsS'components'
p12
(tsS'anchors'
p13
(tsss."
LayerCount: 2
Fore
SplineSet
103 -205 m 2
 233 -205 l 2
 255 -205 277 -192 286 -172 c 2
 1167 1614 l 2
 1174 1629 1163 1647 1146 1647 c 2
 1016 1647 l 2
 994 1647 972 1634 963 1614 c 2
 82 -172 l 2
 75 -187 86 -205 103 -205 c 2
EndSplineSet
EndChar

StartChar: g
Encoding: 71 103 82
Width: 1587
VWidth: 0
Flags: HW
PickledData: "(dp1
S'com.typemytype.robofont.layerData'
p2
(dp3
S'b'
(dp4
S'name'
p5
S'g'
sS'lib'
p6
(dp7
sS'unicodes'
p8
(tsS'width'
p9
I1588
sS'contours'
p10
((dp11
S'points'
p12
((dp13
S'segmentType'
p14
S'curve'
p15
sS'x'
F831
sS'smooth'
p16
I01
sS'y'
F511
s(dp17
S'y'
F511
sS'x'
F483
sg16
I00
s(dp18
S'y'
F613
sS'x'
F400
sg16
I00
s(dp19
g14
S'curve'
p20
sS'x'
F400
sg16
I01
sS'y'
F709
s(dp21
S'y'
F792
sS'x'
F400
sg16
I00
s(dp22
S'y'
F894
sS'x'
F478
sg16
I00
s(dp23
g14
S'curve'
p24
sS'x'
F825
sg16
I01
sS'y'
F894
s(dp25
S'y'
F894
sS'x'
F1186
sg16
I00
s(dp26
S'y'
F797
sS'x'
F1264
sg16
I00
s(dp27
g14
S'curve'
p28
sS'x'
F1264
sg16
I01
sS'y'
F698
s(dp29
S'y'
F608
sS'x'
F1264
sg16
I00
s(dp30
S'y'
F511
sS'x'
F1201
sg16
I00
stp31
s(dp32
g12
((dp33
g14
S'curve'
p34
sS'x'
F831
sg16
I01
sS'y'
F-303
s(dp35
S'y'
F-303
sS'x'
F658
sg16
I00
s(dp36
S'y'
F-271
sS'x'
F569
sg16
I00
s(dp37
g14
S'curve'
p38
sS'x'
F569
sg16
I01
sS'y'
F-230
s(dp39
S'y'
F-206
sS'x'
F569
sg16
I00
s(dp40
S'y'
F-177
sS'x'
F588
sg16
I00
s(dp41
g14
S'curve'
p42
sS'x'
F621
sg16
I01
sS'y'
F-151
s(dp43
S'y'
F-141
sS'x'
F633
sg16
I00
s(dp44
S'y'
F-132
sS'x'
F660
sg16
I00
s(dp45
g14
S'curve'
p46
sS'x'
F675
sg16
I01
sS'y'
F-132
s(dp47
g14
S'line'
p48
sS'x'
F1079
sg16
I01
sS'y'
F-132
s(dp49
S'y'
F-132
sS'x'
F1169
sg16
I00
s(dp50
S'y'
F-175
sS'x'
F1220
sg16
I00
s(dp51
g14
S'curve'
p52
sS'x'
F1220
sg16
I01
sS'y'
F-214
s(dp53
S'y'
F-258
sS'x'
F1220
sg16
I00
s(dp54
S'y'
F-303
sS'x'
F1211
sg16
I00
stp55
s(dp56
g12
((dp57
g14
S'curve'
p58
sS'x'
F849
sg16
I01
sS'y'
F-557
s(dp59
S'y'
F-557
sS'x'
F1458
sg16
I00
s(dp60
S'y'
F-405
sS'x'
F1582
sg16
I00
s(dp61
g14
S'curve'
p62
sS'x'
F1582
sg16
I01
sS'y'
F-173
s(dp63
S'y'
F22
sS'x'
F1582
sg16
I00
s(dp64
S'y'
F230
sS'x'
F1463
sg16
I00
s(dp65
g14
S'curve'
p66
sS'x'
F1048
sg16
I01
sS'y'
F230
s(dp67
g14
S'line'
p68
sS'x'
F790
sg16
I01
sS'y'
F230
s(dp69
S'y'
F230
sS'x'
F613
sg16
I00
s(dp70
S'y'
F238
sS'x'
F516
sg16
I00
s(dp71
g14
S'curve'
p72
sS'x'
F516
sg16
I01
sS'y'
F295
s(dp73
S'y'
F310
sS'x'
F516
sg16
I00
s(dp74
S'y'
F345
sS'x'
F522
sg16
I00
s(dp75
g14
S'curve'
p76
sS'x'
F529
sg16
I01
sS'y'
F359
s(dp77
S'y'
F373
sS'x'
F536
sg16
I00
s(dp78
S'y'
F384
sS'x'
F559
sg16
I00
s(dp79
g14
S'curve'
p80
sS'x'
F575
sg16
I01
sS'y'
F381
s(dp81
S'y'
F364
sS'x'
F651
sg16
I00
s(dp82
S'y'
F354
sS'x'
F753
sg16
I00
s(dp83
g14
S'curve'
p84
sS'x'
F868
sg16
I01
sS'y'
F354
s(dp85
S'y'
F354
sS'x'
F1330
sg16
I00
s(dp86
S'y'
F512
sS'x'
F1473
sg16
I00
s(dp87
g14
S'curve'
p88
sS'x'
F1473
sg16
I01
sS'y'
F705
s(dp89
S'y'
F823
sS'x'
F1473
sg16
I00
s(dp90
S'y'
F947
sS'x'
F1368
sg16
I00
s(dp91
g14
S'curve'
p92
sS'x'
F1183
sg16
I01
sS'y'
F999
s(dp93
S'y'
F1004
sS'x'
F1167
sg16
I00
s(dp94
S'y'
F1025
sS'x'
F1160
sg16
I00
s(dp95
g14
S'curve'
p96
sS'x'
F1170
sg16
I01
sS'y'
F1040
s(dp97
g14
S'line'
p98
sS'x'
F1344
sg16
I01
sS'y'
F1283
s(dp99
S'y'
F1308
sS'x'
F1360
sg16
I00
s(dp100
S'y'
F1342
sS'x'
F1342
sg16
I00
s(dp101
g14
S'curve'
p102
sS'x'
F1311
sg16
I01
sS'y'
F1342
s(dp103
g14
S'line'
p104
sS'x'
F1216
sg16
I01
sS'y'
F1342
s(dp105
S'y'
F1342
sS'x'
F1176
sg16
I00
s(dp106
S'y'
F1313
sS'x'
F1141
sg16
I00
s(dp107
g14
S'curve'
p108
sS'x'
F1134
sg16
I01
sS'y'
F1274
s(dp109
g14
S'line'
p110
sS'x'
F1064
sg16
I01
sS'y'
F1067
s(dp111
S'y'
F1050
sS'x'
F1060
sg16
I00
s(dp112
S'y'
F1037
sS'x'
F1042
sg16
I00
s(dp113
g14
S'curve'
p114
sS'x'
F1024
sg16
I01
sS'y'
F1039
s(dp115
S'y'
F1044
sS'x'
F981
sg16
I00
s(dp116
S'y'
F1052
sS'x'
F885
sg16
I00
s(dp117
g14
S'curve'
p118
sS'x'
F831
sg16
I01
sS'y'
F1052
s(dp119
S'y'
F1052
sS'x'
F356
sg16
I00
s(dp120
S'y'
F889
sS'x'
F183
sg16
I00
s(dp121
g14
S'curve'
p122
sS'x'
F183
sg16
I01
sS'y'
F705
s(dp123
S'y'
F614
sS'x'
F183
sg16
I00
s(dp124
S'y'
F539
sS'x'
F241
sg16
I00
s(dp125
g14
S'curve'
p126
sS'x'
F326
sg16
I01
sS'y'
F470
s(dp127
S'y'
F459
sS'x'
F339
sg16
I00
s(dp128
S'y'
F441
sS'x'
F338
sg16
I00
s(dp129
g14
S'curve'
p130
sS'x'
F323
sg16
I01
sS'y'
F432
s(dp131
S'y'
F383
sS'x'
F245
sg16
I00
s(dp132
S'y'
F275
sS'x'
F187
sg16
I00
s(dp133
g14
S'curve'
p134
sS'x'
F187
sg16
I01
sS'y'
F180
s(dp135
S'y'
F92
sS'x'
F187
sg16
I00
s(dp136
S'y'
F-4
sS'x'
F262
sg16
I00
s(dp137
g14
S'curve'
p138
sS'x'
F371
sg16
I01
sS'y'
F-56
s(dp139
S'y'
F-62
sS'x'
F384
sg16
I00
s(dp140
S'y'
F-78
sS'x'
F385
sg16
I00
s(dp141
g14
S'curve'
p142
sS'x'
F373
sg16
I01
sS'y'
F-85
s(dp143
S'y'
F-158
sS'x'
F255
sg16
I00
s(dp144
S'y'
F-258
sS'x'
F202
sg16
I00
s(dp145
g14
S'curve'
p146
sS'x'
F202
sg16
I01
sS'y'
F-325
s(dp147
S'y'
F-462
sS'x'
F202
sg16
I00
s(dp148
S'y'
F-557
sS'x'
F408
sg16
I00
stp149
stp150
sS'components'
p151
(tsS'anchors'
p152
(tsss."
AnchorPoint: "top" 696 1024 basechar 0
LayerCount: 2
Fore
SplineSet
776 -521 m 0
 1254 -521 1469 -412 1469 -180 c 0
 1469 15 1337 163 922 163 c 2
 516 163 l 2
 358 163 355 206 355 245 c 0
 355 275 387 315 423 343 c 0
 448 362 486 384 502 381 c 0
 578 364 680 354 795 354 c 0
 1257 354 1360 512 1360 705 c 0
 1360 823 1255 947 1070 999 c 0
 1054 1004 1047 1025 1057 1040 c 2
 1291 1358 l 1
 1307 1383 1289 1417 1258 1417 c 2
 1153 1417 l 2
 1113 1417 1078 1388 1071 1349 c 1
 951 1067 l 1
 947 1050 929 1037 911 1039 c 0
 868 1044 812 1052 758 1052 c 0
 283 1052 140 889 140 705 c 0
 140 614 186 525 329 449 c 0
 335 446 345 446 345 439 c 0
 345 431 334 426 326 421 c 0
 248 372 165 277 165 182 c 0
 165 94 235 75 368 45 c 0
 375 43 387 39 387 33 c 0
 387 28 376 19 370 16 c 0
 252 -57 159 -142 159 -286 c 0
 159 -423 335 -521 776 -521 c 0
788 -361 m 0
 419 -361 366 -285 366 -214 c 0
 366 -108 510 11 602 11 c 2
 906 11 l 2
 1128 11 1282 -39 1282 -142 c 0
 1282 -275 1204 -361 788 -361 c 0
758 502 m 0
 410 502 357 613 357 709 c 0
 357 792 405 900 752 900 c 0
 1113 900 1151 797 1151 698 c 0
 1151 608 1128 502 758 502 c 0
EndSplineSet
EndChar

StartChar: germandbls
Encoding: 157 223 83
Width: 1716
VWidth: 0
Flags: W
PickledData: "(dp1
S'com.typemytype.robofont.layerData'
p2
(dp3
S'b'
(dp4
S'name'
p5
S'germandbls'
p6
sS'lib'
p7
(dp8
sS'unicodes'
p9
(tsS'width'
p10
I1716
sS'contours'
p11
((dp12
S'points'
p13
((dp14
S'segmentType'
p15
S'line'
p16
sS'x'
F-123
sS'smooth'
p17
I01
sS'y'
F160
s(dp18
S'y'
F160
sS'x'
F-143
sg17
I00
s(dp19
S'y'
F160
sS'x'
F-160
sg17
I00
s(dp20
g15
S'curve'
p21
sS'x'
F-160
sg17
I01
sS'y'
F195
s(dp22
g15
S'line'
p23
sS'x'
F-160
sg17
I01
sS'y'
F625
s(dp24
S'y'
F659
sS'x'
F-160
sg17
I00
s(dp25
S'y'
F664
sS'x'
F-143
sg17
I00
s(dp26
g15
S'curve'
p27
sS'x'
F-123
sg17
I01
sS'y'
F664
s(dp28
g15
S'line'
p29
sS'x'
F978
sg17
I01
sS'y'
F664
s(dp30
S'y'
F664
sS'x'
F1189
sg17
I00
s(dp31
S'y'
F623
sS'x'
F1355
sg17
I00
s(dp32
g15
S'curve'
p33
sS'x'
F1355
sg17
I01
sS'y'
F417
s(dp34
S'y'
F187
sS'x'
F1355
sg17
I00
s(dp35
S'y'
F160
sS'x'
F1111
sg17
I00
s(dp36
g15
S'curve'
p37
sS'x'
F924
sg17
I01
sS'y'
F160
stp38
s(dp39
g13
((dp40
g15
S'curve'
p41
sS'x'
F-311
sg17
I01
sS'y'
F0
s(dp42
g15
S'line'
p43
sS'x'
F856
sg17
I01
sS'y'
F0
s(dp44
S'y'
F0
sS'x'
F1355
sg17
I00
s(dp45
S'y'
F96
sS'x'
F1589
sg17
I00
s(dp46
g15
S'curve'
p47
sS'x'
F1589
sg17
I01
sS'y'
F424
s(dp48
S'y'
F590
sS'x'
F1589
sg17
I00
s(dp49
S'y'
F694
sS'x'
F1479
sg17
I00
s(dp50
g15
S'curve'
p51
sS'x'
F1325
sg17
I01
sS'y'
F757
s(dp52
S'y'
F763
sS'x'
F1310
sg17
I00
s(dp53
S'y'
F780
sS'x'
F1309
sg17
I00
s(dp54
g15
S'curve'
p55
sS'x'
F1322
sg17
I01
sS'y'
F788
s(dp56
S'y'
F848
sS'x'
F1424
sg17
I00
s(dp57
S'y'
F929
sS'x'
F1491
sg17
I00
s(dp58
g15
S'curve'
p59
sS'x'
F1491
sg17
I01
sS'y'
F1040
s(dp60
S'y'
F1339
sS'x'
F1491
sg17
I00
s(dp61
S'y'
F1438
sS'x'
F1329
sg17
I00
s(dp62
g15
S'curve'
p63
sS'x'
F901
sg17
I01
sS'y'
F1438
s(dp64
g15
S'line'
p65
sS'x'
F-311
sg17
I01
sS'y'
F1438
s(dp66
S'y'
F1438
sS'x'
F-354
sg17
I00
s(dp67
S'y'
F1402
sS'x'
F-388
sg17
I00
s(dp68
g15
S'curve'
p69
sS'x'
F-388
sg17
I01
sS'y'
F1359
s(dp70
g15
S'line'
p71
sS'x'
F-388
sg17
I01
sS'y'
F77
s(dp72
S'y'
F34
sS'x'
F-388
sg17
I00
s(dp73
S'y'
F0
sS'x'
F-354
sg17
I00
stp74
s(dp75
g13
((dp76
g15
S'line'
p77
sS'x'
F-123
sg17
I01
sS'y'
F834
s(dp78
S'y'
F834
sS'x'
F-143
sg17
I00
s(dp79
S'y'
F863
sS'x'
F-160
sg17
I00
s(dp80
g15
S'curve'
p81
sS'x'
F-160
sg17
I01
sS'y'
F897
s(dp82
g15
S'line'
p83
sS'x'
F-160
sg17
I01
sS'y'
F1236
s(dp84
S'y'
F1270
sS'x'
F-160
sg17
I00
s(dp85
S'y'
F1278
sS'x'
F-143
sg17
I00
s(dp86
g15
S'curve'
p87
sS'x'
F-123
sg17
I01
sS'y'
F1278
s(dp88
g15
S'line'
p89
sS'x'
F915
sg17
I01
sS'y'
F1278
s(dp90
S'y'
F1278
sS'x'
F1081
sg17
I00
s(dp91
S'y'
F1273
sS'x'
F1276
sg17
I00
s(dp92
g15
S'curve'
p93
sS'x'
F1276
sg17
I01
sS'y'
F1043
s(dp94
S'y'
F873
sS'x'
F1276
sg17
I00
s(dp95
S'y'
F841
sS'x'
F1157
sg17
I00
s(dp96
g15
S'curve'
p97
sS'x'
F995
sg17
I01
sS'y'
F834
stp98
stp99
sS'components'
p100
(tsS'anchors'
p101
(tsss."
LayerCount: 2
Fore
SplineSet
213 0 m 2
 311 0 l 2
 362 0 380 31 380 77 c 2
 380 974 l 2
 380 1195 482 1278 715 1278 c 0
 1165 1278 1258 1204 1258 1041 c 0
 1258 941 1179 834 829 834 c 2
 604 834 l 2
 581 834 572 826 572 803 c 2
 572 693 l 2
 572 674 580 664 604 664 c 2
 819 664 l 2
 1244 664 1363 579 1363 422 c 0
 1363 246 1268 160 768 160 c 2
 572 160 l 1
 553 161 540 153 540 138 c 2
 540 25 l 2
 540 9 547 0 572 0 c 2
 752 0 l 2
 1251 0 1585 96 1585 424 c 0
 1585 590 1456 712 1271 762 c 0
 1256 766 1255 775 1268 781 c 0
 1397 841 1458 929 1458 1040 c 0
 1458 1339 1215 1438 787 1438 c 2
 729 1438 l 2
 237 1438 156 1232 156 969 c 2
 156 77 l 2
 156 34 170 0 213 0 c 2
EndSplineSet
EndChar

StartChar: grave
Encoding: 64 96 84
Width: 1745
VWidth: 0
Flags: HW
PickledData: "(dp1
S'com.typemytype.robofont.layerData'
p2
(dp3
S'b'
(dp4
S'name'
p5
S'grave'
p6
sS'lib'
p7
(dp8
sS'unicodes'
p9
(tsS'width'
p10
I1745
sS'contours'
p11
(tsS'components'
p12
(tsS'anchors'
p13
(tsss."
AnchorPoint: "top" 880 1006.9 mark 0
LayerCount: 2
Fore
SplineSet
868.14453125 1174 m 2
 898.14453125 1174 l 1
 910.14453125 1173 920.14453125 1175 913.14453125 1212 c 2
 859.14453125 1540 l 1
 856.14453125 1551 852.14453125 1567 843.14453125 1578 c 1
 828.14453125 1593 809.14453125 1596 787.14453125 1596 c 2
 620.14453125 1596 l 2
 575.14453125 1596 574.14453125 1583 601.14453125 1542 c 2
 813.14453125 1218 l 2
 822.14453125 1204 839.14453125 1174 868.14453125 1174 c 2
EndSplineSet
EndChar

StartChar: greater
Encoding: 30 62 85
Width: 1211
VWidth: 0
Flags: W
PickledData: "(dp1
S'com.typemytype.robofont.layerData'
p2
(dp3
S'b'
(dp4
S'name'
p5
S'greater'
p6
sS'lib'
p7
(dp8
sS'unicodes'
p9
(tsS'width'
p10
I1212
sS'contours'
p11
(tsS'components'
p12
(tsS'anchors'
p13
(tsss."
LayerCount: 2
Fore
SplineSet
171 -23 m 0
 181 -23 194 -19 209 -11 c 2
 1021 426 l 1
 1061 449 1087 483 1087 522 c 2
 1087 632 l 2
 1087 672 1065 718 1021 738 c 1
 209 1139 l 2
 189 1148 177 1157 166 1157 c 0
 150 1157 142 1144 142 1119 c 2
 142 1035 l 2
 142 992 163 964 209 941 c 2
 913 596 l 2
 919 593 922 588 922 584 c 0
 922 579 919 574 913 571 c 2
 209 187 l 2
 166 163 142 146 142 103 c 2
 142 19 l 2
 142 -9 152 -23 171 -23 c 0
EndSplineSet
EndChar

StartChar: guillemotleft
Encoding: 105 171 86
Width: 1347
VWidth: 0
Flags: W
PickledData: "(dp1
S'com.typemytype.robofont.layerData'
p2
(dp3
S'b'
(dp4
S'name'
p5
S'guillemotleft'
p6
sS'lib'
p7
(dp8
sS'unicodes'
p9
(tsS'width'
p10
I1235
sS'contours'
p11
(tsS'components'
p12
(tsS'anchors'
p13
(tsss."
LayerCount: 2
Fore
SplineSet
652 245 m 0
 673 245 693 262 693 286 c 2
 693 376 l 2
 693 418 666 436 631 457 c 1
 312 690 l 2
 306 694 303 699 303 704 c 0
 303 709 306 714 312 718 c 2
 631 949 l 1
 665 971 693 988 693 1029 c 2
 693 1104 l 2
 693 1128 673 1145 651 1145 c 0
 644 1145 638 1143 632 1141 c 1
 184 816 l 2
 150 791 123 774 123 732 c 2
 123 673 l 2
 123 631 150 614 183 589 c 2
 632 250 l 1
 639 248 646 245 652 245 c 0
1163 245 m 0
 1183 245 1203 262 1203 286 c 2
 1203 376 l 2
 1203 418 1176 436 1141 457 c 1
 823 690 l 2
 817 694 814 699 814 704 c 0
 814 709 817 714 823 718 c 2
 1141 949 l 1
 1175 971 1203 988 1203 1029 c 2
 1203 1104 l 2
 1203 1128 1183 1145 1162 1145 c 0
 1155 1145 1149 1143 1142 1141 c 1
 695 816 l 2
 661 791 634 774 634 732 c 2
 634 673 l 2
 634 631 661 614 694 589 c 2
 1143 250 l 1
 1150 248 1156 245 1163 245 c 0
EndSplineSet
EndChar

StartChar: guillemotright
Encoding: 121 187 87
Width: 1355
VWidth: 0
Flags: W
PickledData: "(dp1
S'com.typemytype.robofont.layerData'
p2
(dp3
S'b'
(dp4
S'name'
p5
S'guillemotright'
p6
sS'lib'
p7
(dp8
sS'unicodes'
p9
(tsS'width'
p10
I1235
sS'contours'
p11
(tsS'components'
p12
(tsS'anchors'
p13
(tsss."
LayerCount: 2
Fore
SplineSet
185 245 m 0
 193 245 199 247 205 249 c 1
 653 574 l 2
 686 599 714 616 714 658 c 2
 714 717 l 2
 714 759 686 776 653 801 c 2
 204 1140 l 1
 198 1142 191 1145 185 1145 c 0
 164 1145 144 1128 144 1104 c 2
 144 1014 l 2
 144 972 171 954 206 933 c 1
 525 700 l 2
 530 696 534 691 534 686 c 0
 534 681 531 676 525 672 c 2
 206 441 l 1
 172 419 144 402 144 361 c 2
 144 286 l 2
 144 262 164 245 185 245 c 0
704 245 m 0
 711 245 717 247 724 249 c 1
 1171 574 l 2
 1205 599 1232 616 1232 658 c 2
 1232 717 l 2
 1232 759 1205 776 1172 801 c 2
 723 1140 l 1
 716 1142 709 1145 703 1145 c 0
 682 1145 663 1128 663 1104 c 2
 663 1014 l 2
 663 972 690 954 725 933 c 1
 1043 700 l 2
 1049 696 1052 691 1052 686 c 0
 1052 681 1049 676 1043 672 c 2
 725 441 l 1
 691 419 663 402 663 361 c 2
 663 286 l 2
 663 262 682 245 704 245 c 0
EndSplineSet
EndChar

StartChar: h
Encoding: 72 104 88
Width: 1548
VWidth: 0
Flags: HW
PickledData: "(dp1
S'com.typemytype.robofont.layerData'
p2
(dp3
S'b'
(dp4
S'name'
p5
S'h'
sS'lib'
p6
(dp7
sS'unicodes'
p8
(tsS'width'
p9
I1548
sS'contours'
p10
(tsS'components'
p11
(tsS'anchors'
p12
(tsss."
AnchorPoint: "top" 806 997 basechar 0
LayerCount: 2
Fore
SplineSet
227 0 m 2
 322 0 l 2
 365 0 388 24 388 67 c 2
 388 606 l 2
 388 739 645 900 842 900 c 0
 1028 900 1177 831 1177 606 c 2
 1177 67 l 2
 1177 24 1201 0 1244 0 c 2
 1338 0 l 2
 1381 0 1405 24 1405 67 c 2
 1405 552 l 2
 1405 888 1197 1052 885 1052 c 0
 704 1052 527 993 398 848 c 1
 388 854 l 1
 388 1371 l 2
 388 1414 364 1438 321 1438 c 2
 227 1438 l 2
 184 1438 160 1414 160 1371 c 2
 160 67 l 2
 160 24 184 0 227 0 c 2
EndSplineSet
EndChar

StartChar: hungarumlaut
Encoding: 368 733 89
Width: 1745
VWidth: 0
Flags: HW
PickledData: "(dp1
S'com.typemytype.robofont.layerData'
p2
(dp3
S'b'
(dp4
S'name'
p5
S'hungarumlaut'
p6
sS'lib'
p7
(dp8
sS'unicodes'
p9
(tsS'width'
p10
I1745
sS'contours'
p11
(tsS'components'
p12
(tsS'anchors'
p13
(tsss."
AnchorPoint: "top" 847 1215 mark 0
LayerCount: 2
Fore
SplineSet
662.5 1442.40039062 m 6
 682.5 1442.40039062 l 6
 720.5 1442.40039062 723.5 1457.40039062 738.5 1481.40039062 c 6
 940.5 1809.40039062 l 6
 947.5 1821.40039062 952.5 1835.40039062 952.5 1846.40039062 c 4
 952.5 1862.40039062 944.5 1874.40039062 924.5 1874.40039062 c 6
 758.5 1874.40039062 l 6
 714.5 1874.40039062 695.5 1862.40039062 687.5 1819.40039062 c 6
 624.5 1509.40039062 l 6
 621.5 1495.40039062 620.5 1483.40039062 620.5 1474.40039062 c 4
 620.5 1447.40039062 633.5 1442.40039062 662.5 1442.40039062 c 6
1025.5 1442.40039062 m 6
 1045.5 1442.40039062 l 6
 1083.5 1442.40039062 1086.5 1457.40039062 1101.5 1481.40039062 c 6
 1303.5 1809.40039062 l 6
 1310.5 1821.40039062 1315.5 1835.40039062 1315.5 1846.40039062 c 4
 1315.5 1862.40039062 1307.5 1874.40039062 1287.5 1874.40039062 c 6
 1121.5 1874.40039062 l 6
 1077.5 1874.40039062 1058.5 1862.40039062 1050.5 1819.40039062 c 6
 987.5 1509.40039062 l 6
 984.5 1495.40039062 983.5 1483.40039062 983.5 1474.40039062 c 4
 983.5 1447.40039062 996.5 1442.40039062 1025.5 1442.40039062 c 6
EndSplineSet
EndChar

StartChar: hyphen
Encoding: 13 45 90
Width: 834
VWidth: 0
Flags: W
PickledData: "(dp1
S'com.typemytype.robofont.layerData'
p2
(dp3
S'b'
(dp4
S'name'
p5
S'hyphen'
p6
sS'lib'
p7
(dp8
sS'unicodes'
p9
(tsS'width'
p10
I834
sS'contours'
p11
(tsS'components'
p12
(tsS'anchors'
p13
(tsss."
LayerCount: 2
Fore
SplineSet
180 487 m 2
 656 487 l 2
 699 487 712 501 712 544 c 2
 712 596 l 2
 712 639 699 653 656 653 c 2
 180 653 l 2
 137 653 121 639 121 596 c 2
 121 544 l 2
 121 501 137 487 180 487 c 2
EndSplineSet
EndChar

StartChar: i
Encoding: 73 105 91
Width: 547
VWidth: 0
Flags: HW
PickledData: "(dp1
S'com.typemytype.robofont.layerData'
p2
(dp3
S'b'
(dp4
S'name'
p5
S'i'
sS'lib'
p6
(dp7
sS'unicodes'
p8
(tsS'width'
p9
I547
sS'contours'
p10
(tsS'components'
p11
(tsS'anchors'
p12
(tsss."
LayerCount: 2
Fore
SplineSet
227 0 m 2
 321 0 l 2
 364 0 388 24 388 67 c 2
 388 939 l 2
 388 982 364 1006 321 1006 c 2
 227 1006 l 2
 184 1006 160 982 160 939 c 2
 160 67 l 2
 160 24 184 0 227 0 c 2
227 1179 m 2
 321 1179 l 2
 364 1179 388 1203 388 1246 c 2
 388 1344 l 2
 388 1387 364 1411 321 1411 c 2
 227 1411 l 2
 184 1411 160 1387 160 1344 c 2
 160 1246 l 2
 160 1203 184 1179 227 1179 c 2
EndSplineSet
EndChar

StartChar: j
Encoding: 74 106 92
Width: 786
VWidth: 0
Flags: HW
PickledData: "(dp1
S'com.typemytype.robofont.layerData'
p2
(dp3
S'b'
(dp4
S'name'
p5
S'j'
sS'lib'
p6
(dp7
sS'unicodes'
p8
(tsS'width'
p9
I787
sS'contours'
p10
((dp11
S'points'
p12
((dp13
S'segmentType'
p14
S'curve'
p15
sS'x'
F393
sS'smooth'
p16
I01
sS'y'
F-455
s(dp17
S'y'
F-455
sS'x'
F303
sg16
I00
s(dp18
S'y'
F-447
sS'x'
F218
sg16
I00
s(dp19
g14
S'curve'
p20
sS'x'
F143
sg16
I01
sS'y'
F-437
s(dp21
S'y'
F-431
sS'x'
F100
sg16
I00
s(dp22
S'y'
F-393
sS'x'
F66
sg16
I00
s(dp23
g14
S'curve'
p24
sS'x'
F66
sg16
I01
sS'y'
F-349
s(dp25
g14
S'line'
p26
sS'x'
F66
sg16
I01
sS'y'
F-195
s(dp27
S'y'
F-154
sS'x'
F66
sg16
I00
s(dp28
S'y'
F-123
sS'x'
F101
sg16
I00
s(dp29
g14
S'curve'
p30
sS'x'
F142
sg16
I01
sS'y'
F-128
s(dp31
S'y'
F-132
sS'x'
F177
sg16
I00
s(dp32
S'y'
F-135
sS'x'
F217
sg16
I00
s(dp33
g14
S'curve'
p34
sS'x'
F258
sg16
I01
sS'y'
F-135
s(dp35
S'y'
F-135
sS'x'
F295
sg16
I00
s(dp36
S'y'
F-133
sS'x'
F332
sg16
I00
s(dp37
g14
S'curve'
p38
sS'x'
F367
sg16
I01
sS'y'
F-125
s(dp39
S'y'
F-117
sS'x'
F401
sg16
I00
s(dp40
S'y'
F-104
sS'x'
F432
sg16
I00
s(dp41
g14
S'curve'
p42
sS'x'
F453
sg16
I00
sS'y'
F-84
s(dp43
S'y'
F-63
sS'x'
F473
sg16
I00
s(dp44
S'y'
F-37
sS'x'
F487
sg16
I00
s(dp45
g14
S'curve'
p46
sS'x'
F487
sg16
I01
sS'y'
F0
s(dp47
g14
S'line'
p48
sS'x'
F487
sg16
I01
sS'y'
F929
s(dp49
S'y'
F972
sS'x'
F487
sg16
I00
s(dp50
S'y'
F1006
sS'x'
F521
sg16
I00
s(dp51
g14
S'curve'
p52
sS'x'
F564
sg16
I01
sS'y'
F1006
s(dp53
g14
S'line'
p54
sS'x'
F1017
sg16
I01
sS'y'
F1006
s(dp55
S'y'
F1006
sS'x'
F1060
sg16
I00
s(dp56
S'y'
F972
sS'x'
F1094
sg16
I00
s(dp57
g14
S'curve'
p58
sS'x'
F1094
sg16
I01
sS'y'
F929
s(dp59
g14
S'line'
p60
sS'x'
F1094
sg16
I01
sS'y'
F12
s(dp61
S'y'
F-35
sS'x'
F1094
sg16
I00
s(dp62
S'y'
F-76
sS'x'
F1087
sg16
I00
s(dp63
g14
S'curve'
p64
sS'x'
F1077
sg16
I00
sS'y'
F-115
s(dp65
S'y'
F-344
sS'x'
F1012
sg16
I00
s(dp66
S'y'
F-430
sS'x'
F768
sg16
I00
s(dp67
g14
S'curve'
p68
sS'x'
F518
sg16
I01
sS'y'
F-451
s(dp69
S'y'
F-455
sS'x'
F477
sg16
I00
s(dp70
S'y'
F-455
sS'x'
F434
sg16
I00
stp71
stp72
sS'components'
p73
(tsS'anchors'
p74
(tsss."
LayerCount: 2
Fore
SplineSet
109 -381 m 2
 200 -381 l 2
 506 -381 624 -259 626 6 c 1
 626 939 l 2
 626 982 602 1006 559 1006 c 2
 465 1006 l 2
 422 1006 398 982 398 939 c 2
 398 91 l 2
 398 -95 402 -205 233 -205 c 2
 109 -205 l 2
 66 -205 50 -223 50 -266 c 2
 50 -314 l 2
 50 -357 66 -381 109 -381 c 2
458 1179 m 2
 552 1179 l 2
 595 1179 619 1203 619 1246 c 2
 619 1344 l 2
 619 1387 595 1411 552 1411 c 2
 458 1411 l 2
 415 1411 391 1387 391 1344 c 2
 391 1246 l 2
 391 1203 415 1179 458 1179 c 2
EndSplineSet
EndChar

StartChar: k
Encoding: 75 107 93
Width: 1707
VWidth: 0
Flags: HW
PickledData: "(dp1
S'com.typemytype.robofont.layerData'
p2
(dp3
S'b'
(dp4
S'name'
p5
S'k'
sS'lib'
p6
(dp7
sS'unicodes'
p8
(tsS'width'
p9
I1706
sS'contours'
p10
(tsS'components'
p11
(tsS'anchors'
p12
(tsss."
AnchorPoint: "top" 778 1010 basechar 0
LayerCount: 2
Fore
SplineSet
227 0 m 2
 321 0 l 2
 364 0 388 24 388 67 c 0
 388 122 388 280 388 288 c 0
 388 299 393 305 401 310 c 0
 404 312 608 429 677 468 c 0
 683 472 688 473 691 473 c 0
 699 473 703 468 707 465 c 2
 1249 67 l 2
 1297 31 1338 0 1381 0 c 2
 1545 0 l 2
 1568 0 1581 9 1581 22 c 0
 1581 34 1570 50 1547 67 c 2
 879 548 l 2
 877 549 872 552 872 556 c 0
 872 559 873 561 878 564 c 2
 1483 939 l 2
 1515 958 1529 976 1529 989 c 0
 1529 999 1519 1006 1499 1006 c 2
 1305 1006 l 2
 1262 1006 1213 975 1155 939 c 2
 401 474 l 2
 399 472 396 472 395 472 c 0
 390 472 388 475 388 481 c 2
 388 1371 l 2
 388 1414 364 1438 321 1438 c 2
 227 1438 l 2
 184 1438 160 1414 160 1371 c 2
 160 67 l 2
 160 24 184 0 227 0 c 2
EndSplineSet
EndChar

StartChar: l
Encoding: 76 108 94
Width: 548
VWidth: 0
Flags: HW
PickledData: "(dp1
S'com.typemytype.robofont.layerData'
p2
(dp3
S'b'
(dp4
S'name'
p5
S'l'
sS'lib'
p6
(dp7
sS'unicodes'
p8
(tsS'width'
p9
I548
sS'contours'
p10
(tsS'components'
p11
(tsS'anchors'
p12
(tsss."
AnchorPoint: "top" 880 1006.9 basechar 0
LayerCount: 2
Fore
SplineSet
227 0 m 2
 321 0 l 2
 364 0 388 24 388 67 c 2
 388 1371 l 2
 388 1414 364 1438 321 1438 c 2
 227 1438 l 2
 184 1438 160 1414 160 1371 c 2
 160 67 l 2
 160 24 184 0 227 0 c 2
EndSplineSet
EndChar

StartChar: less
Encoding: 28 60 95
Width: 1211
VWidth: 0
Flags: W
PickledData: "(dp1
S'com.typemytype.robofont.layerData'
p2
(dp3
S'b'
(dp4
S'name'
p5
S'less'
p6
sS'lib'
p7
(dp8
sS'unicodes'
p9
(tsS'width'
p10
I1210
sS'contours'
p11
(tsS'components'
p12
(tsS'anchors'
p13
(tsss."
LayerCount: 2
Fore
SplineSet
1043 -23 m 0
 1059 -23 1067 -10 1067 15 c 2
 1067 99 l 2
 1067 142 1046 170 1000 193 c 2
 296 538 l 2
 290 541 287 546 287 550 c 0
 287 555 290 560 296 563 c 2
 1000 947 l 2
 1043 971 1067 988 1067 1031 c 2
 1067 1115 l 2
 1067 1143 1057 1157 1038 1157 c 0
 1028 1157 1015 1153 1000 1145 c 2
 188 708 l 1
 148 685 122 651 122 612 c 2
 122 502 l 2
 122 462 144 416 188 396 c 1
 1000 -5 l 2
 1020 -14 1032 -23 1043 -23 c 0
EndSplineSet
EndChar

StartChar: logicalnot
Encoding: 106 172 96
Width: 1255
VWidth: 0
Flags: W
PickledData: "(dp1
S'com.typemytype.robofont.layerData'
p2
(dp3
S'b'
(dp4
S'name'
p5
S'logicalnot'
p6
sS'lib'
p7
(dp8
sS'unicodes'
p9
(tsS'width'
p10
I1254
sS'contours'
p11
(tsS'components'
p12
(tsS'anchors'
p13
(tsss."
LayerCount: 2
Fore
SplineSet
950 238 m 2
 1060 238 l 2
 1103 238 1117 272 1117 315 c 0
 1117 598 1117 531 1117 725 c 0
 1117 768 1083 792 1040 792 c 0
 780 792 446 792 182 792 c 0
 139 792 125 778 125 735 c 2
 125 672 l 2
 125 629 139 615 182 615 c 2
 856 615 l 2
 876 615 893 598 893 578 c 2
 893 315 l 2
 893 272 907 238 950 238 c 2
EndSplineSet
EndChar

StartChar: m
Encoding: 77 109 97
Width: 2535
VWidth: 0
Flags: HW
PickledData: "(dp1
S'com.typemytype.robofont.layerData'
p2
(dp3
S'b'
(dp4
S'name'
p5
S'm'
sS'lib'
p6
(dp7
sS'unicodes'
p8
(tsS'width'
p9
I2534
sS'contours'
p10
(tsS'components'
p11
(tsS'anchors'
p12
(tsss."
AnchorPoint: "top" 1297 1010 basechar 0
LayerCount: 2
Fore
SplineSet
219 0 m 2
 314 0 l 2
 357 0 380 24 380 67 c 2
 380 606 l 2
 380 739 637 900 834 900 c 0
 1020 900 1157 831 1157 606 c 2
 1157 67 l 2
 1157 24 1181 0 1224 0 c 2
 1318 0 l 2
 1361 0 1385 24 1385 67 c 2
 1385 598 l 1
 1386 599 1387 602 1387 606 c 0
 1387 739 1628 901 1825 901 c 0
 2011 901 2164 831 2164 606 c 2
 2164 67 l 2
 2164 24 2188 0 2231 0 c 2
 2325 0 l 2
 2368 0 2392 24 2392 67 c 2
 2392 552 l 2
 2392 888 2180 1052 1868 1052 c 0
 1678 1052 1487 990 1362 826 c 0
 1348 808 1345 801 1337 801 c 0
 1325 801 1323 812 1318 822 c 0
 1239 982 1091 1052 877 1052 c 0
 687 1052 501 987 371 826 c 0
 365 819 359 811 351 811 c 0
 343 811 341 816 336 824 c 1
 309 942 l 2
 298 992 276 1006 229 1006 c 2
 209 1006 l 2
 166 1006 152 972 152 929 c 2
 152 67 l 2
 152 24 176 0 219 0 c 2
EndSplineSet
EndChar

StartChar: macron
Encoding: 109 175 98
Width: 1052
VWidth: 0
Flags: W
PickledData: "(dp1
S'com.typemytype.robofont.layerData'
p2
(dp3
S'b'
(dp4
S'name'
p5
S'macron'
p6
sS'lib'
p7
(dp8
sS'unicodes'
p9
(tsS'width'
p10
I1052
sS'contours'
p11
(tsS'components'
p12
(tsS'anchors'
p13
(tsss."
LayerCount: 2
Fore
SplineSet
185 722 m 2
 871 722 l 2
 914 722 928 746 928 789 c 2
 928 833 l 2
 928 876 914 900 871 900 c 2
 185 900 l 2
 142 900 128 876 128 833 c 2
 128 789 l 2
 128 746 142 722 185 722 c 2
EndSplineSet
EndChar

StartChar: minus
Encoding: 413 8722 99
Width: 1278
VWidth: 0
Flags: W
PickledData: "(dp1
S'com.typemytype.robofont.layerData'
p2
(dp3
S'b'
(dp4
S'name'
p5
S'minus'
p6
sS'lib'
p7
(dp8
sS'unicodes'
p9
(tsS'width'
p10
I1293
sS'contours'
p11
(tsS'components'
p12
(tsS'anchors'
p13
(tsss."
LayerCount: 2
Fore
SplineSet
194 598 m 0
 812 598 869 598 1084 598 c 0
 1127 598 1151 623 1151 665 c 0
 1151 678 1151 710 1151 715 c 0
 1151 758 1127 782 1084 782 c 0
 824 782 458 782 194 782 c 0
 151 782 127 758 127 715 c 2
 127 665 l 2
 127 622 151 598 194 598 c 0
EndSplineSet
EndChar

StartChar: multiply
Encoding: 149 215 100
Width: 1118
VWidth: 0
Flags: W
PickledData: "(dp1
S'com.typemytype.robofont.layerData'
p2
(dp3
S'b'
(dp4
S'name'
p5
S'multiply'
p6
sS'lib'
p7
(dp8
sS'unicodes'
p9
(tsS'width'
p10
I1117
sS'contours'
p11
(tsS'components'
p12
(tsS'anchors'
p13
(tsss."
LayerCount: 2
Fore
SplineSet
265 257 m 0
 285 257 302 262 320 280 c 0
 337 298 442 406 561 529 c 1
 692 402 805 293 811 288 c 0
 827 272 845 265 864 265 c 0
 885 265 904 273 919 288 c 2
 959 326 l 2
 974 341 981 360 981 380 c 0
 981 400 978 416 958 435 c 0
 950 443 838 554 709 681 c 1
 835 812 945 926 950 931 c 0
 966 948 973 966 973 985 c 0
 973 1005 965 1025 950 1040 c 2
 912 1079 l 2
 897 1095 878 1102 858 1102 c 0
 838 1102 822 1098 803 1079 c 0
 795 1071 685 959 558 830 c 1
 430 957 319 1066 314 1071 c 0
 298 1088 281 1093 260 1093 c 0
 241 1093 221 1086 205 1071 c 2
 159 1027 l 2
 144 1012 136 992 136 973 c 0
 136 953 141 936 159 918 c 0
 177 901 285 797 407 678 c 1
 281 551 172 440 167 435 c 0
 150 418 145 401 145 381 c 0
 145 361 152 342 167 326 c 2
 211 280 l 2
 226 265 246 257 265 257 c 0
EndSplineSet
EndChar

StartChar: n
Encoding: 78 110 101
Width: 1543
VWidth: 0
Flags: HW
PickledData: "(dp1
S'com.typemytype.robofont.layerData'
p2
(dp3
S'b'
(dp4
S'name'
p5
S'n'
sS'lib'
p6
(dp7
sS'unicodes'
p8
(tsS'width'
p9
I1542
sS'contours'
p10
(tsS'components'
p11
(tsS'anchors'
p12
(tsss."
AnchorPoint: "top" 833 1010 basechar 0
LayerCount: 2
Fore
SplineSet
219 0 m 2
 314 0 l 2
 357 0 380 24 380 67 c 2
 380 606 l 2
 380 739 637 901 834 901 c 0
 1020 901 1172 831 1172 606 c 2
 1172 67 l 2
 1172 24 1196 0 1239 0 c 2
 1333 0 l 2
 1376 0 1400 24 1400 67 c 2
 1400 552 l 2
 1400 888 1189 1052 877 1052 c 0
 687 1052 501 987 371 826 c 0
 365 819 359 811 351 811 c 0
 343 811 341 816 336 824 c 1
 309 942 l 2
 298 992 276 1006 229 1006 c 2
 209 1006 l 2
 166 1006 152 972 152 929 c 2
 152 67 l 2
 152 24 176 0 219 0 c 2
EndSplineSet
EndChar

StartChar: nine
Encoding: 25 57 102
Width: 1872
VWidth: 0
Flags: W
PickledData: "(dp1
S'com.typemytype.robofont.guides'
p2
(tsS'com.typemytype.robofont.layerData'
p3
(dp4
S'b'
(dp5
S'name'
p6
S'nine'
p7
sS'lib'
p8
(dp9
sS'unicodes'
p10
(tsS'width'
p11
I1871
sS'contours'
p12
((dp13
S'points'
p14
((dp15
S'segmentType'
p16
S'curve'
p17
sS'x'
F833
sS'smooth'
p18
I00
sS'y'
F670
s(dp19
S'y'
F574
sS'x'
F1699
sg18
I00
s(dp20
S'y'
F599
sS'x'
F1694
sg18
I00
s(dp21
g16
S'curve'
p22
sS'x'
F1694
sg18
I01
sS'y'
F402
s(dp23
S'y'
F160
sS'x'
F1694
sg18
I00
s(dp24
S'y'
F134
sS'x'
F1551
sg18
I00
s(dp25
g16
S'curve'
p26
sS'x'
F1183
sg18
I01
sS'y'
F134
s(dp27
S'y'
F134
sS'x'
F851
sg18
I00
s(dp28
S'y'
F136
sS'x'
F671
sg18
I00
s(dp29
g16
S'curve'
p30
sS'x'
F671
sg18
I01
sS'y'
F406
s(dp31
S'y'
F544
sS'x'
F671
sg18
I00
s(dp32
S'y'
F619
sS'x'
F771
sg18
I00
stp33
s(dp34
g14
((dp35
g16
S'curve'
p36
sS'x'
F1183
sg18
I01
sS'y'
F1296
s(dp37
S'y'
F1296
sS'x'
F1570
sg18
I00
s(dp38
S'y'
F1296
sS'x'
F1774
sg18
I00
s(dp39
g16
S'curve'
p40
sS'x'
F1774
sg18
I01
sS'y'
F1028
s(dp41
S'y'
F933
sS'x'
F1774
sg18
I00
s(dp42
S'y'
F818
sS'x'
F1718
sg18
I00
s(dp43
g16
S'curve'
p44
sS'x'
F1586
sg18
I00
sS'y'
F744
s(dp45
S'y'
F843
sS'x'
F792
sg18
I00
s(dp46
S'y'
F797
sS'x'
F591
sg18
I00
s(dp47
g16
S'curve'
p48
sS'x'
F591
sg18
I01
sS'y'
F1028
s(dp49
S'y'
F1296
sS'x'
F591
sg18
I00
s(dp50
S'y'
F1296
sS'x'
F793
sg18
I00
stp51
s(dp52
g14
((dp53
g16
S'curve'
p54
sS'x'
F1183
sg18
I01
sS'y'
F1472
s(dp55
S'y'
F1472
sS'x'
F722
sg18
I00
s(dp56
S'y'
F1466
sS'x'
F362
sg18
I00
s(dp57
g16
S'curve'
p58
sS'x'
F362
sg18
I01
sS'y'
F1044
s(dp59
S'y'
F886
sS'x'
F362
sg18
I00
s(dp60
S'y'
F768
sS'x'
F501
sg18
I00
s(dp61
g16
S'curve'
p62
sS'x'
F667
sg18
I00
sS'y'
F732
s(dp63
S'y'
F694
sS'x'
F559
sg18
I00
s(dp64
S'y'
F552
sS'x'
F462
sg18
I00
s(dp65
g16
S'curve'
p66
sS'x'
F462
sg18
I01
sS'y'
F402
s(dp67
S'y'
F20
sS'x'
F462
sg18
I00
s(dp68
S'y'
F-42
sS'x'
F722
sg18
I00
s(dp69
g16
S'curve'
p70
sS'x'
F1183
sg18
I01
sS'y'
F-42
s(dp71
S'y'
F-42
sS'x'
F1641
sg18
I00
s(dp72
S'y'
F33
sS'x'
F1923
sg18
I00
s(dp73
g16
S'curve'
p74
sS'x'
F1923
sg18
I01
sS'y'
F372
s(dp75
S'y'
F522
sS'x'
F1923
sg18
I00
s(dp76
S'y'
F636
sS'x'
F1821
sg18
I00
s(dp77
g16
S'curve'
p78
sS'x'
F1745
sg18
I00
sS'y'
F679
s(dp79
S'y'
F736
sS'x'
F1868
sg18
I00
s(dp80
S'y'
F870
sS'x'
F2003
sg18
I00
s(dp81
g16
S'curve'
p82
sS'x'
F2003
sg18
I01
sS'y'
F1028
s(dp83
S'y'
F1473
sS'x'
F2003
sg18
I00
s(dp84
S'y'
F1472
sS'x'
F1641
sg18
I00
stp85
stp86
sS'components'
p87
(tsS'anchors'
p88
(tsss."
LayerCount: 2
Fore
SplineSet
882 -42 m 0
 1451 -42 1732 135 1732 694 c 0
 1732 1138 1604 1472 952 1472 c 0
 491 1472 131 1369 131 1004 c 0
 131 747 294 534 903 534 c 0
 1066 534 1261 549 1494 583 c 1
 1494 520 l 2
 1494 278 1332 135 903 135 c 0
 729 135 456 185 370 224 c 0
 365 226 360 227 354 227 c 0
 340 227 325 219 319 201 c 2
 288 106 l 2
 286 101 286 96 286 91 c 0
 286 73 297 60 314 53 c 0
 434 5 700 -42 882 -42 c 0
910 695 m 0
 462 695 360 824 360 996 c 0
 360 1240 562 1296 952 1296 c 0
 1339 1296 1503 1143 1503 875 c 2
 1503 744 l 1
 1258 710 1063 695 910 695 c 0
EndSplineSet
EndChar

StartChar: numbersign
Encoding: 3 35 103
Width: 1712
VWidth: 0
Flags: W
PickledData: "(dp1
S'com.typemytype.robofont.guides'
p2
(tsS'com.typemytype.robofont.layerData'
p3
(dp4
S'b'
(dp5
S'name'
p6
S'numbersign'
p7
sS'lib'
p8
(dp9
sS'unicodes'
p10
(tsS'width'
p11
I1712
sS'contours'
p12
(tsS'components'
p13
(tsS'anchors'
p14
(tsss."
LayerCount: 2
Fore
SplineSet
240 -205 m 2
 345 -205 l 2
 367 -205 387 -191 395 -170 c 1
 532 417 l 1
 1008 417 l 1
 871 -170 l 1
 865 -187 877 -205 895 -205 c 2
 1000 -205 l 2
 1022 -205 1042 -191 1050 -170 c 1
 1187 417 l 1
 1436 417 l 2
 1479 417 1503 431 1503 474 c 2
 1503 530 l 2
 1503 573 1479 587 1436 587 c 2
 1227 587 l 1
 1285 834 l 1
 1511 834 l 2
 1554 834 1578 848 1578 891 c 2
 1578 949 l 2
 1578 992 1554 1006 1511 1006 c 2
 1325 1006 l 1
 1467 1612 l 1
 1473 1629 1461 1647 1443 1647 c 2
 1338 1647 l 2
 1316 1647 1296 1633 1288 1612 c 1
 1146 1006 l 1
 670 1006 l 1
 812 1612 l 1
 818 1629 806 1647 788 1647 c 2
 683 1647 l 2
 661 1647 641 1633 633 1612 c 1
 491 1006 l 1
 276 1006 l 2
 233 1006 209 992 209 949 c 2
 209 891 l 2
 209 848 233 834 276 834 c 2
 451 834 l 1
 393 587 l 1
 201 587 l 2
 158 587 134 573 134 530 c 2
 134 474 l 2
 134 431 158 417 201 417 c 2
 353 417 l 1
 216 -170 l 1
 210 -187 222 -205 240 -205 c 2
572 587 m 1
 630 834 l 1
 1106 834 l 1
 1048 587 l 1
 572 587 l 1
EndSplineSet
EndChar

StartChar: o
Encoding: 79 111 104
Width: 1649
VWidth: 0
Flags: HW
PickledData: "(dp1
S'com.typemytype.robofont.guides'
p2
(tsS'com.typemytype.robofont.layerData'
p3
(dp4
S'b'
(dp5
S'name'
p6
S'o'
sS'lib'
p7
(dp8
sS'unicodes'
p9
(tsS'width'
p10
I1649
sS'contours'
p11
(tsS'components'
p12
(tsS'anchors'
p13
(tsss."
AnchorPoint: "bot" 849.5 -1.09998 basechar 0
AnchorPoint: "top" 829 1010 basechar 0
LayerCount: 2
Fore
SplineSet
826 111 m 0
 568 111 356 246 357 504 c 1
 356 786 584 900 826 900 c 0
 1064 900 1292 788 1292 504 c 0
 1292 243 1080 111 826 111 c 0
827 -41 m 0
 1121 -41 1521 107 1521 504 c 0
 1521 912 1151 1052 827 1052 c 0
 498 1052 128 912 128 504 c 0
 128 106 528 -41 827 -41 c 0
EndSplineSet
EndChar

StartChar: ogonek
Encoding: 366 731 105
Width: 716
VWidth: 0
Flags: HW
PickledData: "(dp1
S'com.typemytype.robofont.layerData'
p2
(dp3
S'b'
(dp4
S'name'
p5
S'ogonek'
p6
sS'lib'
p7
(dp8
sS'unicodes'
p9
(tsS'width'
p10
I716
sS'contours'
p11
(tsS'components'
p12
(tsS'anchors'
p13
(tsss."
AnchorPoint: "bot" 348.5 3.05176e-05 mark 0
LayerCount: 2
Fore
SplineSet
413 -371 m 0
 433 -371 460 -371 479 -371 c 0
 492 -371 495 -364 495 -354 c 0
 495 -340 495 -293 495 -283 c 0
 495 -272 479 -273 479 -273 c 1
 468 -273 471 -273 460 -273 c 0
 371 -273 359 -196 359 -120 c 0
 359 -31 385 0 432 0 c 1
 429 34 l 1
 290.60311284 34 182 -26.3400809717 182 -182 c 0
 182 -269.778242678 255 -371 413 -371 c 0
EndSplineSet
EndChar

StartChar: one
Encoding: 17 49 106
Width: 855
VWidth: 0
Flags: W
PickledData: "(dp1
S'com.typemytype.robofont.layerData'
p2
(dp3
S'b'
(dp4
S'name'
p5
S'one'
p6
sS'lib'
p7
(dp8
sS'unicodes'
p9
(tsS'width'
p10
I855
sS'contours'
p11
(tsS'components'
p12
(tsS'anchors'
p13
(tsss."
LayerCount: 2
Fore
SplineSet
534 0 m 2
 628 0 l 2
 671 0 695 24 695 67 c 2
 695 1371 l 2
 695 1414 671 1438 628 1438 c 1
 157 1388 l 1
 114 1388 90 1364 90 1321 c 2
 90 1286 l 2
 90 1243 114 1219 157 1219 c 1
 430 1249 l 1
 450 1249 467 1232 467 1212 c 2
 467 67 l 2
 467 24 491 0 534 0 c 2
EndSplineSet
EndChar

StartChar: oslash
Encoding: 182 248 111
Width: 1650
VWidth: 0
Flags: W
PickledData: "(dp1
S'com.typemytype.robofont.layerData'
p2
(dp3
S'b'
(dp4
S'name'
p5
S'oslash'
p6
sS'lib'
p7
(dp8
sS'unicodes'
p9
(tsS'width'
p10
I1649
sS'contours'
p11
(tsS'components'
p12
(tsS'anchors'
p13
(tsss."
LayerCount: 2
Fore
SplineSet
494 -200 m 2
 571 -202 l 2
 589 -202 608 -189 616 -169 c 2
 674 -29 l 1
 727 -37 779 -41 828 -41 c 0
 1122 -41 1522 107 1522 504 c 0
 1522 796 1332 951 1106 1015 c 1
 1167 1164 l 2
 1173 1179 1164 1197 1150 1197 c 2
 1073 1197 l 2
 1054 1197 1037 1184 1029 1164 c 2
 978 1042 l 1
 928 1049 878 1052 828 1052 c 0
 499 1052 129 912 129 504 c 0
 129 225 326 69 547 1 c 1
 477 -167 l 2
 470 -182 479 -200 494 -200 c 2
917 894 m 1
 608 149 l 1
 459 205 357 325 358 504 c 1
 357 786 585 900 827 900 c 0
 857 900 888 898 917 894 c 1
827 111 m 0
 795 111 764 113 734 117 c 1
 1043 864 l 1
 1187 812 1293 698 1293 504 c 0
 1293 243 1081 111 827 111 c 0
EndSplineSet
EndChar

StartChar: p
Encoding: 80 112 112
Width: 1674
VWidth: 0
Flags: HW
PickledData: "(dp1
S'com.typemytype.robofont.layerData'
p2
(dp3
S'b'
(dp4
S'name'
p5
S'p'
sS'lib'
p6
(dp7
sS'unicodes'
p8
(tsS'width'
p9
I1673
sS'contours'
p10
(tsS'components'
p11
(tsS'anchors'
p12
(tsss."
AnchorPoint: "top" 880 1006.9 basechar 0
LayerCount: 2
Fore
SplineSet
220 -427 m 2
 314 -427 l 2
 357 -427 381 -403 381 -360 c 2
 381 147 l 2
 381 153 383 155 385 155 c 0
 387 155 390 153 392 150 c 0
 500 21 670 -42 867 -42 c 0
 1191 -42 1545 99 1545 507 c 0
 1545 904 1179 1052 885 1052 c 0
 686 1052 468 968 351 806 c 0
 347 802 343 800 341 800 c 0
 336 800 333 805 331 811 c 0
 320 844 310 879 298 917 c 0
 275 990 251 1011 220 1011 c 2
 206 1011 l 2
 163 1011 153 987 153 944 c 2
 153 -360 l 2
 153 -403 177 -427 220 -427 c 2
850 110 m 0
 608 110 380 225 381 507 c 1
 380 765 592 900 850 900 c 0
 1104 900 1316 768 1316 507 c 0
 1316 223 1088 110 850 110 c 0
EndSplineSet
EndChar

StartChar: paragraph
Encoding: 116 182 113
Width: 1270
VWidth: 0
Flags: W
PickledData: "(dp1
S'com.typemytype.robofont.layerData'
p2
(dp3
S'b'
(dp4
S'name'
p5
S'paragraph'
p6
sS'lib'
p7
(dp8
sS'unicodes'
p9
(tsS'width'
p10
I1269
sS'contours'
p11
((dp12
S'points'
p13
((dp14
S'segmentType'
p15
S'curve'
p16
sS'x'
F1503
sS'smooth'
p17
I01
sS'y'
F0
s(dp18
g15
S'line'
p19
sS'x'
F1597
sg17
I01
sS'y'
F0
s(dp20
S'y'
F0
sS'x'
F1640
sg17
I00
s(dp21
S'y'
F24
sS'x'
F1664
sg17
I00
s(dp22
g15
S'curve'
p23
sS'x'
F1664
sg17
I01
sS'y'
F67
s(dp24
g15
S'line'
p25
sS'x'
F1664
sg17
I01
sS'y'
F939
s(dp26
S'y'
F982
sS'x'
F1664
sg17
I00
s(dp27
S'y'
F1006
sS'x'
F1640
sg17
I00
s(dp28
g15
S'curve'
p29
sS'x'
F1597
sg17
I01
sS'y'
F1006
s(dp30
g15
S'line'
p31
sS'x'
F1503
sg17
I01
sS'y'
F1006
s(dp32
S'y'
F1006
sS'x'
F1460
sg17
I00
s(dp33
S'y'
F982
sS'x'
F1436
sg17
I00
s(dp34
g15
S'curve'
p35
sS'x'
F1436
sg17
I01
sS'y'
F939
s(dp36
g15
S'line'
p37
sS'x'
F1436
sg17
I01
sS'y'
F67
s(dp38
S'y'
F24
sS'x'
F1436
sg17
I00
s(dp39
S'y'
F0
sS'x'
F1460
sg17
I00
stp40
stp41
sS'components'
p42
(tsS'anchors'
p43
(tsss."
LayerCount: 2
Fore
SplineSet
592 -1 m 2
 670 -1 l 2
 713 -1 727 33 727 76 c 2
 727 826 l 1
 900 826 l 2
 910 826 919 817 919 805 c 2
 919 76 l 2
 919 33 933 -1 976 -1 c 2
 1054 -1 l 2
 1097 -1 1111 33 1111 76 c 2
 1111 1338 l 2
 1111 1381 1088 1409 1045 1416 c 0
 980 1426 862 1438 617 1438 c 0
 246 1438 119 1330 119 1133 c 0
 119 929 246 826 515 826 c 2
 535 826 l 1
 535 76 l 2
 535 33 549 -1 592 -1 c 2
EndSplineSet
EndChar

StartChar: parenleft
Encoding: 8 40 114
Width: 844
VWidth: 0
Flags: W
PickledData: "(dp1
S'com.typemytype.robofont.layerData'
p2
(dp3
S'b'
(dp4
S'name'
p5
S'parenleft'
p6
sS'lib'
p7
(dp8
sS'unicodes'
p9
(tsS'width'
p10
I844
sS'contours'
p11
(tsS'components'
p12
(tsS'anchors'
p13
(tsss."
LayerCount: 2
Fore
SplineSet
653 -143 m 0
 692 -154 730 -111 730 -73 c 2
 730 -55 l 2
 730 14 682 9 625 46 c 0
 452 158 366 296 366 699 c 0
 366 1092 481 1268 625 1350 c 0
 687 1385 730 1381 730 1450 c 2
 730 1470 l 2
 730 1508 692 1551 653 1540 c 0
 296 1439 140 1100 140 699 c 0
 140 299 276 -32 653 -143 c 0
EndSplineSet
EndChar

StartChar: parenright
Encoding: 9 41 115
Width: 845
VWidth: 0
Flags: W
PickledData: "(dp1
S'com.typemytype.robofont.layerData'
p2
(dp3
S'b'
(dp4
S'name'
p5
S'parenright'
p6
sS'lib'
p7
(dp8
sS'unicodes'
p9
(tsS'width'
p10
I847
sS'contours'
p11
(tsS'components'
p12
(tsS'anchors'
p13
(tsss."
LayerCount: 2
Fore
SplineSet
190 -143 m 0
 587 -63 703 297 703 698 c 0
 703 1098 587 1459 190 1540 c 0
 151 1548 113 1508 113 1470 c 2
 113 1452 l 2
 113 1383 156 1382 218 1351 c 0
 350 1285 477 1161 477 698 c 0
 477 235 351 113 218 47 c 0
 156 16 113 16 113 -53 c 2
 113 -73 l 2
 113 -111 151 -151 190 -143 c 0
EndSplineSet
EndChar

StartChar: percent
Encoding: 5 37 116
Width: 2644
VWidth: 0
Flags: W
PickledData: "(dp1
S'com.typemytype.robofont.layerData'
p2
(dp3
S'b'
(dp4
S'name'
p5
S'percent'
p6
sS'lib'
p7
(dp8
sS'unicodes'
p9
(tsS'width'
p10
I2643
sS'contours'
p11
(tsS'components'
p12
(tsS'anchors'
p13
(tsss."
LayerCount: 2
Fore
SplineSet
950 -82 m 2
 982 -82 l 2
 1028 -82 1071 -54 1090 -12 c 2
 1744 1466 l 2
 1759 1499 1735 1536 1698 1536 c 2
 1667 1536 l 2
 1621 1536 1577 1508 1559 1466 c 2
 904 -12 l 2
 889 -45 913 -82 950 -82 c 2
576 761 m 0
 410 761 308 875 308 1059 c 0
 308 1247 405 1357 576 1357 c 0
 756 1357 844 1247 844 1059 c 0
 844 875 751 761 576 761 c 0
576 621 m 0
 873 621 1024 818 1024 1056 c 0
 1024 1292 877 1497 576 1497 c 0
 275 1497 127 1292 127 1056 c 0
 127 818 279 621 576 621 c 0
2067 141 m 0
 1901 141 1799 255 1799 439 c 0
 1799 627 1896 737 2067 737 c 0
 2247 737 2335 627 2335 439 c 0
 2335 255 2242 141 2067 141 c 0
2067 1 m 0
 2364 1 2515 198 2515 436 c 0
 2515 672 2368 877 2067 877 c 0
 1766 877 1618 672 1618 436 c 0
 1618 198 1770 1 2067 1 c 0
EndSplineSet
EndChar

StartChar: period
Encoding: 14 46 117
Width: 545
VWidth: 0
Flags: W
PickledData: "(dp1
S'com.typemytype.robofont.layerData'
p2
(dp3
S'b'
(dp4
S'name'
p5
S'period'
p6
sS'lib'
p7
(dp8
sS'unicodes'
p9
(tsS'width'
p10
I546
sS'contours'
p11
(tsS'components'
p12
(tsS'anchors'
p13
(tsss."
LayerCount: 2
Fore
SplineSet
204 0 m 2
 341 0 l 2
 384 0 418 34 418 77 c 2
 418 221 l 2
 418 264 384 298 341 298 c 2
 204 298 l 2
 161 298 127 264 127 221 c 2
 127 77 l 2
 127 34 161 0 204 0 c 2
EndSplineSet
EndChar

StartChar: periodcentered
Encoding: 117 183 118
Width: 545
VWidth: 0
Flags: HW
PickledData: "(dp1
S'com.typemytype.robofont.layerData'
p2
(dp3
S'b'
(dp4
S'name'
p5
S'periodcentered'
p6
sS'lib'
p7
(dp8
sS'unicodes'
p9
(tsS'width'
p10
I546
sS'contours'
p11
(tsS'components'
p12
(tsS'anchors'
p13
(tsss."
LayerCount: 2
Fore
SplineSet
204 0 m 2
 341 0 l 2
 384 0 418 34 418 77 c 2
 418 221 l 2
 418 264 384 298 341 298 c 2
 204 298 l 2
 161 298 127 264 127 221 c 2
 127 77 l 2
 127 34 161 0 204 0 c 2
EndSplineSet
EndChar

StartChar: plus
Encoding: 11 43 119
Width: 1203
VWidth: 0
Flags: W
PickledData: "(dp1
S'com.typemytype.robofont.layerData'
p2
(dp3
S'b'
(dp4
S'name'
p5
S'plus'
p6
sS'lib'
p7
(dp8
sS'unicodes'
p9
(tsS'width'
p10
I1202
sS'contours'
p11
(tsS'components'
p12
(tsS'anchors'
p13
(tsss."
LayerCount: 2
Fore
SplineSet
562 20 m 2
 640 20 l 2
 683 20 697 44 697 87 c 2
 697 410 l 2
 697 430 704 447 724 447 c 2
 1024 447 l 2
 1067 447 1081 461 1081 504 c 2
 1081 585 l 2
 1081 628 1067 642 1024 642 c 2
 724 642 l 2
 704 642 697 658 697 678 c 2
 697 1012 l 2
 697 1055 683 1079 640 1079 c 2
 562 1079 l 2
 519 1079 505 1055 505 1012 c 2
 505 678 l 2
 505 658 498 642 478 642 c 2
 178 642 l 2
 135 642 121 628 121 585 c 2
 121 504 l 2
 121 461 135 447 178 447 c 2
 478 447 l 2
 498 447 505 430 505 410 c 2
 505 87 l 2
 505 44 519 20 562 20 c 2
EndSplineSet
EndChar

StartChar: q
Encoding: 81 113 121
Width: 1674
VWidth: 0
Flags: W
PickledData: "(dp1
S'com.typemytype.robofont.layerData'
p2
(dp3
S'b'
(dp4
S'name'
p5
S'q'
sS'lib'
p6
(dp7
sS'unicodes'
p8
(tsS'width'
p9
I1673
sS'contours'
p10
(tsS'components'
p11
(tsS'anchors'
p12
(tsss."
LayerCount: 2
Fore
SplineSet
1361 -427 m 2
 1455 -427 l 2
 1498 -427 1522 -403 1522 -360 c 2
 1522 944 l 2
 1522 987 1512 1011 1469 1011 c 2
 1455 1011 l 2
 1426 1011 1402 992 1382 927 c 0
 1370 888 1352 843 1339 808 c 0
 1337 802 1334 800 1332 800 c 0
 1329 800 1327 802 1325 805 c 0
 1208 968 990 1052 790 1052 c 0
 496 1052 130 904 130 507 c 0
 130 99 484 -42 808 -42 c 0
 1004 -42 1172 22 1282 148 c 0
 1283 149 1287 154 1290 154 c 0
 1292 154 1294 152 1294 145 c 2
 1294 -360 l 2
 1294 -403 1318 -427 1361 -427 c 2
825 110 m 0
 587 110 359 223 359 507 c 0
 359 768 571 900 825 900 c 0
 1083 900 1295 765 1294 507 c 1
 1295 225 1067 110 825 110 c 0
EndSplineSet
EndChar

StartChar: question
Encoding: 31 63 122
Width: 1746
VWidth: 0
Flags: W
PickledData: "(dp1
S'com.typemytype.robofont.layerData'
p2
(dp3
S'b'
(dp4
S'name'
p5
S'question'
p6
sS'lib'
p7
(dp8
sS'unicodes'
p9
(tsS'width'
p10
I1745
sS'contours'
p11
((dp12
S'points'
p13
((dp14
S'segmentType'
p15
S'curve'
p16
sS'x'
F849
sS'smooth'
p17
I01
sS'y'
F-41
s(dp18
S'y'
F-41
sS'x'
F1310
sg17
I00
s(dp19
S'y'
F105
sS'x'
F1809
sg17
I00
s(dp20
g15
S'curve'
p21
sS'x'
F1809
sg17
I01
sS'y'
F724
s(dp22
S'y'
F1296
sS'x'
F1809
sg17
I00
s(dp23
S'y'
F1475
sS'x'
F1310
sg17
I00
s(dp24
g15
S'curve'
p25
sS'x'
F849
sg17
I01
sS'y'
F1475
s(dp26
S'y'
F1475
sS'x'
F391
sg17
I00
s(dp27
S'y'
F1296
sS'x'
F-111
sg17
I00
s(dp28
g15
S'curve'
p29
sS'x'
F-111
sg17
I01
sS'y'
F724
s(dp30
S'y'
F105
sS'x'
F-111
sg17
I00
s(dp31
S'y'
F-41
sS'x'
F391
sg17
I00
stp32
s(dp33
g13
((dp34
g15
S'curve'
p35
sS'x'
F849
sg17
I01
sS'y'
F127
s(dp36
S'y'
F127
sS'x'
F462
sg17
I00
s(dp37
S'y'
F234
sS'x'
F118
sg17
I00
s(dp38
g15
S'curve'
p39
sS'x'
F118
sg17
I01
sS'y'
F724
s(dp40
S'y'
F1142
sS'x'
F118
sg17
I00
s(dp41
S'y'
F1307
sS'x'
F449
sg17
I00
s(dp42
g15
S'curve'
p43
sS'x'
F849
sg17
I01
sS'y'
F1307
s(dp44
S'y'
F1307
sS'x'
F1252
sg17
I00
s(dp45
S'y'
F1142
sS'x'
F1580
sg17
I00
s(dp46
g15
S'curve'
p47
sS'x'
F1580
sg17
I01
sS'y'
F724
s(dp48
S'y'
F234
sS'x'
F1580
sg17
I00
s(dp49
S'y'
F127
sS'x'
F1239
sg17
I00
stp50
stp51
sS'components'
p52
(tsS'anchors'
p53
(tsss."
LayerCount: 2
Fore
SplineSet
621 529 m 1
 621 529 607 508 628 492 c 0
 644 480 673 461 693 447 c 0
 717 430 732 453 732 453 c 1
 743 469 824 633 989 654 c 0
 1181 678 1617 685 1617 1031 c 0
 1617 1382 1293 1475 810 1475 c 0
 549 1475 263 1408 149 1367 c 0
 110 1353 88 1323 102 1291 c 2
 126 1236 l 1
 141 1198 162 1186 208 1200 c 0
 405 1262 598 1307 879 1307 c 0
 1271 1307 1429 1210 1429 1047 c 0
 1429 896 1361 824 1039 797 c 0
 834 780 723 717 621 529 c 1
624 0 m 2
 794 0 l 2
 837 0 851 14 851 57 c 2
 851 184 l 2
 851 227 837 241 794 241 c 2
 624 241 l 2
 581 241 567 227 567 184 c 2
 567 57 l 2
 567 14 581 0 624 0 c 2
EndSplineSet
EndChar

StartChar: quotedbl
Encoding: 2 34 123
Width: 840
VWidth: 0
Flags: W
PickledData: "(dp1
S'com.typemytype.robofont.layerData'
p2
(dp3
S'b'
(dp4
S'name'
p5
S'quotedbl'
p6
sS'lib'
p7
(dp8
sS'unicodes'
p9
(tsS'width'
p10
I840
sS'contours'
p11
(tsS'components'
p12
(tsS'anchors'
p13
(tsss."
LayerCount: 2
Fore
SplineSet
247 772 m 2
 252 772 l 2
 295 772 294 796 299 839 c 2
 360 1350 l 2
 365 1393 336 1438 293 1438 c 2
 199 1438 l 2
 156 1438 126 1394 132 1351 c 2
 200 839 l 2
 206 796 204 772 247 772 c 2
591 772 m 2
 596 772 l 2
 639 772 638 796 643 839 c 2
 704 1350 l 2
 709 1393 680 1438 637 1438 c 2
 543 1438 l 2
 500 1438 470 1394 476 1351 c 2
 544 839 l 2
 550 796 548 772 591 772 c 2
EndSplineSet
EndChar

StartChar: quoteleft
Encoding: 397 8216 124
Width: 605
VWidth: 0
Flags: W
PickledData: "(dp1
S'com.typemytype.robofont.layerData'
p2
(dp3
S'b'
(dp4
S'name'
p5
S'quoteleft'
p6
sS'lib'
p7
(dp8
sS'unicodes'
p9
(tsS'width'
p10
I604
sS'contours'
p11
(tsS'components'
p12
(tsS'anchors'
p13
(tsss."
LayerCount: 2
Fore
SplineSet
208 911 m 2
 406 911 l 2
 449 911 466 932 466 975 c 2
 466 1178 l 2
 466 1216 444 1228 406 1228 c 2
 321 1228 l 2
 306 1228 304 1239 304 1255 c 0
 304 1279 336 1356 405 1399 c 0
 448 1426 466 1420 466 1474 c 2
 466 1484 l 2
 466 1520 435 1535 400 1529 c 0
 262 1506 131 1370 131 1133 c 2
 131 988 l 2
 131 945 165 911 208 911 c 2
EndSplineSet
EndChar

StartChar: quoteright
Encoding: 398 8217 125
Width: 588
VWidth: 0
Flags: W
PickledData: "(dp1
S'com.typemytype.robofont.layerData'
p2
(dp3
S'b'
(dp4
S'name'
p5
S'quoteright'
p6
sS'lib'
p7
(dp8
sS'unicodes'
p9
(tsS'width'
p10
I586
sS'contours'
p11
(tsS'components'
p12
(tsS'anchors'
p13
(tsss."
LayerCount: 2
Fore
SplineSet
203 917 m 0
 341 940 472 1076 472 1313 c 2
 472 1458 l 2
 472 1501 438 1535 395 1535 c 2
 197 1535 l 2
 154 1535 137 1514 137 1471 c 2
 137 1268 l 2
 137 1230 159 1218 197 1218 c 2
 282 1218 l 2
 297 1218 299 1207 299 1191 c 0
 299 1167 267 1090 198 1047 c 0
 155 1020 137 1026 137 972 c 2
 137 962 l 2
 137 926 168 911 203 917 c 0
EndSplineSet
EndChar

StartChar: r
Encoding: 82 114 126
Width: 1033
VWidth: 0
Flags: HW
PickledData: "(dp1
S'com.typemytype.robofont.layerData'
p2
(dp3
S'b'
(dp4
S'name'
p5
S'r'
sS'lib'
p6
(dp7
sS'unicodes'
p8
(tsS'width'
p9
I1032
sS'contours'
p10
(tsS'components'
p11
(tsS'anchors'
p12
(tsss."
AnchorPoint: "top" 519 1010 basechar 0
LayerCount: 2
Fore
SplineSet
219 0 m 2
 314 0 l 2
 357 0 380 24 380 67 c 2
 380 606 l 2
 380 739 559 863 756 863 c 2
 842 863 l 2
 885 863 909 883 909 926 c 2
 909 985 l 2
 909 1028 885 1052 842 1052 c 2
 795 1052 l 2
 608 1052 445 936 371 833 c 0
 366 826 359 811 351 811 c 0
 343 811 338 823 336 832 c 2
 309 942 l 2
 297 992 276 1006 229 1006 c 2
 209 1006 l 2
 166 1006 152 972 152 929 c 2
 152 67 l 2
 152 24 176 0 219 0 c 2
EndSplineSet
EndChar

StartChar: registered
Encoding: 108 174 127
Width: 1899
VWidth: 0
Flags: W
PickledData: "(dp1
S'anchors'
p2
(tsS'unicodes'
p3
(tsS'width'
p4
I1899
sS'contours'
p5
(tsS'components'
p6
(tsS'name'
p7
S'registered'
p8
s."
LayerCount: 2
Fore
SplineSet
598 387 m 2
 706 387 l 2
 724 387 738 403 738 422 c 2
 738 630 l 2
 738 640 746 648 754 648 c 2
 1052 648 l 2
 1109 648 1125 648 1146 615 c 1
 1179 569 1189 471 1201 418 c 0
 1206 394 1216 387 1242 387 c 2
 1348 387 l 2
 1360 387 1365 397 1365 409 c 0
 1365 419 1360 444 1357 472 c 0
 1346 589 1317 668 1230 688 c 0
 1229 688 1229 689 1229 690 c 0
 1229 691 1229 692 1230 692 c 0
 1306 705 1369 755 1369 853 c 0
 1369 1047 1203 1049 992 1049 c 2
 598 1049 l 2
 580 1049 566 1034 566 1014 c 2
 566 422 l 2
 566 403 580 387 598 387 c 2
1118 753 m 2
 754 753 l 2
 746 753 738 761 738 770 c 2
 738 917 l 2
 738 926 746 934 754 934 c 2
 1042 934 l 2
 1144 934 1205 931 1205 843 c 0
 1205 792 1184 753 1118 753 c 2
952 81 m 0
 471 81 291 420 291 713 c 0
 291 1018 471 1349 952 1349 c 0
 1432 1349 1612 1018 1612 713 c 0
 1612 420 1432 81 952 81 c 0
949 -41 m 0
 1493 -41 1765 318 1765 717 c 0
 1765 1116 1493 1475 949 1475 c 0
 405 1475 133 1116 133 717 c 0
 133 318 405 -41 949 -41 c 0
EndSplineSet
EndChar

StartChar: ring
Encoding: 365 730 128
Width: 1717
VWidth: 0
Flags: HW
PickledData: "(dp1
S'com.typemytype.robofont.guides'
p2
(tsS'com.typemytype.robofont.layerData'
p3
(dp4
S'b'
(dp5
S'name'
p6
S'ring'
p7
sS'lib'
p8
(dp9
sS'unicodes'
p10
(tsS'width'
p11
I1717
sS'contours'
p12
(tsS'components'
p13
(tsS'anchors'
p14
(tsss."
AnchorPoint: "top" 806 1270 mark 0
LayerCount: 2
Fore
SplineSet
829 1505.40039062 m 4
 747 1505.40039062 680 1551.40039062 682 1642.40039062 c 5
 680 1741.40039062 752 1779.40039062 829 1779.40039062 c 4
 903 1779.40039062 975 1741.40039062 975 1642.40039062 c 4
 975 1550.40039062 908 1505.40039062 829 1505.40039062 c 4
829 1418.40039062 m 4
 937 1418.40039062 1083 1479.40039062 1083 1642.40039062 c 4
 1083 1810.40039062 948 1867.40039062 829 1867.40039062 c 4
 708 1867.40039062 573 1810.40039062 573 1642.40039062 c 4
 573 1478.40039062 719 1418.40039062 829 1418.40039062 c 4
EndSplineSet
EndChar

StartChar: s
Encoding: 83 115 129
Width: 1557
VWidth: 0
Flags: HW
PickledData: "(dp1
S'com.typemytype.robofont.layerData'
p2
(dp3
S'b'
(dp4
S'name'
p5
S's'
sS'lib'
p6
(dp7
sS'unicodes'
p8
(tsS'width'
p9
I1557
sS'contours'
p10
((dp11
S'points'
p12
((dp13
S'segmentType'
p14
S'curve'
p15
sS'x'
F815
sS'smooth'
p16
I01
sS'y'
F-41
s(dp17
S'y'
F-41
sS'x'
F926
sg16
I00
s(dp18
S'y'
F-37
sS'x'
F1021
sg16
I00
s(dp19
g14
S'curve'
p20
sS'x'
F1106
sg16
I01
sS'y'
F-27
s(dp21
S'y'
F10
sS'x'
F1444
sg16
I00
s(dp22
S'y'
F123
sS'x'
F1590
sg16
I00
s(dp23
g14
S'curve'
p24
sS'x'
F1590
sg16
I01
sS'y'
F307
s(dp25
S'y'
F604
sS'x'
F1590
sg16
I00
s(dp26
S'y'
F607
sS'x'
F1218
sg16
I00
s(dp27
g14
S'curve'
p28
sS'x'
F838
sg16
I01
sS'y'
F626
s(dp29
S'y'
F647
sS'x'
F409
sg16
I00
s(dp30
S'y'
F663
sS'x'
F326
sg16
I00
s(dp31
g14
S'curve'
p32
sS'x'
F326
sg16
I01
sS'y'
F759
s(dp33
S'y'
F863
sS'x'
F326
sg16
I00
s(dp34
S'y'
F894
sS'x'
F538
sg16
I00
s(dp35
g14
S'curve'
p36
sS'x'
F856
sg16
I01
sS'y'
F894
s(dp37
S'y'
F894
sS'x'
F1084
sg16
I00
s(dp38
S'y'
F861
sS'x'
F1277
sg16
I00
s(dp39
g14
S'curve'
p40
sS'x'
F1371
sg16
I01
sS'y'
F823
s(dp41
S'y'
F807
sS'x'
F1410
sg16
I00
s(dp42
S'y'
F818
sS'x'
F1453
sg16
I00
s(dp43
g14
S'curve'
p44
sS'x'
F1471
sg16
I01
sS'y'
F857
s(dp45
g14
S'line'
p46
sS'x'
F1475
sg16
I01
sS'y'
F866
s(dp47
S'y'
F901
sS'x'
F1492
sg16
I00
s(dp48
S'y'
F951
sS'x'
F1476
sg16
I00
s(dp49
g14
S'curve'
p50
sS'x'
F1442
sg16
I01
sS'y'
F963
s(dp51
S'y'
F1038
sS'x'
F1238
sg16
I00
s(dp52
S'y'
F1053
sS'x'
F1024
sg16
I00
s(dp53
g14
S'curve'
p54
sS'x'
F799
sg16
I01
sS'y'
F1053
s(dp55
S'y'
F1053
sS'x'
F567
sg16
I00
s(dp56
S'y'
F1032
sS'x'
F102
sg16
I00
s(dp57
g14
S'curve'
p58
sS'x'
F102
sg16
I01
sS'y'
F732
s(dp59
S'y'
F503
sS'x'
F102
sg16
I00
s(dp60
S'y'
F456
sS'x'
F429
sg16
I00
s(dp61
g14
S'curve'
p62
sS'x'
F796
sg16
I01
sS'y'
F445
s(dp63
S'y'
F429
sS'x'
F1334
sg16
I00
s(dp64
S'y'
F395
sS'x'
F1391
sg16
I00
s(dp65
g14
S'curve'
p66
sS'x'
F1391
sg16
I01
sS'y'
F299
s(dp67
S'y'
F185
sS'x'
F1391
sg16
I00
s(dp68
S'y'
F119
sS'x'
F1207
sg16
I00
s(dp69
g14
S'curve'
p70
sS'x'
F862
sg16
I01
sS'y'
F119
s(dp71
S'y'
F119
sS'x'
F632
sg16
I00
s(dp72
S'y'
F147
sS'x'
F390
sg16
I00
s(dp73
g14
S'curve'
p74
sS'x'
F215
sg16
I01
sS'y'
F214
s(dp75
S'y'
F229
sS'x'
F175
sg16
I00
s(dp76
S'y'
F212
sS'x'
F139
sg16
I00
s(dp77
g14
S'curve'
p78
sS'x'
F120
sg16
I01
sS'y'
F171
s(dp79
g14
S'line'
p80
sS'x'
F112
sg16
I01
sS'y'
F155
s(dp81
S'y'
F121
sS'x'
F97
sg16
I00
s(dp82
S'y'
F72
sS'x'
F115
sg16
I00
s(dp83
g14
S'curve'
p84
sS'x'
F148
sg16
I01
sS'y'
F59
s(dp85
S'y'
F-18
sS'x'
F335
sg16
I00
s(dp86
S'y'
F-41
sS'x'
F625
sg16
I00
stp87
stp88
sS'components'
p89
(tsS'anchors'
p90
(tsss."
AnchorPoint: "top" 751 1010 basechar 0
LayerCount: 2
Fore
SplineSet
797 -41 m 0
 1296 -41 1425 95 1425 307 c 0
 1425 570 1200 592 807 619 c 0
 378 648 354 658 354 754 c 0
 354 858 501 896 819 896 c 0
 1013 896 1103 867 1204 836 c 0
 1243 824 1290 827 1306 862 c 2
 1319 890 l 2
 1334 921 1317 957 1283 970 c 0
 1138 1024 993 1053 768 1053 c 0
 536 1053 147 1034 147 734 c 0
 147 505 398 462 765 448 c 0
 1193 432 1233 392 1233 296 c 0
 1233 182 1151 116 816 116 c 0
 586 116 433 142 258 209 c 0
 218 224 181 207 162 166 c 1
 154 150 l 1
 139 116 158 72 191 59 c 0
 378 -18 607 -41 797 -41 c 0
EndSplineSet
EndChar

StartChar: section
Encoding: 101 167 130
Width: 1582
VWidth: 0
Flags: W
PickledData: "(dp1
S'com.typemytype.robofont.layerData'
p2
(dp3
S'b'
(dp4
S'name'
p5
S'section'
p6
sS'lib'
p7
(dp8
sS'unicodes'
p9
(tsS'width'
p10
I1582
sS'contours'
p11
((dp12
S'points'
p13
((dp14
S'segmentType'
p15
S'curve'
p16
sS'x'
F923
sS'smooth'
p17
I01
sS'y'
F-41
s(dp18
S'y'
F-41
sS'x'
F1365
sg17
I00
s(dp19
S'y'
F19
sS'x'
F1759
sg17
I00
s(dp20
g15
S'curve'
p21
sS'x'
F1759
sg17
I01
sS'y'
F307
s(dp22
S'y'
F406
sS'x'
F1759
sg17
I00
s(dp23
S'y'
F477
sS'x'
F1722
sg17
I00
s(dp24
g15
S'curve'
p25
sS'x'
F1662
sg17
I00
sS'y'
F527
s(dp26
S'y'
F577
sS'x'
F1724
sg17
I00
s(dp27
S'y'
F643
sS'x'
F1759
sg17
I00
s(dp28
g15
S'curve'
p29
sS'x'
F1759
sg17
I01
sS'y'
F729
s(dp30
S'y'
F1062
sS'x'
F1759
sg17
I00
s(dp31
S'y'
F1073
sS'x'
F1343
sg17
I00
s(dp32
g15
S'curve'
p33
sS'x'
F1037
sg17
I01
sS'y'
F1091
s(dp34
S'y'
F1105
sS'x'
F801
sg17
I00
s(dp35
S'y'
F1102
sS'x'
F659
sg17
I00
s(dp36
g15
S'curve'
p37
sS'x'
F659
sg17
I01
sS'y'
F1151
s(dp38
S'y'
F1182
sS'x'
F659
sg17
I00
s(dp39
S'y'
F1208
sS'x'
F708
sg17
I00
s(dp40
g15
S'curve'
p41
sS'x'
F940
sg17
I01
sS'y'
F1208
s(dp42
S'y'
F1208
sS'x'
F1186
sg17
I00
s(dp43
S'y'
F1189
sS'x'
F1337
sg17
I00
s(dp44
g15
S'curve'
p45
sS'x'
F1477
sg17
I01
sS'y'
F1140
s(dp46
S'y'
F1126
sS'x'
F1520
sg17
I00
s(dp47
S'y'
F1144
sS'x'
F1565
sg17
I00
s(dp48
g15
S'curve'
p49
sS'x'
F1585
sg17
I01
sS'y'
F1183
s(dp50
g15
S'line'
p51
sS'x'
F1635
sg17
I01
sS'y'
F1288
s(dp52
S'y'
F1323
sS'x'
F1653
sg17
I00
s(dp53
S'y'
F1370
sS'x'
F1635
sg17
I00
s(dp54
g15
S'curve'
p55
sS'x'
F1599
sg17
I01
sS'y'
F1385
s(dp56
S'y'
F1473
sS'x'
F1374
sg17
I00
s(dp57
S'y'
F1475
sS'x'
F1148
sg17
I00
s(dp58
g15
S'curve'
p59
sS'x'
F905
sg17
I01
sS'y'
F1475
s(dp60
S'y'
F1475
sS'x'
F655
sg17
I00
s(dp61
S'y'
F1440
sS'x'
F153
sg17
I00
s(dp62
g15
S'curve'
p63
sS'x'
F153
sg17
I01
sS'y'
F1120
s(dp64
S'y'
F1030
sS'x'
F153
sg17
I00
s(dp65
S'y'
F966
sS'x'
F201
sg17
I00
s(dp66
g15
S'curve'
p67
sS'x'
F276
sg17
I00
sS'y'
F921
s(dp68
S'y'
F869
sS'x'
F202
sg17
I00
s(dp69
S'y'
F797
sS'x'
F153
sg17
I00
s(dp70
g15
S'curve'
p71
sS'x'
F153
sg17
I01
sS'y'
F698
s(dp72
S'y'
F419
sS'x'
F153
sg17
I00
s(dp73
S'y'
F398
sS'x'
F609
sg17
I00
s(dp74
g15
S'curve'
p75
sS'x'
F908
sg17
I01
sS'y'
F376
s(dp76
S'y'
F357
sS'x'
F1168
sg17
I00
s(dp77
S'y'
F357
sS'x'
F1219
sg17
I00
s(dp78
g15
S'curve'
p79
sS'x'
F1219
sg17
I01
sS'y'
F293
s(dp80
S'y'
F249
sS'x'
F1219
sg17
I00
s(dp81
S'y'
F236
sS'x'
F1157
sg17
I00
s(dp82
g15
S'curve'
p83
sS'x'
F1029
sg17
I01
sS'y'
F236
s(dp84
S'y'
F236
sS'x'
F780
sg17
I00
s(dp85
S'y'
F257
sS'x'
F553
sg17
I00
s(dp86
g15
S'curve'
p87
sS'x'
F331
sg17
I01
sS'y'
F323
s(dp88
S'y'
F336
sS'x'
F288
sg17
I00
s(dp89
S'y'
F316
sS'x'
F244
sg17
I00
s(dp90
g15
S'curve'
p91
sS'x'
F224
sg17
I01
sS'y'
F275
s(dp92
g15
S'line'
p93
sS'x'
F164
sg17
I01
sS'y'
F155
s(dp94
S'y'
F121
sS'x'
F148
sg17
I00
s(dp95
S'y'
F72
sS'x'
F167
sg17
I00
s(dp96
g15
S'curve'
p97
sS'x'
F203
sg17
I01
sS'y'
F59
s(dp98
S'y'
F-18
sS'x'
F405
sg17
I00
s(dp99
S'y'
F-41
sS'x'
F718
sg17
I00
stp100
s(dp101
g13
((dp102
g15
S'curve'
p103
sS'x'
F1318
sg17
I00
sS'y'
F650
s(dp104
S'y'
F660
sS'x'
F1230
sg17
I00
s(dp105
S'y'
F662
sS'x'
F1119
sg17
I00
s(dp106
g15
S'curve'
p107
sS'x'
F1037
sg17
I01
sS'y'
F669
s(dp108
S'y'
F699
sS'x'
F665
sg17
I00
s(dp109
S'y'
F712
sS'x'
F589
sg17
I00
s(dp110
g15
S'curve'
p111
sS'x'
F589
sg17
I01
sS'y'
F761
s(dp112
S'y'
F808
sS'x'
F589
sg17
I00
s(dp113
S'y'
F833
sS'x'
F621
sg17
I00
s(dp114
g15
S'curve'
p115
sS'x'
F621
sg17
I00
sS'y'
F833
s(dp116
S'y'
F816
sS'x'
F695
sg17
I00
s(dp117
S'y'
F804
sS'x'
F821
sg17
I00
s(dp118
g15
S'curve'
p119
sS'x'
F908
sg17
I01
sS'y'
F798
s(dp120
S'y'
F779
sS'x'
F1168
sg17
I00
s(dp121
S'y'
F779
sS'x'
F1349
sg17
I00
s(dp122
g15
S'curve'
p123
sS'x'
F1349
sg17
I01
sS'y'
F715
s(dp124
S'y'
F674
sS'x'
F1349
sg17
I00
s(dp125
S'y'
F650
sS'x'
F1318
sg17
I00
stp126
stp127
sS'components'
p128
(tsS'anchors'
p129
(tsss."
LayerCount: 2
Fore
SplineSet
806 -40 m 0
 1305 -40 1434 96 1434 308 c 0
 1434 409 1401 474 1338 518 c 1
 1386 574 1434 650 1434 730 c 0
 1434 993 1209 1015 816 1042 c 0
 387 1071 363 1081 363 1177 c 0
 363 1281 510 1319 828 1319 c 0
 1022 1319 1112 1290 1213 1259 c 0
 1252 1247 1299 1250 1315 1285 c 2
 1328 1313 l 2
 1343 1344 1326 1380 1292 1393 c 0
 1147 1447 1002 1476 777 1476 c 0
 545 1476 156 1457 156 1157 c 0
 156 1059 202 995 283 953 c 1
 210 898 156 820 156 735 c 0
 156 506 407 463 774 449 c 0
 1202 433 1242 393 1242 297 c 0
 1242 183 1160 117 825 117 c 0
 595 117 442 143 267 210 c 0
 227 225 190 208 171 167 c 1
 163 151 l 1
 148 117 167 73 200 60 c 0
 387 -17 616 -40 806 -40 c 0
1198 576 m 1
 1099 600 970 609 816 620 c 0
 387 649 363 676 363 755 c 0
 363 792 376 856 413 908 c 1
 512 886 635 876 774 871 c 0
 1202 855 1242 815 1242 719 c 0
 1242 693 1198 576 1198 576 c 1
EndSplineSet
EndChar

StartChar: semicolon
Encoding: 27 59 131
Width: 626
VWidth: 0
Flags: W
PickledData: "(dp1
S'com.typemytype.robofont.layerData'
p2
(dp3
S'b'
(dp4
S'name'
p5
S'semicolon'
p6
sS'lib'
p7
(dp8
sS'unicodes'
p9
(tsS'width'
p10
I626
sS'contours'
p11
(tsS'components'
p12
(tsS'anchors'
p13
(tsss."
LayerCount: 2
Fore
SplineSet
212 -301 m 0
 350 -278 481 -142 481 95 c 2
 481 240 l 2
 481 283 447 317 404 317 c 2
 206 317 l 2
 163 317 146 296 146 253 c 2
 146 50 l 2
 146 12 168 0 206 0 c 2
 291 0 l 2
 306 0 308 -11 308 -27 c 0
 308 -51 276 -128 207 -171 c 0
 164 -198 146 -192 146 -246 c 2
 146 -256 l 2
 146 -292 177 -307 212 -301 c 0
246 754 m 2
 383 754 l 2
 426 754 460 788 460 831 c 2
 460 975 l 2
 460 1018 426 1052 383 1052 c 2
 246 1052 l 2
 203 1052 169 1018 169 975 c 2
 169 831 l 2
 169 788 203 754 246 754 c 2
EndSplineSet
EndChar

StartChar: seven
Encoding: 23 55 132
Width: 1068
VWidth: 0
Flags: W
PickledData: "(dp1
S'com.typemytype.robofont.layerData'
p2
(dp3
S'b'
(dp4
S'name'
p5
S'seven'
p6
sS'lib'
p7
(dp8
sS'unicodes'
p9
(tsS'width'
p10
I1067
sS'contours'
p11
(tsS'components'
p12
(tsS'anchors'
p13
(tsss."
LayerCount: 2
Fore
SplineSet
393 0 m 2
 487 0 l 2
 530 0 541 26 554 67 c 2
 962 1371 l 1
 962 1414 938 1438 895 1438 c 2
 154 1438 l 2
 111 1438 87 1414 87 1371 c 2
 87 1336 l 2
 87 1293 111 1269 154 1269 c 2
 657 1269 l 2
 677 1269 690 1255 684 1236 c 2
 326 67 l 2
 313 26 350 0 393 0 c 2
EndSplineSet
EndChar

StartChar: six
Encoding: 22 54 133
Width: 1873
VWidth: 0
Flags: W
PickledData: "(dp1
S'com.typemytype.robofont.guides'
p2
(tsS'com.typemytype.robofont.layerData'
p3
(dp4
S'b'
(dp5
S'name'
p6
S'six'
p7
sS'lib'
p8
(dp9
sS'unicodes'
p10
(tsS'width'
p11
I1873
sS'contours'
p12
(tsS'components'
p13
(tsS'anchors'
p14
(tsss."
LayerCount: 2
Fore
SplineSet
920 -42 m 0
 1381 -42 1741 61 1741 426 c 0
 1741 683 1578 896 969 896 c 0
 806 896 611 881 378 847 c 1
 378 910 l 2
 378 1152 540 1295 969 1295 c 0
 1143 1295 1416 1245 1502 1206 c 0
 1507 1204 1512 1203 1518 1203 c 0
 1532 1203 1547 1211 1553 1229 c 2
 1584 1324 l 2
 1586 1329 1586 1334 1586 1339 c 0
 1586 1357 1575 1370 1558 1377 c 0
 1438 1425 1172 1472 990 1472 c 0
 421 1472 140 1295 140 736 c 0
 140 292 268 -42 920 -42 c 0
920 134 m 0
 533 134 369 287 369 555 c 2
 369 686 l 1
 614 720 809 735 962 735 c 0
 1410 735 1512 606 1512 434 c 0
 1512 190 1310 134 920 134 c 0
EndSplineSet
EndChar

StartChar: slash
Encoding: 15 47 134
Width: 1088
VWidth: 0
Flags: W
PickledData: "(dp1
S'com.typemytype.robofont.guides'
p2
(tsS'com.typemytype.robofont.layerData'
p3
(dp4
S'b'
(dp5
S'name'
p6
S'slash'
p7
sS'lib'
p8
(dp9
sS'unicodes'
p10
(tsS'width'
p11
I1090
sS'contours'
p12
(tsS'components'
p13
(tsS'anchors'
p14
(tsss."
LayerCount: 2
Fore
SplineSet
113 -205 m 2
 276 -205 l 2
 298 -205 318 -191 326 -170 c 2
 1013 1612 l 2
 1019 1629 1007 1647 989 1647 c 2
 826 1647 l 2
 804 1647 784 1633 776 1612 c 2
 89 -170 l 2
 83 -187 95 -205 113 -205 c 2
EndSplineSet
EndChar

StartChar: sterling
Encoding: 97 163 136
Width: 1727
VWidth: 0
Flags: W
PickledData: "(dp1
S'com.typemytype.robofont.layerData'
p2
(dp3
S'b'
(dp4
S'name'
p5
S'sterling'
p6
sS'lib'
p7
(dp8
sS'unicodes'
p9
(tsS'width'
p10
I1727
sS'contours'
p11
((dp12
S'points'
p13
((dp14
S'segmentType'
p15
S'curve'
p16
sS'x'
F1192
sS'smooth'
p17
I01
sS'y'
F-41
s(dp18
S'y'
F-41
sS'x'
F1653
sg17
I00
s(dp19
S'y'
F105
sS'x'
F2152
sg17
I00
s(dp20
g15
S'curve'
p21
sS'x'
F2152
sg17
I01
sS'y'
F724
s(dp22
S'y'
F1296
sS'x'
F2152
sg17
I00
s(dp23
S'y'
F1475
sS'x'
F1653
sg17
I00
s(dp24
g15
S'curve'
p25
sS'x'
F1192
sg17
I01
sS'y'
F1475
s(dp26
S'y'
F1475
sS'x'
F734
sg17
I00
s(dp27
S'y'
F1296
sS'x'
F232
sg17
I00
s(dp28
g15
S'curve'
p29
sS'x'
F232
sg17
I01
sS'y'
F724
s(dp30
S'y'
F105
sS'x'
F232
sg17
I00
s(dp31
S'y'
F-41
sS'x'
F734
sg17
I00
stp32
s(dp33
g13
((dp34
g15
S'curve'
p35
sS'x'
F1192
sg17
I01
sS'y'
F127
s(dp36
S'y'
F127
sS'x'
F805
sg17
I00
s(dp37
S'y'
F234
sS'x'
F461
sg17
I00
s(dp38
g15
S'curve'
p39
sS'x'
F461
sg17
I01
sS'y'
F724
s(dp40
S'y'
F1142
sS'x'
F461
sg17
I00
s(dp41
S'y'
F1307
sS'x'
F792
sg17
I00
s(dp42
g15
S'curve'
p43
sS'x'
F1192
sg17
I01
sS'y'
F1307
s(dp44
S'y'
F1307
sS'x'
F1595
sg17
I00
s(dp45
S'y'
F1142
sS'x'
F1923
sg17
I00
s(dp46
g15
S'curve'
p47
sS'x'
F1923
sg17
I01
sS'y'
F724
s(dp48
S'y'
F234
sS'x'
F1923
sg17
I00
s(dp49
S'y'
F127
sS'x'
F1582
sg17
I00
stp50
stp51
sS'components'
p52
(tsS'anchors'
p53
(tsss."
LayerCount: 2
Fore
SplineSet
203 0 m 2
 1530 0 l 2
 1562 0 1587 5 1587 40 c 2
 1587 108 l 2
 1587 150 1562 161 1530 161 c 2
 673 161 l 2
 601 161 598 170 598 231 c 2
 598 690 l 1
 1017 690 l 2
 1060 690 1074 708 1074 751 c 2
 1074 782 l 2
 1074 825 1060 843 1017 843 c 2
 600 843 l 1
 600 906 l 2
 600 1185 705 1307 1013 1307 c 0
 1195 1307 1472 1233 1511 1226 c 0
 1520 1224 1527 1223 1534 1223 c 0
 1560 1223 1568 1237 1578 1267 c 2
 1596 1323 l 2
 1597 1328 1597 1332 1597 1336 c 0
 1597 1366 1581 1383 1544 1393 c 0
 1431 1426 1241 1475 1002 1475 c 0
 534 1475 370 1220 370 843 c 1
 203 843 l 2
 160 843 146 825 146 782 c 2
 146 751 l 2
 146 708 160 690 203 690 c 2
 338 690 l 2
 363 690 370 674 370 647 c 0
 370 646 370 254 370 214 c 0
 370 171 367 161 338 161 c 2
 203 161 l 2
 160 161 146 137 146 94 c 2
 146 61 l 2
 146 18 160 0 203 0 c 2
EndSplineSet
EndChar

StartChar: t
Encoding: 84 116 137
Width: 1228
VWidth: 0
Flags: HW
PickledData: "(dp1
S'com.typemytype.robofont.layerData'
p2
(dp3
S'b'
(dp4
S'name'
p5
S't'
sS'lib'
p6
(dp7
sS'unicodes'
p8
(tsS'width'
p9
I1227
sS'contours'
p10
(tsS'components'
p11
(tsS'anchors'
p12
(tsss."
AnchorPoint: "bot" 789.5 7.00002 basechar 0
AnchorPoint: "top" 880 1006.9 basechar 0
LayerCount: 2
Fore
SplineSet
756 -41 m 0
 866 -41 956 -26 1035 5 c 0
 1076 21 1098 36 1086 78 c 2
 1077 110 l 2
 1067 145 1060 167 1003 148 c 0
 942 128 868 111 799 111 c 0
 648 111 573 167 573 305 c 2
 573 821 l 2
 573 841 580 848 600 848 c 2
 982 848 l 2
 1025 848 1049 872 1049 915 c 2
 1049 939 l 2
 1049 982 1025 1006 982 1006 c 2
 600 1006 l 2
 580 1006 573 1013 573 1033 c 2
 573 1408 l 2
 573 1451 549 1475 506 1475 c 2
 432 1475 l 2
 389 1475 373 1450 365 1408 c 1
 345 1033 l 1
 345 1013 338 1006 318 1006 c 2
 188 1006 l 2
 145 1006 121 982 121 939 c 2
 121 915 l 2
 121 872 145 848 188 848 c 2
 318 848 l 2
 338 848 345 841 345 821 c 2
 345 335 l 2
 345 108 472 -41 756 -41 c 0
EndSplineSet
EndChar

StartChar: thorn
Encoding: 188 254 138
Width: 1682
VWidth: 0
Flags: W
PickledData: "(dp1
S'com.typemytype.robofont.layerData'
p2
(dp3
S'b'
(dp4
S'name'
p5
S'thorn'
p6
sS'lib'
p7
(dp8
sS'unicodes'
p9
(tsS'width'
p10
I1682
sS'contours'
p11
((dp12
S'points'
p13
((dp14
S'segmentType'
p15
S'curve'
p16
sS'x'
F1061
sS'smooth'
p17
I01
sS'y'
F231
s(dp18
S'y'
F231
sS'x'
F862
sg17
I00
s(dp19
S'y'
F365
sS'x'
F766
sg17
I00
s(dp20
g15
S'curve'
p21
sS'x'
F766
sg17
I01
sS'y'
F496
s(dp22
S'y'
F629
sS'x'
F766
sg17
I00
s(dp23
S'y'
F760
sS'x'
F862
sg17
I00
s(dp24
g15
S'curve'
p25
sS'x'
F1059
sg17
I01
sS'y'
F760
s(dp26
S'y'
F760
sS'x'
F1245
sg17
I00
s(dp27
S'y'
F627
sS'x'
F1342
sg17
I00
s(dp28
g15
S'curve'
p29
sS'x'
F1342
sg17
I01
sS'y'
F496
s(dp30
S'y'
F362
sS'x'
F1342
sg17
I00
s(dp31
S'y'
F231
sS'x'
F1245
sg17
I00
stp32
s(dp33
g13
((dp34
g15
S'curve'
p35
sS'x'
F231
sg17
I01
sS'y'
F-299
s(dp36
g15
S'line'
p37
sS'x'
F693
sg17
I01
sS'y'
F-299
s(dp38
S'y'
F-299
sS'x'
F736
sg17
I00
s(dp39
S'y'
F-269
sS'x'
F768
sg17
I00
s(dp40
g15
S'curve'
p41
sS'x'
F768
sg17
I01
sS'y'
F-226
s(dp42
g15
S'line'
p43
sS'x'
F768
sg17
I01
sS'y'
F46
s(dp44
S'y'
F58
sS'x'
F768
sg17
I00
s(dp45
S'y'
F67
sS'x'
F777
sg17
I00
s(dp46
g15
S'curve'
p47
sS'x'
F787
sg17
I01
sS'y'
F67
s(dp48
S'y'
F67
sS'x'
F791
sg17
I00
s(dp49
S'y'
F65
sS'x'
F795
sg17
I00
s(dp50
g15
S'curve'
p51
sS'x'
F799
sg17
I00
sS'y'
F63
s(dp52
S'y'
F-7
sS'x'
F912
sg17
I00
s(dp53
S'y'
F-41
sS'x'
F1084
sg17
I00
s(dp54
g15
S'curve'
p55
sS'x'
F1262
sg17
I01
sS'y'
F-41
s(dp56
S'y'
F-41
sS'x'
F1608
sg17
I00
s(dp57
S'y'
F123
sS'x'
F1976
sg17
I00
s(dp58
g15
S'curve'
p59
sS'x'
F1976
sg17
I01
sS'y'
F512
s(dp60
S'y'
F879
sS'x'
F1976
sg17
I00
s(dp61
S'y'
F1053
sS'x'
F1600
sg17
I00
s(dp62
g15
S'curve'
p63
sS'x'
F1219
sg17
I01
sS'y'
F1053
s(dp64
S'y'
F1053
sS'x'
F1057
sg17
I00
s(dp65
S'y'
F1017
sS'x'
F925
sg17
I00
s(dp66
g15
S'curve'
p67
sS'x'
F795
sg17
I01
sS'y'
F946
s(dp68
S'y'
F943
sS'x'
F789
sg17
I00
s(dp69
S'y'
F941
sS'x'
F785
sg17
I00
s(dp70
g15
S'curve'
p71
sS'x'
F781
sg17
I01
sS'y'
F941
s(dp72
S'y'
F941
sS'x'
F770
sg17
I00
s(dp73
S'y'
F957
sS'x'
F768
sg17
I00
s(dp74
g15
S'curve'
p75
sS'x'
F768
sg17
I01
sS'y'
F991
s(dp76
S'y'
F1004
sS'x'
F768
sg17
I00
s(dp77
S'y'
F1281
sS'x'
F768
sg17
I00
s(dp78
g15
S'curve'
p79
sS'x'
F768
sg17
I01
sS'y'
F1355
s(dp80
S'y'
F1402
sS'x'
F768
sg17
I00
s(dp81
S'y'
F1438
sS'x'
F734
sg17
I00
s(dp82
g15
S'curve'
p83
sS'x'
F687
sg17
I01
sS'y'
F1438
s(dp84
g15
S'line'
p85
sS'x'
F237
sg17
I01
sS'y'
F1438
s(dp86
S'y'
F1438
sS'x'
F194
sg17
I00
s(dp87
S'y'
F1404
sS'x'
F160
sg17
I00
s(dp88
g15
S'curve'
p89
sS'x'
F160
sg17
I01
sS'y'
F1361
s(dp90
g15
S'line'
p91
sS'x'
F160
sg17
I01
sS'y'
F-226
s(dp92
S'y'
F-269
sS'x'
F160
sg17
I00
s(dp93
S'y'
F-299
sS'x'
F188
sg17
I00
stp94
stp95
sS'components'
p96
(tsS'anchors'
p97
(tsss."
LayerCount: 2
Fore
SplineSet
228 -427 m 2
 322 -427 l 2
 365 -427 389 -403 389 -360 c 2
 389 153 l 2
 389 159 391 161 393 161 c 0
 395 161 398 159 400 156 c 0
 508 27 678 -42 875 -42 c 0
 1199 -42 1553 99 1553 507 c 0
 1553 904 1187 1052 893 1052 c 0
 710 1052 511 981 389 844 c 0
 385 839 382 838 380 838 c 0
 370 838 368 863 368 883 c 0
 368 1009 366 1340 366 1360 c 0
 366 1428 349 1438 318 1438 c 2
 214 1438 l 2
 171 1438 161 1414 161 1371 c 2
 161 -360 l 2
 161 -403 185 -427 228 -427 c 2
858 110 m 0
 614 110 389 242 389 509 c 0
 389 766 601 900 858 900 c 0
 1112 900 1324 768 1324 507 c 0
 1324 223 1096 110 858 110 c 0
EndSplineSet
EndChar

StartChar: three
Encoding: 19 51 139
Width: 1959
VWidth: 0
Flags: W
PickledData: "(dp1
S'com.typemytype.robofont.layerData'
p2
(dp3
S'b'
(dp4
S'name'
p5
S'three'
p6
sS'lib'
p7
(dp8
sS'unicodes'
p9
(tsS'width'
p10
I1960
sS'contours'
p11
((dp12
S'points'
p13
((dp14
S'segmentType'
p15
S'curve'
p16
sS'x'
F1129
sS'smooth'
p17
I01
sS'y'
F-399
s(dp18
S'y'
F-399
sS'x'
F1590
sg17
I00
s(dp19
S'y'
F-205
sS'x'
F1961
sg17
I00
s(dp20
g15
S'curve'
p21
sS'x'
F1961
sg17
I01
sS'y'
F374
s(dp22
S'y'
F906
sS'x'
F1961
sg17
I00
s(dp23
S'y'
F1117
sS'x'
F1590
sg17
I00
s(dp24
g15
S'curve'
p25
sS'x'
F1129
sg17
I01
sS'y'
F1117
s(dp26
S'y'
F1117
sS'x'
F671
sg17
I00
s(dp27
S'y'
F906
sS'x'
F297
sg17
I00
s(dp28
g15
S'curve'
p29
sS'x'
F297
sg17
I01
sS'y'
F374
s(dp30
S'y'
F-205
sS'x'
F297
sg17
I00
s(dp31
S'y'
F-399
sS'x'
F671
sg17
I00
stp32
s(dp33
g13
((dp34
g15
S'curve'
p35
sS'x'
F1129
sg17
I01
sS'y'
F-223
s(dp36
S'y'
F-223
sS'x'
F742
sg17
I00
s(dp37
S'y'
F-76
sS'x'
F526
sg17
I00
s(dp38
g15
S'curve'
p39
sS'x'
F526
sg17
I01
sS'y'
F374
s(dp40
S'y'
F754
sS'x'
F526
sg17
I00
s(dp41
S'y'
F941
sS'x'
F729
sg17
I00
s(dp42
g15
S'curve'
p43
sS'x'
F1129
sg17
I01
sS'y'
F941
s(dp44
S'y'
F941
sS'x'
F1532
sg17
I00
s(dp45
S'y'
F752
sS'x'
F1732
sg17
I00
s(dp46
g15
S'curve'
p47
sS'x'
F1732
sg17
I01
sS'y'
F374
s(dp48
S'y'
F-76
sS'x'
F1732
sg17
I00
s(dp49
S'y'
F-223
sS'x'
F1519
sg17
I00
stp50
stp51
sS'components'
p52
(tsS'anchors'
p53
(tsss."
LayerCount: 2
Fore
SplineSet
1004 -40 m 0
 1609 -40 1816 135 1816 387 c 0
 1816 565 1691 697 1482 723 c 1
 1682 743 1793 869 1793 1047 c 0
 1793 1289 1641 1474 1036 1474 c 0
 795 1474 303 1401 191 1368 c 0
 154 1358 138 1341 138 1311 c 0
 138 1307 138 1303 139 1298 c 2
 150 1241 l 1
 154 1210 174 1197 200 1197 c 0
 207 1197 215 1198 224 1200 c 0
 263 1207 672 1299 1042 1299 c 0
 1382 1299 1547 1236 1565 1096 c 0
 1582 962 1529 812 1115 812 c 2
 879 812 l 2
 847 812 847 783 847 769 c 2
 847 685 l 2
 847 671 847 642 879 642 c 2
 1115 642 l 2
 1514 642 1604 504 1587 368 c 0
 1575 273 1492 135 1014 135 c 0
 680 135 250 225 211 232 c 0
 202 234 195 235 188 235 c 0
 162 235 148 222 144 191 c 1
 139 132 l 2
 138 127 138 123 138 119 c 0
 138 89 154 72 191 62 c 0
 303 29 806 -40 1004 -40 c 0
EndSplineSet
EndChar

StartChar: tilde
Encoding: 367 732 141
Width: 1616
VWidth: 0
Flags: HW
PickledData: "(dp1
S'com.typemytype.robofont.layerData'
p2
(dp3
S'b'
(dp4
S'name'
p5
S'tilde'
p6
sS'lib'
p7
(dp8
sS'unicodes'
p9
(tsS'width'
p10
I1880
sS'contours'
p11
(tsS'components'
p12
(tsS'anchors'
p13
(tsss."
AnchorPoint: "top" 827 1256 mark 0
LayerCount: 2
Fore
SplineSet
1196.5 1575.40039062 m 0
 1205.7535873 1569.88939053 1214.5 1569.40039062 1220.5 1569.40039062 c 0
 1244.5 1569.40039062 1254.5 1602.40039062 1261.5 1617.40039062 c 1
 1261.5 1617.40039062 1280.46774194 1656.0991858 1282.5 1661.40039062 c 0
 1284.5 1669.40039062 1286.5 1676.40039062 1286.5 1682.40039062 c 0
 1286.5 1703.40039062 1272.84871011 1714.07640826 1251.5 1725.40039062 c 0
 1169.59831618 1768.84344726 1096.06631384 1783.25889859 1027.04480393 1783.25889859 c 0
 887.327466839 1783.25889859 765.625110522 1697.13867188 631.525390625 1697.13867188 c 0
 585.529724607 1697.13867188 533.716514407 1710.33094452 464.5 1748.40039062 c 0
 454.5 1753.40039062 445.5 1756.40039062 437.5 1756.40039062 c 0
 421.5 1756.40039062 410.5 1745.40039062 401.5 1724.40039062 c 2
 373.5 1666.40039062 l 2
 370.583007812 1660.359375 369.5 1654.40039062 369.5 1649.40039062 c 0
 369.5 1631.40039062 382.5 1614.40039062 403.5 1602.40039062 c 1
 492.214759057 1546.02091757 562.145279345 1527.50239546 626.456326851 1527.50239546 c 0
 756.761170202 1527.50239546 898.053626315 1617.27734375 1029.03710938 1617.27734375 c 0
 1087.64310916 1617.27734375 1144.13274477 1606.58805314 1196.5 1575.40039062 c 0
EndSplineSet
EndChar

StartChar: two
Encoding: 18 50 142
Width: 1992
VWidth: 0
Flags: W
PickledData: "(dp1
S'com.typemytype.robofont.layerData'
p2
(dp3
S'b'
(dp4
S'name'
p5
S'two'
p6
sS'lib'
p7
(dp8
sS'unicodes'
p9
(tsS'width'
p10
I0
sS'contours'
p11
((dp12
S'points'
p13
((dp14
S'segmentType'
p15
S'curve'
p16
sS'x'
F1049
sS'smooth'
p17
I01
sS'y'
F-40
s(dp18
S'y'
F-40
sS'x'
F1654
sg17
I00
s(dp19
S'y'
F61
sS'x'
F2105
sg17
I00
s(dp20
g15
S'curve'
p21
sS'x'
F2105
sg17
I01
sS'y'
F417
s(dp22
S'y'
F595
sS'x'
F2105
sg17
I00
s(dp23
S'y'
F697
sS'x'
F2001
sg17
I00
s(dp24
g15
S'curve'
p25
sS'x'
F1792
sg17
I00
sS'y'
F723
s(dp26
S'y'
F743
sS'x'
F1992
sg17
I00
s(dp27
S'y'
F839
sS'x'
F2105
sg17
I00
s(dp28
g15
S'curve'
p29
sS'x'
F2105
sg17
I01
sS'y'
F1017
s(dp30
S'y'
F1372
sS'x'
F2105
sg17
I00
s(dp31
S'y'
F1474
sS'x'
F1654
sg17
I00
s(dp32
g15
S'curve'
p33
sS'x'
F1049
sg17
I01
sS'y'
F1474
s(dp34
S'y'
F1474
sS'x'
F791
sg17
I00
s(dp35
S'y'
F1394
sS'x'
F313
sg17
I00
s(dp36
g15
S'curve'
p37
sS'x'
F201
sg17
I01
sS'y'
F1361
s(dp38
S'y'
F1351
sS'x'
F164
sg17
I00
s(dp39
S'y'
F1334
sS'x'
F148
sg17
I00
s(dp40
g15
S'curve'
p41
sS'x'
F148
sg17
I01
sS'y'
F1304
s(dp42
S'y'
F1300
sS'x'
F148
sg17
I00
s(dp43
S'y'
F1296
sS'x'
F148
sg17
I00
s(dp44
g15
S'curve'
p45
sS'x'
F149
sg17
I00
sS'y'
F1291
s(dp46
g15
S'line'
p47
sS'x'
F175
sg17
I01
sS'y'
F1084
s(dp48
S'y'
F1053
sS'x'
F179
sg17
I00
s(dp49
S'y'
F1040
sS'x'
F193
sg17
I00
s(dp50
g15
S'curve'
p51
sS'x'
F219
sg17
I01
sS'y'
F1040
s(dp52
S'y'
F1040
sS'x'
F226
sg17
I00
s(dp53
S'y'
F1041
sS'x'
F233
sg17
I00
s(dp54
g15
S'curve'
p55
sS'x'
F242
sg17
I01
sS'y'
F1043
s(dp56
S'y'
F1050
sS'x'
F281
sg17
I00
s(dp57
S'y'
F1141
sS'x'
F711
sg17
I00
s(dp58
g15
S'curve'
p59
sS'x'
F1045
sg17
I01
sS'y'
F1141
s(dp60
S'y'
F1141
sS'x'
F1135
sg17
I00
s(dp61
S'y'
F1147
sS'x'
F1357
sg17
I00
s(dp62
g15
S'curve'
p63
sS'x'
F1357
sg17
I01
sS'y'
F1001
s(dp64
S'y'
F914
sS'x'
F1357
sg17
I00
s(dp65
S'y'
F854
sS'x'
F1324
sg17
I00
s(dp66
g15
S'curve'
p67
sS'x'
F1125
sg17
I01
sS'y'
F854
s(dp68
g15
S'line'
p69
sS'x'
F889
sg17
I01
sS'y'
F854
s(dp70
S'y'
F854
sS'x'
F857
sg17
I00
s(dp71
S'y'
F825
sS'x'
F857
sg17
I00
s(dp72
g15
S'curve'
p73
sS'x'
F857
sg17
I01
sS'y'
F811
s(dp74
g15
S'line'
p75
sS'x'
F857
sg17
I01
sS'y'
F632
s(dp76
S'y'
F618
sS'x'
F857
sg17
I00
s(dp77
S'y'
F589
sS'x'
F857
sg17
I00
s(dp78
g15
S'curve'
p79
sS'x'
F889
sg17
I01
sS'y'
F589
s(dp80
S'y'
F589
sS'x'
F898
sg17
I00
s(dp81
S'y'
F589
sS'x'
F916
sg17
I00
s(dp82
g15
S'curve'
p83
sS'x'
F1125
sg17
I01
sS'y'
F589
s(dp84
S'y'
F589
sS'x'
F1324
sg17
I00
s(dp85
S'y'
F530
sS'x'
F1357
sg17
I00
s(dp86
g15
S'curve'
p87
sS'x'
F1357
sg17
I01
sS'y'
F443
s(dp88
S'y'
F292
sS'x'
F1357
sg17
I00
s(dp89
S'y'
F293
sS'x'
F1135
sg17
I00
s(dp90
g15
S'curve'
p91
sS'x'
F1045
sg17
I01
sS'y'
F293
s(dp92
S'y'
F293
sS'x'
F711
sg17
I00
s(dp93
S'y'
F384
sS'x'
F281
sg17
I00
s(dp94
g15
S'curve'
p95
sS'x'
F242
sg17
I01
sS'y'
F391
s(dp96
S'y'
F393
sS'x'
F233
sg17
I00
s(dp97
S'y'
F394
sS'x'
F226
sg17
I00
s(dp98
g15
S'curve'
p99
sS'x'
F219
sg17
I01
sS'y'
F394
s(dp100
S'y'
F394
sS'x'
F193
sg17
I00
s(dp101
S'y'
F381
sS'x'
F179
sg17
I00
s(dp102
g15
S'curve'
p103
sS'x'
F175
sg17
I01
sS'y'
F350
s(dp104
g15
S'line'
p105
sS'x'
F149
sg17
I00
sS'y'
F143
s(dp106
S'y'
F138
sS'x'
F148
sg17
I00
s(dp107
S'y'
F134
sS'x'
F148
sg17
I00
s(dp108
g15
S'curve'
p109
sS'x'
F148
sg17
I01
sS'y'
F130
s(dp110
S'y'
F100
sS'x'
F148
sg17
I00
s(dp111
S'y'
F83
sS'x'
F164
sg17
I00
s(dp112
g15
S'curve'
p113
sS'x'
F201
sg17
I01
sS'y'
F73
s(dp114
S'y'
F40
sS'x'
F313
sg17
I00
s(dp115
S'y'
F-40
sS'x'
F773
sg17
I00
stp116
stp117
sS'components'
p118
(tsS'anchors'
p119
(tsss."
LayerCount: 2
Fore
SplineSet
223 0 m 2
 1758 0 l 2
 1796 0 1810 10 1810 52 c 2
 1810 103 l 2
 1810 149 1792 167 1766 167 c 2
 482 167 l 2
 445 167 411 188 411 222 c 0
 411 227 412 233 414 239 c 0
 586 826 1851 273 1851 991 c 0
 1851 1359 1480 1478 935 1478 c 1
 699 1477 337 1391 228 1352 c 1
 203 1340 193 1320 193 1283 c 0
 193 1279 193 1275 225 1208 c 1
 230 1187 248 1178 280 1178 c 0
 293 1178 306 1182 324 1188 c 0
 347 1196 651 1301 943 1301 c 0
 1482 1301 1621 1197 1621 972 c 0
 1621 493 313 1069 133 120 c 0
 131 109 130 100 130 90 c 0
 130 34 164 0 223 0 c 2
EndSplineSet
EndChar

StartChar: u
Encoding: 85 117 143
Width: 1544
VWidth: 0
Flags: HW
PickledData: "(dp1
S'com.typemytype.robofont.layerData'
p2
(dp3
S'b'
(dp4
S'name'
p5
S'u'
sS'lib'
p6
(dp7
sS'unicodes'
p8
(tsS'width'
p9
I1542
sS'contours'
p10
(tsS'components'
p11
(tsS'anchors'
p12
(tsss."
AnchorPoint: "bot" 1323.5 12.4 basechar 0
AnchorPoint: "top" 778 997 basechar 0
LayerCount: 2
Fore
SplineSet
665 -47 m 0
 855 -47 1044 19 1174 180 c 0
 1180 187 1186 195 1194 195 c 0
 1202 195 1204 190 1209 182 c 1
 1236 64 l 2
 1247 14 1269 0 1316 0 c 2
 1336 0 l 2
 1379 0 1393 34 1393 77 c 2
 1393 939 l 2
 1393 982 1369 1006 1326 1006 c 2
 1231 1006 l 2
 1188 1006 1165 982 1165 939 c 2
 1165 400 l 2
 1165 267 905 111 708 111 c 0
 522 111 373 175 373 400 c 2
 373 939 l 2
 373 982 349 1006 306 1006 c 2
 212 1006 l 2
 169 1006 145 982 145 939 c 2
 145 454 l 2
 145 118 353 -47 665 -47 c 0
EndSplineSet
EndChar

StartChar: underscore
Encoding: 63 95 144
Width: 1171
VWidth: 0
Flags: W
PickledData: "(dp1
S'com.typemytype.robofont.layerData'
p2
(dp3
S'b'
(dp4
S'name'
p5
S'underscore'
p6
sS'lib'
p7
(dp8
sS'unicodes'
p9
(tsS'width'
p10
I1165
sS'contours'
p11
(tsS'components'
p12
(tsS'anchors'
p13
(tsss."
LayerCount: 2
Fore
SplineSet
168 -149 m 2
 1000 -149 l 2
 1043 -149 1064 -135 1064 -92 c 2
 1064 -56 l 2
 1064 -13 1043 0 1000 0 c 2
 168 0 l 2
 125 0 104 -13 104 -56 c 2
 104 -92 l 2
 104 -135 125 -149 168 -149 c 2
EndSplineSet
EndChar

StartChar: v
Encoding: 86 118 145
Width: 1572
VWidth: 0
Flags: W
PickledData: "(dp1
S'com.typemytype.robofont.layerData'
p2
(dp3
S'b'
(dp4
S'name'
p5
S'v'
sS'lib'
p6
(dp7
sS'unicodes'
p8
(tsS'width'
p9
I1570
sS'contours'
p10
(tsS'components'
p11
(tsS'anchors'
p12
(tsss."
LayerCount: 2
Fore
SplineSet
739 1 m 2
 849 1 l 2
 889 1 927 27 955 67 c 1
 1436 939 l 1
 1448 957 1454 971 1454 982 c 0
 1454 998 1441 1006 1416 1006 c 2
 1292 1006 l 2
 1249 1006 1221 985 1198 939 c 2
 813 175 l 2
 810 169 805 166 801 166 c 0
 796 166 791 169 788 175 c 2
 364 939 l 2
 340 982 323 1006 280 1006 c 2
 156 1006 l 2
 128 1006 114 996 114 977 c 0
 114 967 118 954 126 939 c 2
 643 67 l 2
 666 27 700 1 739 1 c 2
EndSplineSet
EndChar

StartChar: w
Encoding: 87 119 146
Width: 2509
VWidth: 0
Flags: HW
PickledData: "(dp1
S'com.typemytype.robofont.layerData'
p2
(dp3
S'b'
(dp4
S'name'
p5
S'w'
sS'lib'
p6
(dp7
sS'unicodes'
p8
(tsS'width'
p9
I2507
sS'contours'
p10
(tsS'components'
p11
(tsS'anchors'
p12
(tsss."
AnchorPoint: "top" 1242 997 basechar 0
LayerCount: 2
Fore
SplineSet
685 0 m 2
 803 0 l 2
 843 0 888 23 909 67 c 2
 1242 781 l 2
 1243 784 1248 788 1253 788 c 0
 1257 788 1260 787 1263 781 c 2
 1625 67 l 2
 1646 26 1682 0 1721 0 c 2
 1841 0 l 2
 1881 0 1926 23 1947 67 c 2
 2372 939 l 1
 2384 957 2390 971 2390 982 c 0
 2390 998 2377 1006 2352 1006 c 2
 2228 1006 l 2
 2185 1006 2155 986 2134 939 c 2
 1798 183 l 2
 1797 180 1791 175 1785 175 c 0
 1781 175 1777 177 1774 183 c 2
 1380 939 l 2
 1358 980 1341 1006 1304 1006 c 2
 1212 1006 l 2
 1169 1006 1140 986 1118 939 c 2
 763 183 l 2
 760 177 756 173 751 173 c 0
 747 173 743 176 739 183 c 2
 364 939 l 2
 342 983 323 1006 280 1006 c 2
 156 1006 l 2
 128 1006 114 996 114 977 c 0
 114 967 118 954 126 939 c 2
 589 67 l 1
 612 27 646 0 685 0 c 2
EndSplineSet
EndChar

StartChar: x
Encoding: 88 120 147
Width: 1712
VWidth: 0
Flags: W
PickledData: "(dp1
S'com.typemytype.robofont.layerData'
p2
(dp3
S'b'
(dp4
S'name'
p5
S'x'
sS'lib'
p6
(dp7
sS'unicodes'
p8
(tsS'width'
p9
I1711
sS'contours'
p10
((dp11
S'points'
p12
((dp13
S'y'
F41
sS'x'
F150
sS'smooth'
p14
I00
s(dp15
S'y'
F33
sS'x'
F147
sg14
I00
s(dp16
S'segmentType'
p17
S'curve'
p18
sS'x'
F147
sg14
I01
sS'y'
F26
s(dp19
S'y'
F13
sS'x'
F147
sg14
I00
s(dp20
S'y'
F0
sS'x'
F157
sg14
I00
s(dp21
g17
S'curve'
p22
sS'x'
F173
sg14
I01
sS'y'
F0
s(dp23
g17
S'line'
p24
sS'x'
F735
sg14
I01
sS'y'
F0
s(dp25
S'y'
F0
sS'x'
F782
sg14
I00
s(dp26
S'y'
F18
sS'x'
F836
sg14
I00
s(dp27
g17
S'curve'
p28
sS'x'
F873
sg14
I01
sS'y'
F47
s(dp29
g17
S'line'
p30
sS'x'
F1039
sg14
I01
sS'y'
F174
s(dp31
S'y'
F180
sS'x'
F1047
sg14
I00
s(dp32
S'y'
F184
sS'x'
F1057
sg14
I00
s(dp33
g17
S'curve'
p34
sS'x'
F1067
sg14
I01
sS'y'
F184
s(dp35
S'y'
F184
sS'x'
F1078
sg14
I00
s(dp36
S'y'
F180
sS'x'
F1088
sg14
I00
s(dp37
g17
S'curve'
p38
sS'x'
F1096
sg14
I01
sS'y'
F173
s(dp39
g17
S'line'
p40
sS'x'
F1238
sg14
I01
sS'y'
F50
s(dp41
S'y'
F20
sS'x'
F1273
sg14
I00
s(dp42
S'y'
F0
sS'x'
F1326
sg14
I00
s(dp43
g17
S'curve'
p44
sS'x'
F1373
sg14
I01
sS'y'
F0
s(dp45
g17
S'line'
p46
sS'x'
F2112
sg14
I01
sS'y'
F0
s(dp47
S'y'
F0
sS'x'
F2129
sg14
I00
s(dp48
S'y'
F14
sS'x'
F2140
sg14
I00
s(dp49
g17
S'curve'
p50
sS'x'
F2140
sg14
I01
sS'y'
F28
s(dp51
S'y'
F35
sS'x'
F2140
sg14
I00
s(dp52
S'y'
F42
sS'x'
F2137
sg14
I00
s(dp53
g17
S'curve'
p54
sS'x'
F2130
sg14
I01
sS'y'
F48
s(dp55
g17
S'line'
p56
sS'x'
F1515
sg14
I00
sS'y'
F550
s(dp57
S'y'
F555
sS'x'
F1508
sg14
I00
s(dp58
S'y'
F563
sS'x'
F1504
sg14
I00
s(dp59
g17
S'curve'
p60
sS'x'
F1504
sg14
I01
sS'y'
F572
s(dp61
S'y'
F580
sS'x'
F1504
sg14
I00
s(dp62
S'y'
F589
sS'x'
F1508
sg14
I00
s(dp63
g17
S'curve'
p64
sS'x'
F1516
sg14
I01
sS'y'
F595
s(dp65
g17
S'line'
p66
sS'x'
F2010
sg14
I01
sS'y'
F960
s(dp67
S'y'
F966
sS'x'
F2017
sg14
I00
s(dp68
S'y'
F973
sS'x'
F2021
sg14
I00
s(dp69
g17
S'curve'
p70
sS'x'
F2021
sg14
I01
sS'y'
F981
s(dp71
S'y'
F994
sS'x'
F2021
sg14
I00
s(dp72
S'y'
F1006
sS'x'
F2011
sg14
I00
s(dp73
g17
S'curve'
p74
sS'x'
F1995
sg14
I01
sS'y'
F1006
s(dp75
g17
S'line'
p76
sS'x'
F1473
sg14
I01
sS'y'
F1006
s(dp77
S'y'
F1006
sS'x'
F1426
sg14
I00
s(dp78
S'y'
F987
sS'x'
F1373
sg14
I00
s(dp79
g17
S'curve'
p80
sS'x'
F1336
sg14
I01
sS'y'
F958
s(dp81
g17
S'line'
p82
sS'x'
F1202
sg14
I01
sS'y'
F848
s(dp83
S'y'
F842
sS'x'
F1194
sg14
I00
s(dp84
S'y'
F838
sS'x'
F1184
sg14
I00
s(dp85
g17
S'curve'
p86
sS'x'
F1174
sg14
I01
sS'y'
F838
s(dp87
S'y'
F838
sS'x'
F1163
sg14
I00
s(dp88
S'y'
F842
sS'x'
F1153
sg14
I00
s(dp89
g17
S'curve'
p90
sS'x'
F1145
sg14
I01
sS'y'
F849
s(dp91
g17
S'line'
p92
sS'x'
F1020
sg14
I01
sS'y'
F956
s(dp93
S'y'
F987
sS'x'
F985
sg14
I00
s(dp94
S'y'
F1006
sS'x'
F932
sg14
I00
s(dp95
g17
S'curve'
p96
sS'x'
F885
sg14
I01
sS'y'
F1006
s(dp97
g17
S'line'
p98
sS'x'
F146
sg14
I01
sS'y'
F1006
s(dp99
S'y'
F1006
sS'x'
F129
sg14
I00
s(dp100
S'y'
F992
sS'x'
F118
sg14
I00
s(dp101
g17
S'curve'
p102
sS'x'
F118
sg14
I01
sS'y'
F978
s(dp103
S'y'
F971
sS'x'
F118
sg14
I00
s(dp104
S'y'
F964
sS'x'
F121
sg14
I00
s(dp105
g17
S'curve'
p106
sS'x'
F128
sg14
I01
sS'y'
F958
s(dp107
g17
S'line'
p108
sS'x'
F699
sg14
I01
sS'y'
F494
s(dp109
S'y'
F489
sS'x'
F706
sg14
I00
s(dp110
S'y'
F481
sS'x'
F710
sg14
I00
s(dp111
g17
S'curve'
p112
sS'x'
F710
sg14
I01
sS'y'
F472
s(dp113
S'y'
F464
sS'x'
F710
sg14
I00
s(dp114
S'y'
F455
sS'x'
F706
sg14
I00
s(dp115
g17
S'curve'
p116
sS'x'
F698
sg14
I01
sS'y'
F449
s(dp117
g17
S'line'
p118
sS'x'
F157
sg14
I01
sS'y'
F46
stp119
stp120
sS'components'
p121
(tsS'anchors'
p122
(tsss."
LayerCount: 2
Fore
SplineSet
156 0 m 2
 285 0 l 2
 332 0 386 18 423 47 c 0
 496 103 655 229 837 375 c 1
 848 380 856 381 861 381 c 0
 869 381 872 378 876 375 c 0
 1058 228 1218 98 1277 50 c 0
 1313 21 1365 0 1412 0 c 2
 1549 0 l 2
 1566 0 1577 14 1577 28 c 0
 1577 35 1574 42 1567 48 c 0
 1352 219 1167 368 1011 493 c 1
 1007 499 1006 504 1006 507 c 0
 1006 511 1008 513 1011 515 c 0
 1211 678 1418 845 1560 960 c 0
 1567 965 1571 973 1571 981 c 0
 1571 994 1561 1006 1545 1006 c 2
 1406 1006 l 2
 1359 1006 1336 987 1299 958 c 0
 1231 903 1074 777 874 622 c 1
 867 619 863 618 860 618 c 0
 855 618 852 620 850 622 c 0
 644 787 505 899 434 956 c 0
 397 985 369 1006 322 1006 c 2
 179 1006 l 2
 162 1006 151 992 151 978 c 0
 151 971 154 963 161 958 c 0
 241 892 474 702 709 511 c 1
 712 506 714 502 714 499 c 0
 714 495 711 494 709 492 c 0
 528 349 328 193 140 46 c 0
 133 41 130 33 130 26 c 0
 130 13 140 0 156 0 c 2
EndSplineSet
EndChar

StartChar: y
Encoding: 89 121 148
Width: 1594
VWidth: 0
Flags: HW
PickledData: "(dp1
S'com.typemytype.robofont.layerData'
p2
(dp3
S'b'
(dp4
S'name'
p5
S'y'
sS'lib'
p6
(dp7
sS'unicodes'
p8
(tsS'width'
p9
I1593
sS'contours'
p10
((dp11
S'points'
p12
((dp13
S'segmentType'
p14
S'curve'
p15
sS'x'
F443
sS'smooth'
p16
I01
sS'y'
F-477
s(dp17
S'y'
F-477
sS'x'
F759
sg16
I00
s(dp18
S'y'
F-270
sS'x'
F836
sg16
I00
s(dp19
g14
S'curve'
p20
sS'x'
F867
sg16
I01
sS'y'
F-210
s(dp21
g14
S'line'
p22
sS'x'
F1465
sg16
I01
sS'y'
F941
s(dp23
S'y'
F948
sS'x'
F1469
sg16
I00
s(dp24
S'y'
F955
sS'x'
F1469
sg16
I00
s(dp25
g14
S'curve'
p26
sS'x'
F1469
sg16
I01
sS'y'
F962
s(dp27
S'y'
F988
sS'x'
F1468
sg16
I00
s(dp28
S'y'
F1011
sS'x'
F1446
sg16
I00
s(dp29
g14
S'curve'
p30
sS'x'
F1417
sg16
I01
sS'y'
F1011
s(dp31
g14
S'line'
p32
sS'x'
F1298
sg16
I01
sS'y'
F1010
s(dp33
S'y'
F1009
sS'x'
F1252
sg16
I00
s(dp34
S'y'
F995
sS'x'
F1224
sg16
I00
s(dp35
g14
S'curve'
p36
sS'x'
F1198
sg16
I00
sS'y'
F937
s(dp37
S'y'
F936
sS'x'
F1198
sg16
I00
s(dp38
S'y'
F-133
sS'x'
F655
sg16
I00
s(dp39
g14
S'curve'
p40
sS'x'
F655
sg16
I00
sS'y'
F-134
s(dp41
S'y'
F-256
sS'x'
F594
sg16
I00
s(dp42
S'y'
F-273
sS'x'
F500
sg16
I00
s(dp43
g14
S'curve'
p44
sS'x'
F443
sg16
I01
sS'y'
F-274
s(dp45
g14
S'line'
p46
sS'x'
F425
sg16
I01
sS'y'
F-274
s(dp47
S'y'
F-274
sS'x'
F394
sg16
I00
s(dp48
S'y'
F-266
sS'x'
F293
sg16
I00
s(dp49
g14
S'curve'
p50
sS'x'
F242
sg16
I01
sS'y'
F-249
s(dp51
S'y'
F-247
sS'x'
F235
sg16
I00
s(dp52
S'y'
F-245
sS'x'
F227
sg16
I00
s(dp53
g14
S'curve'
p54
sS'x'
F220
sg16
I01
sS'y'
F-245
s(dp55
S'y'
F-245
sS'x'
F195
sg16
I00
s(dp56
S'y'
F-257
sS'x'
F169
sg16
I00
s(dp57
g14
S'curve'
p58
sS'x'
F160
sg16
I01
sS'y'
F-280
s(dp59
g14
S'line'
p60
sS'x'
F136
sg16
I01
sS'y'
F-347
s(dp61
S'y'
F-359
sS'x'
F132
sg16
I00
s(dp62
S'y'
F-371
sS'x'
F130
sg16
I00
s(dp63
g14
S'curve'
p64
sS'x'
F131
sg16
I01
sS'y'
F-383
s(dp65
S'y'
F-412
sS'x'
F132
sg16
I00
s(dp66
S'y'
F-418
sS'x'
F138
sg16
I00
s(dp67
g14
S'curve'
p68
sS'x'
F159
sg16
I01
sS'y'
F-428
s(dp69
S'y'
F-458
sS'x'
F220
sg16
I00
s(dp70
S'y'
F-477
sS'x'
F341
sg16
I00
stp71
stp72
sS'components'
p73
(tsS'anchors'
p74
(tsss."
AnchorPoint: "top" 778 1010 basechar 0
LayerCount: 2
Fore
SplineSet
437 -443 m 0
 695 -443 774 -321 836 -210 c 2
 1471 936 l 2
 1475 943 1475 950 1475 957 c 0
 1474 983 1452 1006 1423 1006 c 2
 1316 1006 l 1
 1270 1005 1242 991 1216 933 c 0
 1216 932 861 251 836 205 c 0
 828 191 823 185 815 185 c 0
 805 185 798 192 795 198 c 2
 369 939 l 2
 345 982 328 1006 285 1006 c 2
 161 1006 l 2
 133 1006 119 996 119 977 c 0
 119 967 122 954 131 939 c 2
 682 14 l 1
 712 -36 l 1
 680 -96 661 -134 661 -134 c 1
 600 -256 505 -278 448 -279 c 1
 430 -279 l 2
 399 -279 299 -266 248 -249 c 0
 241 -247 233 -245 226 -245 c 0
 201 -245 175 -257 166 -280 c 1
 158 -313 l 1
 154 -325 152 -337 153 -349 c 0
 154 -378 160 -384 181 -394 c 0
 242 -424 335 -443 437 -443 c 0
EndSplineSet
EndChar

StartChar: yen
Encoding: 99 165 149
Width: 1686
VWidth: 0
Flags: W
PickledData: "(dp1
S'com.typemytype.robofont.layerData'
p2
(dp3
S'b'
(dp4
S'name'
p5
S'yen'
p6
sS'lib'
p7
(dp8
sS'unicodes'
p9
(tsS'width'
p10
I1687
sS'contours'
p11
(tsS'components'
p12
(tsS'anchors'
p13
(tsss."
LayerCount: 2
Fore
SplineSet
795 0 m 2
 889 0 l 2
 932 0 956 24 956 67 c 2
 956 233 l 1
 1225 233 l 2
 1268 233 1272 247 1272 290 c 2
 1272 321 l 2
 1272 364 1268 378 1225 378 c 2
 956 378 l 1
 956 572 l 1
 1257 572 l 2
 1300 572 1304 586 1304 629 c 2
 1304 660 l 2
 1304 703 1300 717 1257 717 c 2
 956 717 l 1
 1577 1371 l 1
 1597 1389 1604 1407 1604 1418 c 0
 1604 1431 1593 1438 1570 1438 c 2
 1426 1438 l 2
 1383 1438 1338 1414 1299 1371 c 2
 847 882 l 1
 387 1371 l 1
 344 1414 297 1438 254 1438 c 2
 110 1438 l 2
 88 1438 77 1432 77 1420 c 0
 77 1409 87 1391 109 1371 c 1
 724 717 l 1
 423 717 l 2
 380 717 376 703 376 660 c 2
 376 629 l 2
 376 586 380 572 423 572 c 2
 728 572 l 1
 728 378 l 1
 487 378 l 2
 444 378 440 364 440 321 c 2
 440 290 l 2
 440 247 444 233 487 233 c 2
 728 233 l 1
 728 67 l 2
 728 24 752 0 795 0 c 2
EndSplineSet
EndChar

StartChar: z
Encoding: 90 122 150
Width: 1463
VWidth: 0
Flags: HW
PickledData: "(dp1
S'com.typemytype.robofont.layerData'
p2
(dp3
S'b'
(dp4
S'name'
p5
S'z'
sS'lib'
p6
(dp7
sS'unicodes'
p8
(tsS'width'
p9
I1463
sS'contours'
p10
((dp11
S'points'
p12
((dp13
S'segmentType'
p14
S'curve'
p15
sS'x'
F1020
sS'smooth'
p16
I01
sS'y'
F-889
s(dp17
S'y'
F-889
sS'x'
F1185
sg16
I00
s(dp18
S'y'
F-874
sS'x'
F1254
sg16
I00
s(dp19
g14
S'curve'
p20
sS'x'
F1333
sg16
I01
sS'y'
F-843
s(dp21
S'y'
F-827
sS'x'
F1374
sg16
I00
s(dp22
S'y'
F-800
sS'x'
F1389
sg16
I00
s(dp23
g14
S'curve'
p24
sS'x'
F1389
sg16
I01
sS'y'
F-758
s(dp25
g14
S'line'
p26
sS'x'
F1389
sg16
I01
sS'y'
F-745
s(dp27
S'y'
F-710
sS'x'
F1389
sg16
I00
s(dp28
S'y'
F-655
sS'x'
F1362
sg16
I00
s(dp29
g14
S'curve'
p30
sS'x'
F1305
sg16
I01
sS'y'
F-674
s(dp31
S'y'
F-694
sS'x'
F1244
sg16
I00
s(dp32
S'y'
F-717
sS'x'
F1159
sg16
I00
s(dp33
g14
S'curve'
p34
sS'x'
F1055
sg16
I01
sS'y'
F-717
s(dp35
S'y'
F-717
sS'x'
F904
sg16
I00
s(dp36
S'y'
F-661
sS'x'
F819
sg16
I00
s(dp37
g14
S'curve'
p38
sS'x'
F819
sg16
I01
sS'y'
F-523
s(dp39
g14
S'line'
p40
sS'x'
F819
sg16
I01
sS'y'
F-27
s(dp41
S'y'
F-7
sS'x'
F819
sg16
I00
s(dp42
S'y'
F0
sS'x'
F826
sg16
I00
s(dp43
g14
S'curve'
p44
sS'x'
F846
sg16
I01
sS'y'
F0
s(dp45
g14
S'line'
p46
sS'x'
F1236
sg16
I01
sS'y'
F0
s(dp47
S'y'
F0
sS'x'
F1279
sg16
I00
s(dp48
S'y'
F24
sS'x'
F1303
sg16
I00
s(dp49
g14
S'curve'
p50
sS'x'
F1303
sg16
I01
sS'y'
F67
s(dp51
g14
S'line'
p52
sS'x'
F1303
sg16
I01
sS'y'
F91
s(dp53
S'y'
F134
sS'x'
F1303
sg16
I00
s(dp54
S'y'
F158
sS'x'
F1279
sg16
I00
s(dp55
g14
S'curve'
p56
sS'x'
F1236
sg16
I01
sS'y'
F158
s(dp57
g14
S'line'
p58
sS'x'
F846
sg16
I01
sS'y'
F158
s(dp59
S'y'
F158
sS'x'
F826
sg16
I00
s(dp60
S'y'
F165
sS'x'
F819
sg16
I00
s(dp61
g14
S'curve'
p62
sS'x'
F819
sg16
I01
sS'y'
F185
s(dp63
g14
S'line'
p64
sS'x'
F819
sg16
I01
sS'y'
F560
s(dp65
S'y'
F603
sS'x'
F819
sg16
I00
s(dp66
S'y'
F627
sS'x'
F795
sg16
I00
s(dp67
g14
S'curve'
p68
sS'x'
F752
sg16
I01
sS'y'
F627
s(dp69
g14
S'line'
p70
sS'x'
F728
sg16
I01
sS'y'
F627
s(dp71
S'y'
F627
sS'x'
F685
sg16
I00
s(dp72
S'y'
F602
sS'x'
F669
sg16
I00
s(dp73
g14
S'curve'
p74
sS'x'
F661
sg16
I01
sS'y'
F560
s(dp75
g14
S'line'
p76
sS'x'
F591
sg16
I00
sS'y'
F185
s(dp77
S'y'
F165
sS'x'
F591
sg16
I00
s(dp78
S'y'
F158
sS'x'
F584
sg16
I00
s(dp79
g14
S'curve'
p80
sS'x'
F564
sg16
I01
sS'y'
F158
s(dp81
g14
S'line'
p82
sS'x'
F419
sg16
I01
sS'y'
F158
s(dp83
S'y'
F158
sS'x'
F376
sg16
I00
s(dp84
S'y'
F134
sS'x'
F352
sg16
I00
s(dp85
g14
S'curve'
p86
sS'x'
F352
sg16
I01
sS'y'
F91
s(dp87
g14
S'line'
p88
sS'x'
F352
sg16
I01
sS'y'
F67
s(dp89
S'y'
F24
sS'x'
F352
sg16
I00
s(dp90
S'y'
F0
sS'x'
F376
sg16
I00
s(dp91
g14
S'curve'
p92
sS'x'
F419
sg16
I01
sS'y'
F0
s(dp93
g14
S'line'
p94
sS'x'
F564
sg16
I01
sS'y'
F0
s(dp95
S'y'
F0
sS'x'
F584
sg16
I00
s(dp96
S'y'
F-7
sS'x'
F591
sg16
I00
s(dp97
g14
S'curve'
p98
sS'x'
F591
sg16
I01
sS'y'
F-27
s(dp99
g14
S'line'
p100
sS'x'
F591
sg16
I01
sS'y'
F-478
s(dp101
S'y'
F-705
sS'x'
F591
sg16
I00
s(dp102
S'y'
F-889
sS'x'
F736
sg16
I00
stp103
stp104
sS'components'
p105
(tsS'anchors'
p106
(tsss."
AnchorPoint: "top" 724 1010 basechar 0
LayerCount: 2
Fore
SplineSet
209 0 m 2
 1290 0 l 2
 1310 0 1327 17 1327 37 c 2
 1327 121 l 2
 1327 141 1310 158 1290 158 c 2
 451 158 l 1
 1259 807 l 2
 1276 821 1288 845 1288 868 c 2
 1288 969 l 2
 1288 989 1241 1006 1221 1006 c 2
 183 1006 l 2
 163 1006 146 989 146 969 c 2
 146 885 l 2
 146 865 163 848 183 848 c 2
 1024 848 l 1
 171 181 l 1
 154 170 142 144 142 121 c 2
 142 37 l 2
 142 17 189 0 209 0 c 2
EndSplineSet
EndChar

StartChar: zero
Encoding: 16 48 151
Width: 1936
VWidth: 0
Flags: W
PickledData: "(dp1
S'com.typemytype.robofont.guides'
p2
(tsS'com.typemytype.robofont.layerData'
p3
(dp4
S'b'
(dp5
S'name'
p6
S'zero'
p7
sS'lib'
p8
(dp9
sS'unicodes'
p10
(tsS'width'
p11
I1935
sS'contours'
p12
(tsS'components'
p13
(tsS'anchors'
p14
(tsss."
LayerCount: 2
Fore
SplineSet
968 135 m 0
 581 135 365 282 365 732 c 0
 365 1112 568 1299 968 1299 c 0
 1371 1299 1571 1110 1571 732 c 0
 1571 282 1358 135 968 135 c 0
968 -41 m 0
 1429 -41 1800 153 1800 732 c 0
 1800 1264 1429 1475 968 1475 c 0
 510 1475 136 1264 136 732 c 0
 136 153 510 -41 968 -41 c 0
EndSplineSet
EndChar

StartChar: dotlessj
Encoding: 360 567 305
Width: 786
VWidth: 0
Flags: HW
AnchorPoint: "top" 509 1010 basechar 0
LayerCount: 2
Fore
SplineSet
109 -381 m 2
 200 -381 l 2
 506 -381 624 -259 626 6 c 1
 626 939 l 2
 626 982 602 1006 559 1006 c 2
 465 1006 l 2
 422 1006 398 982 398 939 c 2
 398 91 l 2
 398 -95 402 -205 233 -205 c 2
 109 -205 l 2
 66 -205 50 -223 50 -266 c 2
 50 -314 l 2
 50 -357 66 -381 109 -381 c 2
EndSplineSet
EndChar

StartChar: Eth
Encoding: 142 208 306
AltUni2: 000110.ffffffff.0
Width: 2214
VWidth: 0
Flags: HW
LayerCount: 2
Fore
SplineSet
227 0 m 2
 1139 0 l 2
 1600 0 2080 102 2080 721 c 0
 2080 1293 1600 1438 1139 1438 c 2
 227 1438 l 2
 184 1438 160 1414 160 1371 c 2
 160 831 l 1
 58 831 l 2
 15 831 1 807 1 764 c 2
 1 741 l 2
 1 698 15 674 58 674 c 2
 160 674 l 1
 160 67 l 2
 160 24 184 0 227 0 c 2
1141 160 m 2
 415 160 l 1
 388 182 l 1
 388 674 l 1
 744 674 l 2
 787 674 801 698 801 741 c 2
 801 764 l 2
 801 807 787 831 744 831 c 2
 388 831 l 1
 388 1260 l 1
 409 1278 l 1
 1141 1278 l 2
 1544 1278 1851 1139 1851 721 c 0
 1851 231 1531 160 1141 160 c 2
EndSplineSet
EndChar

StartChar: dcroat
Encoding: 207 273 307
Width: 1681
VWidth: 0
Flags: HW
LayerCount: 2
Fore
SplineSet
824 119 m 0
 570 119 358 243 358 504 c 0
 358 788 586 893 824 893 c 0
 1066 893 1294 786 1293 504 c 1
 1294 246 1082 119 824 119 c 0
789 -41 m 0
 995.103288113 -41 1219.61488072 49.922321084 1333 220 c 1
 1348.74953434 172.751396974 1363.86105845 118.77350544 1386 71 c 1
 1406 31 1428 0 1454 0 c 2
 1468 0 l 2
 1511 0 1521 24 1521 67 c 2
 1521 1157.5 l 1
 1621.75 1157.5 l 2
 1664.75 1157.5 1678.75 1181.5 1678.75 1224.5 c 2
 1678.75 1247.5 l 2
 1678.75 1290.5 1664.75 1314.5 1621.75 1314.5 c 2
 1521 1314.5 l 1
 1521 1371 l 2
 1521 1414 1497 1438 1454 1438 c 2
 1360 1438 l 2
 1317 1438 1293 1414 1293 1371 c 2
 1293 1314.5 l 1
 935.75 1314.5 l 2
 892.75 1314.5 878.75 1290.5 878.75 1247.5 c 2
 878.75 1224.5 l 2
 878.75 1181.5 892.75 1157.5 935.75 1157.5 c 2
 1293 1157.5 l 1
 1293 1054 1293 950.5 1293 847 c 1
 1290 852 1286 856 1282 860 c 0
 1175 990 1004 1053 807 1053 c 0
 483 1053 129 912 129 504 c 0
 129 107 495 -41 789 -41 c 0
EndSplineSet
EndChar

StartChar: uni0307
Encoding: 369 775 327
Width: 546
VWidth: 0
Flags: HW
AnchorPoint: "top" 273 1106 mark 0
LayerCount: 2
Fore
SplineSet
205 1338.40039062 m 6
 342 1338.40039062 l 6
 385 1338.40039062 419 1372.40039062 419 1415.40039062 c 6
 419 1559.40039062 l 6
 419 1602.40039062 385 1636.40039062 342 1636.40039062 c 6
 205 1636.40039062 l 6
 162 1636.40039062 128 1602.40039062 128 1559.40039062 c 6
 128 1415.40039062 l 6
 128 1372.40039062 162 1338.40039062 205 1338.40039062 c 6
EndSplineSet
EndChar

StartChar: uni030F
Encoding: 370 783 328
Width: 1745
VWidth: 0
Flags: HW
AnchorPoint: "top" 847 1215 mark 0
LayerCount: 2
Fore
SplineSet
1084 1442 m 6
 1064 1442 l 6
 1026 1442 1023 1457 1008 1481 c 6
 806 1809 l 6
 799 1821 794 1835 794 1846 c 4
 794 1862 802 1874 822 1874 c 6
 988 1874 l 6
 1032 1874 1050 1862 1058 1819 c 6
 1122 1509 l 6
 1125 1495 1126 1483 1126 1474 c 4
 1126 1447 1113 1442 1084 1442 c 6
720 1442 m 6
 700 1442 l 6
 662 1442 659 1457 644 1481 c 6
 442 1809 l 6
 435 1821 430 1835 430 1846 c 4
 430 1862 438 1874 458 1874 c 6
 624 1874 l 6
 668 1874 688 1862 696 1819 c 6
 758 1509 l 6
 761 1495 762 1483 762 1474 c 4
 762 1447 749 1442 720 1442 c 6
EndSplineSet
EndChar

StartChar: uniFB00
Encoding: 421 64256 376
Width: 2070
VWidth: 0
Flags: HW
LayerCount: 2
Fore
SplineSet
1279 0 m 6
 1353 0 l 6
 1396 0 1430 34 1430 77 c 6
 1430 821 l 6
 1430 841 1433 858 1453 858 c 6
 1847 858 l 6
 1890 858 1914 867 1914 910 c 6
 1914 951 l 6
 1914 994 1890 1006 1847 1006 c 6
 1442 1006 l 6
 1432 1006 1430 1014 1430 1017 c 6
 1430 1060 l 6
 1430 1199 1469 1323 1690 1323 c 4
 1756 1323 1892 1290 1897 1290 c 4
 1931 1290 1938 1297 1938 1334 c 6
 1938 1388 l 6
 1938 1416 1916 1431 1888 1438 c 5
 1870 1441 1748 1475 1634 1475 c 4
 1419 1475 1203 1381 1203 1041 c 4
 1203 1019 1202 1006 1180 1006 c 6
 601 1006 l 2
 591 1006 589 1014 589 1017 c 2
 589 1060 l 2
 589 1199 628 1323 849 1323 c 0
 915 1323 1051 1290 1056 1290 c 0
 1090 1290 1097 1297 1097 1334 c 2
 1097 1388 l 2
 1097 1416 1075 1431 1047 1438 c 1
 1029 1441 907 1475 793 1475 c 0
 578 1475 362 1381 362 1041 c 0
 362 1019 361 1006 339 1006 c 2
 189 1006 l 2
 146 1006 122 988 122 945 c 2
 122 910 l 2
 122 867 146 858 189 858 c 2
 341 858 l 2
 361 858 361 841 361 821 c 2
 361 77 l 2
 361 34 395 0 438 0 c 2
 512 0 l 2
 555 0 589 34 589 77 c 2
 589 821 l 2
 589 841 592 858 612 858 c 2
 1182 858 l 6
 1202 858 1202 841 1202 821 c 6
 1202 77 l 6
 1202 34 1236 0 1279 0 c 6
EndSplineSet
EndChar

StartChar: uniFB01
Encoding: 422 64257 377
Width: 1739
VWidth: 0
Flags: HW
LayerCount: 2
Fore
SplineSet
1419 1179 m 6
 1513 1179 l 6
 1556 1179 1580 1203 1580 1246 c 6
 1580 1344 l 6
 1580 1387 1556 1411 1513 1411 c 6
 1419 1411 l 6
 1376 1411 1352 1387 1352 1344 c 6
 1352 1246 l 6
 1352 1203 1376 1179 1419 1179 c 6
1419 0 m 6
 1513 0 l 6
 1556 0 1580 24 1580 67 c 6
 1580 939 l 6
 1580 982 1556 1006 1513 1006 c 6
 601 1006 l 2
 591 1006 589 1014 589 1017 c 2
 589 1060 l 2
 589 1199 628 1323 849 1323 c 0
 915 1323 1051 1290 1056 1290 c 0
 1090 1290 1097 1297 1097 1334 c 2
 1097 1388 l 2
 1097 1416 1075 1431 1047 1438 c 1
 1029 1441 907 1475 793 1475 c 0
 578 1475 362 1381 362 1041 c 0
 362 1019 361 1006 339 1006 c 2
 189 1006 l 2
 146 1006 122 988 122 945 c 2
 122 910 l 2
 122 867 146 858 189 858 c 2
 341 858 l 2
 361 858 361 841 361 821 c 2
 361 77 l 2
 361 34 395 0 438 0 c 2
 512 0 l 2
 555 0 589 34 589 77 c 2
 589 821 l 2
 589 841 592 858 612 858 c 2
 1352 858 l 5
 1352 67 l 6
 1352 24 1376 0 1419 0 c 6
EndSplineSet
EndChar

StartChar: uniFB02
Encoding: 423 64258 378
Width: 1710
VWidth: 0
Flags: HW
LayerCount: 2
Fore
SplineSet
1389 0 m 2
 1483 0 l 2
 1526 0 1550 24 1550 67 c 2
 1550 1351 l 2
 1550 1394 1525.65913223 1412.59644215 1483 1418 c 1
 1364.58043252 1441.10810811 1238.02825129 1475 943 1475 c 0
 653 1475 362 1381 362 1041 c 0
 362 1019 361 1006 339 1006 c 2
 189 1006 l 2
 146 1006 122 988 122 945 c 2
 122 910 l 2
 122 867 146 858 189 858 c 2
 341 858 l 2
 361 858 361 841 361 821 c 2
 361 77 l 2
 361 34 395 0 438 0 c 2
 512 0 l 2
 555 0 589 34 589 77 c 2
 589 821 l 2
 589 841 592 858 612 858 c 2
 1006 858 l 2
 1049 858 1073 867 1073 910 c 2
 1073 951 l 2
 1073 994 1049 1006 1006 1006 c 2
 601 1006 l 2
 591 1006 589 1014 589 1017 c 2
 589 1060 l 2
 589 1199 651 1323 999 1323 c 0
 1085.06755758 1323 1232.67778233 1307.84397003 1322 1298.07431138 c 1
 1322 67 l 2
 1322 24 1346 0 1389 0 c 2
EndSplineSet
EndChar

StartChar: uniFB03
Encoding: 424 64259 379
Width: 2409
VWidth: 0
Flags: HW
LayerCount: 2
Fore
SplineSet
2089 0 m 2
 2183 0 l 2
 2226 0 2250 24 2250 67 c 2
 2250 939 l 2
 2250 982 2226 1006 2183 1006 c 2
 1432 1006 l 2
 1422 1006 1420 1014 1420 1017 c 2
 1420 1060 l 2
 1420 1199 1454.5 1323 1650 1323 c 0
 1708.02898551 1323 1827.60386473 1290 1832 1290 c 0
 1866 1290 1873 1297 1873 1334 c 2
 1873 1388 l 2
 1873 1416 1851 1431 1823 1438 c 1
 1806.77165354 1441 1696.77952756 1475 1594 1475 c 0
 1393.96519722 1475 1193 1381 1193 1041 c 0
 1193 1019 1192 1006 1170 1006 c 2
 601 1006 l 2
 591 1006 589 1014 589 1017 c 2
 589 1060 l 2
 589 1199 625 1323 829 1323 c 0
 888.623188406 1323 1011.48309179 1290 1016 1290 c 0
 1050 1290 1057 1297 1057 1334 c 2
 1057 1388 l 2
 1057 1416 1035 1431 1007 1438 c 1
 990.417322835 1441 878.023622047 1475 773 1475 c 0
 567.976798144 1475 362 1381 362 1041 c 0
 362 1019 361 1006 339 1006 c 2
 189 1006 l 2
 146 1006 122 988 122 945 c 2
 122 910 l 2
 122 867 146 858 189 858 c 2
 341 858 l 2
 361 858 361 841 361 821 c 2
 361 77 l 2
 361 34 395 0 438 0 c 2
 512 0 l 2
 555 0 589 34 589 77 c 2
 589 821 l 2
 589 841 592 858 612 858 c 2
 1172 858 l 2
 1192 858 1192 841 1192 821 c 2
 1192 77 l 2
 1192 34 1226 0 1269 0 c 2
 1343 0 l 2
 1386 0 1420 34 1420 77 c 2
 1420 821 l 2
 1420 841 1423 858 1443 858 c 2
 2022 858 l 1
 2022 67 l 2
 2022 24 2046 0 2089 0 c 2
2089 1179 m 2
 2183 1179 l 2
 2226 1179 2250 1203 2250 1246 c 2
 2250 1344 l 2
 2250 1387 2226 1411 2183 1411 c 2
 2089 1411 l 2
 2046 1411 2022 1387 2022 1344 c 2
 2022 1246 l 2
 2022 1203 2046 1179 2089 1179 c 2
EndSplineSet
EndChar

StartChar: uniFB04
Encoding: 425 64260 380
Width: 2525
VWidth: 0
Flags: HW
LayerCount: 2
Fore
SplineSet
2204 0 m 2
 2298 0 l 2
 2341 0 2365 24 2365 67 c 2
 2365 1351 l 2
 2365 1394 2340.65913223 1412.59644215 2298 1418 c 1
 2183.96634243 1441.10810811 2062.10127902 1475 1778 1475 c 0
 1497.9827883 1475 1217 1381 1217 1041 c 0
 1217 1019 1216 1006 1194 1006 c 2
 601 1006 l 2
 591 1006 589 1014 589 1017 c 2
 589 1060 l 2
 589 1199 628 1323 849 1323 c 0
 915 1323 1051 1290 1056 1290 c 0
 1090 1290 1097 1297 1097 1334 c 2
 1097 1388 l 2
 1097 1416 1075 1431 1047 1438 c 1
 1029 1441 907 1475 793 1475 c 0
 578 1475 362 1381 362 1041 c 0
 362 1019 361 1006 339 1006 c 2
 189 1006 l 2
 146 1006 122 988 122 945 c 2
 122 910 l 2
 122 867 146 858 189 858 c 2
 341 858 l 2
 361 858 361 841 361 821 c 2
 361 77 l 2
 361 34 395 0 438 0 c 2
 512 0 l 2
 555 0 589 34 589 77 c 2
 589 821 l 2
 589 841 592 858 612 858 c 2
 1196 858 l 2
 1216 858 1216 841 1216 821 c 2
 1216 77 l 2
 1216 34 1250 0 1293 0 c 2
 1367 0 l 2
 1410 0 1444 34 1444 77 c 2
 1444 821 l 2
 1444 841 1447 858 1467 858 c 2
 1841 858 l 2
 1884 858 1908 867 1908 910 c 2
 1908 951 l 2
 1908 994 1884 1006 1841 1006 c 2
 1456 1006 l 2
 1446 1006 1444 1014 1444 1017 c 2
 1444 1060 l 2
 1444 1199 1502.97560976 1323 1834 1323 c 0
 1914.73829705 1323 2053.2085698 1307.8439137 2137 1298.07421875 c 1
 2137 67 l 2
 2137 24 2161 0 2204 0 c 2
EndSplineSet
EndChar

StartChar: uni0311
Encoding: 371 785 382
Width: 1218
VWidth: 0
Flags: HW
AnchorPoint: "top" 624 1006.9 mark 0
LayerCount: 2
Fore
SplineSet
640 1499 m 4
 475 1499 320 1426 320 1186 c 5
 512 1186 l 5
 512 1303 560 1353 640 1353 c 4
 721 1353 768 1296 768 1186 c 5
 960 1186 l 5
 960 1426 806 1499 640 1499 c 4
EndSplineSet
EndChar

StartChar: Lslash
Encoding: 255 321 383
Width: 1358
VWidth: 0
Flags: HW
LayerCount: 2
Fore
SplineSet
227 0 m 2
 1181 0 l 2
 1224 0 1248 24 1248 67 c 2
 1248 94 l 2
 1248 137 1224 160 1181 160 c 2
 425 160 l 2
 405 160 388 177 388 197 c 2
 388 725.020408163 l 1
 744 834 l 2
 784.258789062 846.32421875 801 858 801 901 c 2
 801 924 l 2
 801 967 786.213867188 1003.92285156 744 991 c 2
 388 882.020408163 l 1
 388 1371 l 2
 388 1414 364 1438 321 1438 c 2
 227 1438 l 2
 184 1438 160 1414 160 1371 c 2
 160 812.224489796 l 1
 58 781 l 1
 16.1240234375 771.232421875 1 757 1 714 c 2
 1 691 l 2
 1 648 16.7875024357 614.38775567 58 624 c 1
 160 655.224489796 l 1
 160 67 l 2
 160 24 184 0 227 0 c 2
EndSplineSet
EndChar

StartChar: lslash
Encoding: 256 322 384
Width: 693
VWidth: 0
Flags: HW
LayerCount: 2
Fore
SplineSet
284 0 m 6
 378 0 l 6
 421 0 445 24 445 67 c 6
 445 738.05859375 l 5
 600 788 l 6
 640.258789062 800.32421875 657 812 657 855 c 6
 657 878 l 6
 657 921 642.213867188 957.922851562 600 945 c 6
 445 895.05859375 l 5
 445 1371 l 6
 445 1414 421 1438 378 1438 c 6
 284 1438 l 6
 241 1438 217 1414 217 1371 c 6
 217 821.59765625 l 5
 91 781 l 6
 50.0732421875 767.813476562 34 757 34 714 c 6
 34 691 l 6
 34 648 50.71875 611.021484375 91 624 c 6
 217 664.59765625 l 5
 217 67 l 6
 217 24 241 0 284 0 c 6
EndSplineSet
EndChar

StartChar: quotesinglbase
Encoding: 399 8218 397
Width: 588
VWidth: 0
Flags: HW
LayerCount: 2
Fore
SplineSet
203 -301 m 4
 341 -278 472 -142 472 95 c 6
 472 240 l 6
 472 283 438 317 395 317 c 6
 197 317 l 6
 154 317 137 296 137 253 c 6
 137 50 l 6
 137 12 159 0 197 0 c 6
 282 0 l 6
 297 0 299 -11 299 -27 c 4
 299 -51 267 -128 198 -171 c 4
 155 -198 137 -192 137 -246 c 6
 137 -256 l 6
 137 -292 168 -307 203 -301 c 4
EndSplineSet
EndChar

StartChar: quotedblleft
Encoding: 400 8220 398
Width: 1107
VWidth: 0
Flags: HW
LayerCount: 2
Fore
SplineSet
699 911 m 6
 897 911 l 6
 940 911 957 932 957 975 c 6
 957 1178 l 6
 957 1216 935 1228 897 1228 c 6
 812 1228 l 6
 797 1228 795 1239 795 1255 c 4
 795 1279 827 1356 896 1399 c 4
 939 1426 957 1420 957 1474 c 6
 957 1484 l 6
 957 1520 926 1535 891 1529 c 4
 753 1506 622 1370 622 1133 c 6
 622 988 l 6
 622 945 656 911 699 911 c 6
225 911 m 2
 423 911 l 2
 466 911 483 932 483 975 c 2
 483 1178 l 2
 483 1216 461 1228 423 1228 c 2
 338 1228 l 2
 323 1228 321 1239 321 1255 c 0
 321 1279 353 1356 422 1399 c 0
 465 1426 483 1420 483 1474 c 2
 483 1484 l 2
 483 1520 452 1535 417 1529 c 0
 279 1506 148 1370 148 1133 c 2
 148 988 l 2
 148 945 182 911 225 911 c 2
EndSplineSet
EndChar

StartChar: quotedblright
Encoding: 401 8221 399
Width: 1085
VWidth: 0
Flags: HW
LayerCount: 2
Fore
SplineSet
667 917 m 4
 805 940 936 1076 936 1313 c 6
 936 1458 l 6
 936 1501 902 1535 859 1535 c 6
 661 1535 l 6
 618 1535 601 1514 601 1471 c 6
 601 1268 l 6
 601 1230 623 1218 661 1218 c 6
 746 1218 l 6
 761 1218 763 1207 763 1191 c 4
 763 1167 731 1090 662 1047 c 4
 619 1020 601 1026 601 972 c 6
 601 962 l 6
 601 926 632 911 667 917 c 4
216 917 m 0
 354 940 485 1076 485 1313 c 2
 485 1458 l 2
 485 1501 451 1535 408 1535 c 2
 210 1535 l 2
 167 1535 150 1514 150 1471 c 2
 150 1268 l 2
 150 1230 172 1218 210 1218 c 2
 295 1218 l 2
 310 1218 312 1207 312 1191 c 0
 312 1167 280 1090 211 1047 c 0
 168 1020 150 1026 150 972 c 2
 150 962 l 2
 150 926 181 911 216 917 c 0
EndSplineSet
EndChar

StartChar: quotedblbase
Encoding: 402 8222 400
Width: 1085
VWidth: 0
Flags: HW
LayerCount: 2
Fore
SplineSet
667 -301 m 4
 805 -278 936 -142 936 95 c 6
 936 240 l 6
 936 283 902 317 859 317 c 6
 661 317 l 6
 618 317 601 296 601 253 c 6
 601 50 l 6
 601 12 623 0 661 0 c 6
 746 0 l 6
 761 0 763 -11 763 -27 c 4
 763 -51 731 -128 662 -171 c 4
 619 -198 601 -192 601 -246 c 6
 601 -256 l 6
 601 -292 632 -307 667 -301 c 4
216 -301 m 0
 354 -278 485 -142 485 95 c 2
 485 240 l 2
 485 283 451 317 408 317 c 2
 210 317 l 2
 167 317 150 296 150 253 c 2
 150 50 l 2
 150 12 172 0 210 0 c 2
 295 0 l 2
 310 0 312 -11 312 -27 c 0
 312 -51 280 -128 211 -171 c 0
 168 -198 150 -192 150 -246 c 2
 150 -256 l 2
 150 -292 181 -307 216 -301 c 0
EndSplineSet
EndChar

StartChar: perthousand
Encoding: 407 8240 402
Width: 3587
VWidth: 0
Flags: HW
LayerCount: 2
Fore
SplineSet
3069 141 m 4
 2903 141 2801 255 2801 439 c 4
 2801 627 2898 737 3069 737 c 4
 3249 737 3337 627 3337 439 c 4
 3337 255 3244 141 3069 141 c 4
3069 1 m 4
 3366 1 3517 198 3517 436 c 4
 3517 672 3370 877 3069 877 c 4
 2768 877 2620 672 2620 436 c 4
 2620 198 2772 1 3069 1 c 4
893 -82 m 2
 925 -82 l 2
 971 -82 1014 -54 1033 -12 c 2
 1687 1466 l 2
 1702 1499 1678 1536 1641 1536 c 2
 1610 1536 l 2
 1564 1536 1520 1508 1502 1466 c 2
 847 -12 l 2
 832 -45 856 -82 893 -82 c 2
519 761 m 0
 353 761 251 875 251 1059 c 0
 251 1247 348 1357 519 1357 c 0
 699 1357 787 1247 787 1059 c 0
 787 875 694 761 519 761 c 0
519 621 m 0
 816 621 967 818 967 1056 c 0
 967 1292 820 1497 519 1497 c 0
 218 1497 70 1292 70 1056 c 0
 70 818 222 621 519 621 c 0
2010 141 m 0
 1844 141 1742 255 1742 439 c 0
 1742 627 1839 737 2010 737 c 0
 2190 737 2278 627 2278 439 c 0
 2278 255 2185 141 2010 141 c 0
2010 1 m 0
 2307 1 2458 198 2458 436 c 0
 2458 672 2311 877 2010 877 c 0
 1709 877 1561 672 1561 436 c 0
 1561 198 1713 1 2010 1 c 0
EndSplineSet
EndChar

StartChar: quotesingle
Encoding: 7 39 403
Width: 508
VWidth: 0
Flags: HW
LayerCount: 2
Fore
SplineSet
255.763671875 772 m 2
 260.763671875 772 l 2
 303.763671875 772 302.763671875 796 307.763671875 839 c 2
 368.763671875 1350 l 2
 373.763671875 1393 344.763671875 1438 301.763671875 1438 c 2
 207.763671875 1438 l 2
 164.763671875 1438 134.763671875 1394 140.763671875 1351 c 2
 208.763671875 839 l 2
 214.763671875 796 212.763671875 772 255.763671875 772 c 2
EndSplineSet
EndChar

StartChar: Euro
Encoding: 411 8364 404
Width: 2193
VWidth: 0
Flags: HW
LayerCount: 2
Fore
SplineSet
57 504 m 2
 845 504 l 2
 888 504 902 518 902 561 c 2
 902 605 l 2
 902 648 888 662 845 662 c 2
 57 662 l 2
 14 662 0 648 0 605 c 2
 0 561 l 2
 0 518 14 504 57 504 c 2
57 780 m 2
 845 780 l 2
 888 780 902 794 902 837 c 2
 902 881 l 2
 902 924 888 938 845 938 c 2
 57 938 l 2
 14 938 0 924 0 881 c 2
 0 837 l 2
 0 794 14 780 57 780 c 2
1131 -41 m 0
 1495 -41 1882 48 2052 392 c 0
 2054 396 2055 401 2055 407 c 0
 2055 418 2050 430 2036 431 c 1
 1871 458 1868 458 1865 458 c 0
 1834 458 1825 433 1817 420 c 0
 1677 189 1422 127 1131 127 c 0
 744 127 362 231 362 721 c 0
 362 1139 731 1307 1131 1307 c 0
 1429 1307 1672 1210 1816 995 c 0
 1827 978 1847 972 1862 972 c 0
 1863 972 1865 972 2036 996 c 0
 2051 999 2055 1007 2055 1014 c 0
 2055 1021 2052 1028 2050 1033 c 0
 1878 1362 1495 1475 1131 1475 c 0
 673 1475 133 1293 133 721 c 0
 133 102 673 -41 1131 -41 c 0
EndSplineSet
EndChar

StartChar: guilsinglleft
Encoding: 408 8249 405
Width: 709
VWidth: 0
Flags: HW
LayerCount: 2
Fore
SplineSet
597 245 m 0
 618 245 638 262 638 286 c 2
 638 376 l 2
 638 418 611 436 576 457 c 1
 257 690 l 2
 251 694 248 699 248 704 c 0
 248 709 251 714 257 718 c 2
 576 949 l 1
 610 971 638 988 638 1029 c 2
 638 1104 l 2
 638 1128 618 1145 596 1145 c 0
 589 1145 583 1143 577 1141 c 1
 129 816 l 2
 95 791 68 774 68 732 c 2
 68 673 l 2
 68 631 95 614 128 589 c 2
 577 250 l 1
 584 248 591 245 597 245 c 0
EndSplineSet
EndChar

StartChar: guilsinglright
Encoding: 409 8250 406
Width: 708
VWidth: 0
Flags: HW
LayerCount: 2
Fore
SplineSet
113 245 m 0
 120 245 126 247 133 249 c 1
 580 574 l 2
 614 599 641 616 641 658 c 2
 641 717 l 2
 641 759 614 776 581 801 c 2
 132 1140 l 1
 125 1142 118 1145 112 1145 c 0
 91 1145 72 1128 72 1104 c 2
 72 1014 l 2
 72 972 99 954 134 933 c 1
 452 700 l 2
 458 696 461 691 461 686 c 0
 461 681 458 676 452 672 c 2
 134 441 l 1
 100 419 72 402 72 361 c 2
 72 286 l 2
 72 262 91 245 113 245 c 0
EndSplineSet
EndChar

StartChar: emdash
Encoding: 396 8212 407
Width: 2048
VWidth: 0
Flags: HW
LayerCount: 2
Fore
SplineSet
121 487 m 1
 121 653 l 1
 1926 653 l 1
 1926 487 l 1
 121 487 l 1
EndSplineSet
EndChar

StartChar: endash
Encoding: 395 8211 408
Width: 1024
VWidth: 0
Flags: HW
LayerCount: 2
Fore
SplineSet
121 487 m 1
 121 653 l 1
 902 653 l 1
 902 487 l 1
 121 487 l 1
EndSplineSet
EndChar

StartChar: uni0326
Encoding: 372 806 409
Width: 1745
VWidth: 0
Flags: HW
AnchorPoint: "bot" 847 0 mark 0
LayerCount: 2
Fore
SplineSet
683.5 -585 m 2
 703.5 -585 l 2
 741.5 -585 744.5 -570 759.5 -546 c 2
 961.5 -218 l 2
 968.5 -206 973.5 -192 973.5 -181 c 0
 973.5 -165 965.5 -153 945.5 -153 c 2
 779.5 -153 l 2
 735.5 -153 716.5 -165 708.5 -208 c 2
 645.5 -518 l 2
 642.5 -532 641.5 -544 641.5 -553 c 0
 641.5 -580 654.5 -585 683.5 -585 c 2
EndSplineSet
EndChar

StartChar: uni00B5
Encoding: 115 181 414
Width: 1551
VWidth: 0
Flags: HW
LayerCount: 2
Fore
SplineSet
220 -299 m 2
 321 -299 l 2
 364 -299 380 -275 380 -232 c 2
 380 48 l 1
 432 -19 560 -47 672 -47 c 0
 862 -47 1051 19 1181 180 c 0
 1187 187 1193 195 1201 195 c 0
 1209 195 1211 190 1216 182 c 1
 1243 64 l 2
 1254 14 1276 0 1323 0 c 2
 1343 0 l 2
 1386 0 1400 34 1400 77 c 2
 1400 939 l 2
 1400 982 1376 1006 1333 1006 c 2
 1238 1006 l 2
 1195 1006 1172 982 1172 939 c 2
 1172 400 l 2
 1172 267 912 111 715 111 c 0
 529 111 380 175 380 400 c 2
 380 939 l 2
 380 982 356 1006 313 1006 c 2
 219 1006 l 2
 176 1006 152 982 152 939 c 2
 152 -232 l 2
 152 -275 177 -299 220 -299 c 2
EndSplineSet
EndChar
